if (_typeface_js && _typeface_js.loadFace) _typeface_js.loadFace({"glyphs":{"0":{"ha":736,"x_min":63,"x_max":674,"o":"m 63 486 q 85 722 63 626 q 147 876 107 818 q 244 960 188 935 q 368 986 300 986 q 492 960 436 986 q 589 876 549 935 q 651 722 629 818 q 674 486 674 626 q 651 250 674 346 q 589 96 629 154 q 492 12 549 38 q 368 -14 436 -14 q 244 12 300 -14 q 147 96 188 38 q 85 250 107 154 q 63 486 63 346 m 507 486 q 494 687 507 608 q 460 810 481 765 q 416 872 440 854 q 368 889 392 889 q 320 872 344 889 q 276 810 296 854 q 242 687 256 765 q 229 486 229 608 q 242 285 229 364 q 276 163 256 207 q 320 101 296 118 q 368 83 344 83 q 416 101 392 83 q 460 163 440 118 q 494 285 481 207 q 507 486 507 364 z "},"1":{"ha":424,"x_min":14,"x_max":326,"o":"m 326 972 l 326 0 l 160 0 l 160 861 l 14 861 l 14 944 q 104 964 46 956 q 236 972 163 972 l 326 972 z "},"2":{"ha":583,"x_min":21,"x_max":542,"o":"m 21 125 q 181 312 114 232 q 292 457 249 392 q 355 578 335 522 q 375 694 375 635 q 336 838 375 794 q 229 882 297 882 l 35 882 l 35 958 q 125 978 67 969 q 257 986 183 986 q 542 694 542 986 q 514 561 542 629 q 438 421 486 493 q 324 272 389 349 q 188 111 260 194 l 535 111 l 535 0 l 21 0 l 21 125 z "},"3":{"ha":604,"x_min":21,"x_max":556,"o":"m 257 986 q 458 918 388 986 q 528 729 528 850 q 491 598 528 650 q 396 517 454 546 l 396 511 q 462 474 432 499 q 513 417 492 450 q 544 345 533 385 q 556 264 556 306 q 481 57 556 128 q 243 -14 406 -14 q 111 -6 169 -14 q 21 14 53 3 l 21 90 l 215 90 q 389 264 389 90 q 347 408 389 364 q 215 453 304 453 l 104 453 l 104 563 l 201 563 q 361 729 361 563 q 322 842 361 803 q 215 882 283 882 l 35 882 l 35 958 q 125 978 67 969 q 257 986 183 986 z "},"4":{"ha":674,"x_min":35,"x_max":639,"o":"m 35 236 l 35 361 l 382 972 l 563 972 l 563 347 l 639 347 l 639 236 l 563 236 l 563 0 l 396 0 l 396 236 l 35 236 m 396 347 l 396 722 l 390 722 l 188 347 l 396 347 z "},"5":{"ha":646,"x_min":63,"x_max":597,"o":"m 243 576 l 285 576 q 522 503 447 576 q 597 278 597 429 q 522 58 597 131 q 285 -14 447 -14 q 153 -6 211 -14 q 63 14 94 3 l 63 90 l 257 90 q 388 134 346 90 q 431 278 431 178 q 388 427 431 382 q 257 472 346 472 l 76 472 l 76 972 l 563 972 l 563 868 l 243 868 l 243 576 z "},"6":{"ha":660,"x_min":63,"x_max":618,"o":"m 354 986 q 486 978 428 986 q 576 958 544 969 l 576 882 l 396 882 q 329 867 360 882 q 276 817 299 853 q 242 721 254 781 q 229 569 229 661 q 298 585 261 581 q 361 590 335 590 q 550 516 482 590 q 618 285 618 442 q 547 60 618 133 q 340 -14 476 -14 q 133 58 204 -14 q 63 278 63 131 l 63 583 q 140 889 63 792 q 354 986 218 986 m 229 493 l 229 278 q 261 128 229 174 q 340 83 293 83 q 419 129 388 83 q 451 285 451 175 q 444 381 451 342 q 419 446 438 421 q 372 482 401 471 q 299 493 343 493 l 229 493 z "},"7":{"ha":597,"x_min":28,"x_max":556,"o":"m 556 847 q 471 617 508 728 q 403 403 433 507 q 350 199 372 299 q 313 0 328 99 l 146 0 q 239 409 176 197 q 396 861 301 621 l 28 861 l 28 972 l 556 972 l 556 847 z "},"8":{"ha":694,"x_min":49,"x_max":646,"o":"m 347 986 q 554 919 483 986 q 625 743 625 853 q 611 654 625 693 q 574 586 597 615 q 523 538 551 557 q 465 510 494 519 l 465 504 q 534 467 501 489 q 592 413 567 444 q 631 341 617 382 q 646 250 646 300 q 572 55 646 124 q 347 -14 499 -14 q 122 55 196 -14 q 49 250 49 124 q 63 341 49 300 q 103 413 78 382 q 160 467 128 444 q 229 504 193 489 l 229 510 q 172 538 200 519 q 120 586 143 557 q 83 654 97 615 q 69 743 69 693 q 140 919 69 853 q 347 986 211 986 m 347 83 q 442 125 406 83 q 479 250 479 167 q 469 318 479 289 q 442 370 460 347 q 400 411 424 393 q 347 444 376 429 q 294 411 318 429 q 253 370 271 393 q 225 318 235 347 q 215 250 215 289 q 252 125 215 167 q 347 83 289 83 m 347 568 q 426 627 394 585 q 458 743 458 669 q 424 850 458 811 q 347 889 389 889 q 271 850 306 889 q 236 743 236 811 q 268 627 236 669 q 347 568 300 585 z "},"9":{"ha":660,"x_min":42,"x_max":597,"o":"m 306 -14 q 174 -6 232 -14 q 83 14 115 3 l 83 90 l 264 90 q 331 105 300 90 q 383 156 361 119 q 418 251 406 192 q 431 403 431 311 q 362 387 399 392 q 299 382 325 382 q 110 456 178 382 q 42 688 42 531 q 113 913 42 839 q 319 986 183 986 q 526 914 456 986 q 597 694 597 842 l 597 389 q 577 209 597 285 q 519 83 557 133 q 428 10 482 33 q 306 -14 374 -14 m 431 479 l 431 694 q 399 844 431 799 q 319 889 367 889 q 240 843 272 889 q 208 688 208 797 q 215 591 208 631 q 240 526 222 551 q 288 490 258 501 q 361 479 317 479 l 431 479 z "}," ":{"ha":347,"x_min":0,"x_max":0,"o":""},"!":{"ha":361,"x_min":83,"x_max":278,"o":"m 111 257 l 83 972 l 278 972 l 250 257 l 111 257 m 264 153 l 264 -14 l 97 -14 l 97 153 l 264 153 z "},"\"":{"ha":514,"x_min":56,"x_max":458,"o":"m 56 972 l 222 972 l 188 646 l 90 646 l 56 972 m 292 972 l 458 972 l 424 646 l 326 646 l 292 972 z "},"#":{"ha":819,"x_min":28,"x_max":792,"o":"m 597 271 l 556 0 l 396 0 l 438 271 l 313 271 l 271 0 l 111 0 l 153 271 l 28 271 l 28 382 l 172 382 l 204 590 l 69 590 l 69 701 l 222 701 l 264 972 l 424 972 l 382 701 l 507 701 l 549 972 l 708 972 l 667 701 l 792 701 l 792 590 l 647 590 l 615 382 l 750 382 l 750 271 l 597 271 m 317 382 l 471 382 l 503 590 l 349 590 l 317 382 z "},"$":{"ha":646,"x_min":42,"x_max":604,"o":"m 42 736 q 101 906 42 840 q 278 983 160 972 l 278 1097 l 375 1097 l 375 985 q 477 974 432 982 q 549 958 522 967 l 549 882 l 375 882 l 375 544 q 456 503 415 525 q 530 448 497 481 q 583 368 563 415 q 604 250 604 321 q 551 79 604 144 q 375 -6 497 14 l 375 -125 l 278 -125 l 278 -14 l 271 -14 q 139 -6 197 -14 q 49 14 81 3 l 49 90 l 243 90 q 261 90 253 90 q 278 92 269 90 l 278 428 q 194 469 236 447 q 119 526 153 492 q 63 611 85 561 q 42 736 42 661 m 208 736 q 227 656 208 688 q 278 600 246 624 l 278 865 q 208 736 208 828 m 438 250 q 420 322 438 293 q 375 374 403 351 l 375 118 q 438 250 438 157 z "},"%":{"ha":1000,"x_min":35,"x_max":965,"o":"m 854 972 l 313 0 l 146 0 l 688 972 l 854 972 m 250 889 q 196 863 218 889 q 174 778 174 836 q 196 693 174 719 q 250 667 218 667 q 304 693 282 667 q 326 778 326 719 q 304 863 326 836 q 250 889 282 889 m 250 986 q 408 929 350 986 q 465 778 465 872 q 408 626 465 683 q 250 569 350 569 q 92 626 150 569 q 35 778 35 683 q 92 929 35 872 q 250 986 150 986 m 750 306 q 696 279 718 306 q 674 194 674 253 q 696 110 674 136 q 750 83 718 83 q 804 110 782 83 q 826 194 826 136 q 804 279 826 253 q 750 306 782 306 m 750 403 q 908 346 850 403 q 965 194 965 289 q 908 43 965 100 q 750 -14 850 -14 q 592 43 650 -14 q 535 194 535 100 q 592 346 535 289 q 750 403 650 403 z "},"&":{"ha":757,"x_min":49,"x_max":743,"o":"m 333 736 q 338 665 333 700 q 358 589 343 631 q 401 497 374 547 q 472 382 428 447 l 535 542 l 701 542 l 576 236 l 743 0 l 563 0 l 497 94 q 415 13 461 40 q 292 -14 369 -14 q 115 55 182 -14 q 49 250 49 124 q 57 369 49 313 q 76 458 65 426 l 208 458 l 208 250 q 217 169 208 200 q 240 121 226 139 q 270 97 254 103 q 299 90 286 90 q 360 122 331 90 q 410 222 389 154 q 292 394 339 321 q 218 526 246 468 q 178 634 190 585 q 167 736 167 683 q 235 919 167 851 q 424 986 303 986 q 556 978 497 986 q 646 958 614 969 l 646 882 l 451 882 q 369 843 404 882 q 333 736 333 804 z "},"'":{"ha":278,"x_min":56,"x_max":222,"o":"m 56 972 l 222 972 l 188 646 l 90 646 l 56 972 z "},"(":{"ha":369,"x_min":69,"x_max":369,"o":"m 250 389 q 257 221 250 300 q 278 67 264 142 q 315 -78 293 -7 q 369 -222 338 -150 l 292 -264 q 187 -99 229 -186 q 118 73 144 -12 q 81 240 92 158 q 69 389 69 321 q 81 538 69 457 q 118 705 92 619 q 187 877 144 790 q 292 1042 229 964 l 369 1000 q 315 856 338 926 q 278 710 293 785 q 257 557 264 636 q 250 389 250 478 z "},")":{"ha":369,"x_min":0,"x_max":300,"o":"m 119 389 q 113 557 119 478 q 91 710 106 636 q 54 856 76 785 q 0 1000 32 926 l 78 1042 q 183 877 140 964 q 251 705 225 790 q 289 538 278 619 q 300 389 300 457 q 289 240 300 321 q 251 73 278 158 q 183 -99 225 -12 q 78 -264 140 -186 l 0 -222 q 54 -78 32 -150 q 91 67 76 -7 q 113 221 106 142 q 119 389 119 300 z "},"*":{"ha":625,"x_min":28,"x_max":597,"o":"m 382 972 l 382 782 l 567 822 l 597 694 l 432 658 l 518 496 l 399 431 l 313 594 l 226 431 l 107 496 l 193 658 l 28 694 l 58 822 l 243 782 l 243 972 l 382 972 z "},"+":{"ha":625,"x_min":42,"x_max":583,"o":"m 375 708 l 375 472 l 583 472 l 583 361 l 375 361 l 375 125 l 250 125 l 250 361 l 42 361 l 42 472 l 250 472 l 250 708 l 375 708 z "},",":{"ha":271,"x_min":56,"x_max":222,"o":"m 56 153 l 222 153 l 167 -167 l 56 -167 l 56 153 z "},"-":{"ha":528,"x_min":42,"x_max":486,"o":"m 42 472 l 486 472 l 486 361 l 42 361 l 42 472 z "},".":{"ha":278,"x_min":56,"x_max":222,"o":"m 222 153 l 222 -14 l 56 -14 l 56 153 l 222 153 z "},"/":{"ha":583,"x_min":0,"x_max":583,"o":"m 583 972 l 167 0 l 0 0 l 417 972 l 583 972 z "},":":{"ha":278,"x_min":56,"x_max":222,"o":"m 222 153 l 222 -14 l 56 -14 l 56 153 l 222 153 m 222 694 l 222 528 l 56 528 l 56 694 l 222 694 z "},";":{"ha":264,"x_min":56,"x_max":222,"o":"m 222 694 l 222 528 l 56 528 l 56 694 l 222 694 m 56 153 l 222 153 l 167 -167 l 56 -167 l 56 153 z "},"<":{"ha":563,"x_min":56,"x_max":507,"o":"m 56 424 l 507 694 l 507 528 l 215 357 l 215 350 l 507 174 l 507 7 l 56 278 l 56 424 z "},"=":{"ha":625,"x_min":42,"x_max":583,"o":"m 583 354 l 583 236 l 42 236 l 42 354 l 583 354 m 583 597 l 583 479 l 42 479 l 42 597 l 583 597 z "},">":{"ha":563,"x_min":56,"x_max":507,"o":"m 507 278 l 56 7 l 56 174 l 347 350 l 347 357 l 56 528 l 56 694 l 507 424 l 507 278 z "},"?":{"ha":549,"x_min":14,"x_max":507,"o":"m 146 257 q 160 367 146 321 q 197 449 175 413 q 243 513 218 485 q 290 572 268 542 q 326 638 311 603 q 340 722 340 674 q 301 842 340 801 q 194 882 263 882 l 14 882 l 14 958 q 104 978 46 969 q 236 986 163 986 q 437 917 367 986 q 507 722 507 849 q 492 620 507 664 q 453 542 476 576 q 401 477 429 507 q 349 415 374 447 q 306 344 324 382 q 285 257 288 307 l 146 257 m 299 153 l 299 -14 l 132 -14 l 132 153 l 299 153 z "},"@":{"ha":1181,"x_min":63,"x_max":1118,"o":"m 639 653 q 578 641 606 653 q 533 602 551 629 q 503 530 514 575 q 493 417 493 485 q 503 320 493 360 q 527 256 513 281 q 560 219 542 231 q 597 208 579 208 q 643 217 624 208 q 674 236 663 225 l 674 653 l 639 653 m 840 215 q 886 228 864 215 q 926 275 908 242 q 955 365 944 308 q 965 507 965 421 q 866 790 965 690 q 583 889 767 889 q 313 779 411 889 q 215 431 215 669 q 320 88 215 196 q 639 -21 425 -21 l 833 -21 l 833 -97 q 743 -117 801 -108 q 611 -125 685 -125 q 203 17 344 -125 q 63 431 63 158 q 98 669 63 565 q 201 844 133 774 q 365 950 268 914 q 583 986 461 986 q 810 951 711 986 q 978 853 910 917 q 1083 702 1047 790 q 1118 507 1118 614 q 1097 333 1118 406 q 1027 215 1075 261 q 904 147 979 168 q 722 125 829 125 l 701 167 l 694 167 q 635 126 668 140 q 556 111 603 111 q 470 130 511 111 q 397 186 429 149 q 346 281 365 224 q 326 417 326 339 q 401 672 326 594 q 639 750 476 750 q 753 742 697 750 q 840 722 808 733 l 840 215 z "},"A":{"ha":750,"x_min":21,"x_max":729,"o":"m 256 243 l 194 0 l 21 0 l 271 972 l 479 972 l 729 0 l 556 0 l 494 243 l 256 243 m 378 750 l 372 750 l 278 354 l 471 354 l 378 750 z "},"B":{"ha":736,"x_min":97,"x_max":688,"o":"m 514 518 q 642 424 597 489 q 688 264 688 358 q 608 57 688 128 q 340 -14 528 -14 q 206 -8 261 -14 q 97 14 150 -1 l 97 958 q 206 980 150 974 q 340 986 261 986 q 572 918 497 986 q 646 729 646 850 q 611 610 646 667 q 514 524 576 553 l 514 518 m 264 458 l 264 90 l 340 90 q 472 133 429 90 q 514 271 514 176 q 472 415 514 371 q 340 458 429 458 l 264 458 m 326 563 q 433 603 394 563 q 472 722 472 643 q 433 842 472 801 q 326 882 394 882 l 264 882 l 264 563 l 326 563 z "},"C":{"ha":632,"x_min":63,"x_max":611,"o":"m 389 -14 q 247 10 308 -14 q 145 90 186 33 q 83 244 104 147 q 63 486 63 340 q 83 728 63 632 q 144 882 104 825 q 242 963 183 939 q 375 986 300 986 q 507 978 449 986 q 597 958 565 969 l 597 882 l 431 882 q 349 864 386 882 q 285 801 313 846 q 244 680 258 757 q 229 486 229 603 q 244 292 229 369 q 288 171 260 215 q 355 108 315 126 q 444 90 394 90 l 611 90 l 611 14 q 521 -6 579 3 q 389 -14 463 -14 z "},"D":{"ha":757,"x_min":97,"x_max":694,"o":"m 694 486 q 672 250 694 346 q 603 96 649 154 q 492 12 558 38 q 340 -14 426 -14 q 206 -8 261 -14 q 97 14 150 -1 l 97 958 q 206 980 150 974 q 340 986 261 986 q 492 960 426 986 q 603 876 558 935 q 672 722 649 818 q 694 486 694 626 m 528 486 q 514 680 528 603 q 476 801 500 757 q 417 864 451 846 q 340 882 382 882 l 264 882 l 264 90 l 340 90 q 417 108 382 90 q 476 171 451 126 q 514 292 500 215 q 528 486 528 369 z "},"E":{"ha":660,"x_min":97,"x_max":604,"o":"m 264 111 l 604 111 l 604 0 l 97 0 l 97 972 l 604 972 l 604 861 l 264 861 l 264 563 l 563 563 l 563 451 l 264 451 l 264 111 z "},"F":{"ha":632,"x_min":97,"x_max":604,"o":"m 264 0 l 97 0 l 97 972 l 604 972 l 604 861 l 264 861 l 264 542 l 549 542 l 549 431 l 264 431 l 264 0 z "},"G":{"ha":729,"x_min":63,"x_max":646,"o":"m 646 14 q 555 -6 614 3 q 417 -14 496 -14 q 258 10 325 -14 q 148 90 192 33 q 83 244 104 147 q 63 486 63 340 q 83 728 63 632 q 145 882 104 825 q 247 963 186 939 q 389 986 308 986 q 521 978 463 986 q 611 958 579 969 l 611 882 l 431 882 q 349 864 386 882 q 285 801 313 846 q 244 680 258 757 q 229 486 229 603 q 244 292 229 369 q 288 171 260 215 q 355 108 315 126 q 444 90 394 90 l 479 90 l 479 528 l 646 528 l 646 14 z "},"H":{"ha":778,"x_min":97,"x_max":681,"o":"m 681 972 l 681 0 l 514 0 l 514 438 l 264 438 l 264 0 l 97 0 l 97 972 l 264 972 l 264 549 l 514 549 l 514 972 l 681 972 z "},"I":{"ha":361,"x_min":97,"x_max":264,"o":"m 264 972 l 264 0 l 97 0 l 97 972 l 264 972 z "},"J":{"ha":521,"x_min":0,"x_max":438,"o":"m 139 90 q 192 102 168 90 q 233 142 215 114 q 261 216 251 169 q 271 333 271 263 l 271 972 l 438 972 l 438 333 q 364 66 438 146 q 139 -14 290 -14 q 62 -6 97 -14 q 0 14 26 3 l 0 90 l 139 90 z "},"K":{"ha":722,"x_min":97,"x_max":708,"o":"m 708 0 l 521 0 l 264 458 l 264 0 l 97 0 l 97 972 l 264 972 l 264 528 l 493 972 l 681 972 l 424 493 l 708 0 z "},"L":{"ha":618,"x_min":97,"x_max":604,"o":"m 264 111 l 604 111 l 604 0 l 97 0 l 97 972 l 264 972 l 264 111 z "},"M":{"ha":1056,"x_min":69,"x_max":986,"o":"m 306 972 l 525 313 l 531 313 l 750 972 l 931 972 l 986 0 l 826 0 l 789 658 l 783 658 l 604 118 l 451 118 l 272 658 l 267 658 l 229 0 l 69 0 l 125 972 l 306 972 z "},"N":{"ha":792,"x_min":97,"x_max":694,"o":"m 264 639 l 257 639 l 257 0 l 97 0 l 97 972 l 264 972 l 528 333 l 535 333 l 535 972 l 694 972 l 694 0 l 528 0 l 264 639 z "},"O":{"ha":764,"x_min":63,"x_max":701,"o":"m 382 83 q 438 101 411 83 q 487 165 465 119 q 522 289 508 211 q 535 486 535 367 q 522 683 535 606 q 487 807 508 761 q 438 871 465 853 q 382 889 411 889 q 326 871 353 889 q 277 807 299 853 q 242 683 256 761 q 229 486 229 606 q 242 289 229 367 q 277 165 256 211 q 326 101 299 119 q 382 83 353 83 m 382 986 q 513 960 454 986 q 614 876 572 935 q 678 722 656 818 q 701 486 701 626 q 678 250 701 346 q 614 96 656 154 q 513 12 572 38 q 382 -14 454 -14 q 249 12 308 -14 q 149 96 190 38 q 85 250 107 154 q 63 486 63 346 q 85 722 63 626 q 149 876 107 818 q 249 960 190 935 q 382 986 308 986 z "},"P":{"ha":715,"x_min":97,"x_max":667,"o":"m 340 389 q 409 401 379 389 q 459 441 439 413 q 490 517 479 469 q 500 639 500 565 q 490 756 500 710 q 459 831 479 803 q 409 870 439 858 q 340 882 379 882 l 264 882 l 264 389 l 340 389 m 264 0 l 97 0 l 97 958 q 206 980 150 974 q 340 986 261 986 q 488 967 426 986 q 590 906 550 947 q 648 798 629 864 q 667 639 667 732 q 649 472 667 540 q 594 360 631 403 q 506 297 558 317 q 382 278 453 278 q 359 279 374 278 q 328 283 344 281 q 294 287 311 285 q 264 292 276 289 l 264 0 z "},"Q":{"ha":771,"x_min":63,"x_max":764,"o":"m 382 986 q 513 960 454 986 q 614 876 572 935 q 678 722 656 818 q 701 486 701 626 q 670 233 701 329 q 597 83 639 136 q 696 75 660 83 q 764 56 732 67 l 764 -14 l 382 -14 q 249 12 308 -14 q 149 96 190 38 q 85 250 107 154 q 63 486 63 346 q 85 722 63 626 q 149 876 107 818 q 249 960 190 935 q 382 986 308 986 m 382 83 q 438 101 411 83 q 487 165 465 119 q 522 289 508 211 q 535 486 535 367 q 522 683 535 606 q 487 807 508 761 q 438 871 465 853 q 382 889 411 889 q 326 871 353 889 q 277 807 299 853 q 242 683 256 761 q 229 486 229 606 q 243 283 229 361 q 279 160 257 204 q 328 99 301 115 q 382 83 356 83 z "},"R":{"ha":743,"x_min":97,"x_max":701,"o":"m 667 653 q 656 531 667 582 q 624 445 644 481 q 576 386 604 410 q 514 347 547 363 l 701 0 l 514 0 l 354 313 l 264 313 l 264 0 l 97 0 l 97 958 q 206 980 150 974 q 340 986 261 986 q 488 967 426 986 q 590 908 550 949 q 648 805 629 868 q 667 653 667 742 m 340 424 q 409 435 379 424 q 459 473 439 446 q 490 544 479 500 q 500 653 500 588 q 490 762 500 718 q 459 833 479 806 q 409 871 439 860 q 340 882 379 882 l 264 882 l 264 424 l 340 424 z "},"S":{"ha":646,"x_min":42,"x_max":604,"o":"m 42 736 q 113 919 42 851 q 326 986 185 986 q 458 978 400 986 q 549 958 517 969 l 549 882 l 354 882 q 247 843 286 882 q 208 736 208 804 q 238 639 208 675 q 311 577 267 603 q 406 529 356 551 q 501 473 457 507 q 575 387 546 439 q 604 250 604 335 q 526 56 604 125 q 271 -14 447 -14 q 139 -6 197 -14 q 49 14 81 3 l 49 90 l 243 90 q 392 131 347 90 q 438 250 438 171 q 408 341 438 307 q 335 399 379 375 q 240 446 290 424 q 144 503 189 468 q 71 593 100 539 q 42 736 42 647 z "},"T":{"ha":625,"x_min":14,"x_max":611,"o":"m 14 972 l 611 972 l 611 861 l 396 861 l 396 0 l 229 0 l 229 861 l 14 861 l 14 972 z "},"U":{"ha":764,"x_min":83,"x_max":681,"o":"m 382 83 q 435 95 411 83 q 476 135 458 107 q 504 212 494 164 q 514 333 514 260 l 514 972 l 681 972 l 681 333 q 607 66 681 146 q 382 -14 533 -14 q 157 66 231 -14 q 83 333 83 146 l 83 972 l 250 972 l 250 333 q 260 212 250 260 q 288 135 269 164 q 329 95 306 107 q 382 83 353 83 z "},"V":{"ha":722,"x_min":21,"x_max":701,"o":"m 194 972 l 358 215 l 364 215 l 528 972 l 701 972 l 465 0 l 257 0 l 21 972 l 194 972 z "},"W":{"ha":1042,"x_min":21,"x_max":1021,"o":"m 451 792 l 590 792 l 724 271 l 729 271 l 847 972 l 1021 972 l 847 0 l 667 0 l 524 542 l 518 542 l 375 0 l 194 0 l 21 972 l 194 972 l 313 271 l 318 271 l 451 792 z "},"X":{"ha":681,"x_min":14,"x_max":667,"o":"m 208 972 l 340 611 l 472 972 l 646 972 l 465 500 l 667 0 l 493 0 l 340 396 l 188 0 l 14 0 l 215 500 l 35 972 l 208 972 z "},"Y":{"ha":667,"x_min":7,"x_max":660,"o":"m 331 507 l 336 507 l 486 972 l 660 972 l 417 292 l 417 0 l 250 0 l 250 292 l 7 972 l 181 972 l 331 507 z "},"Z":{"ha":604,"x_min":28,"x_max":576,"o":"m 215 111 l 569 111 l 569 0 l 28 0 l 28 104 l 389 861 l 35 861 l 35 972 l 576 972 l 576 868 l 215 111 z "},"[":{"ha":396,"x_min":97,"x_max":396,"o":"m 396 931 l 264 931 l 264 -153 l 396 -153 l 396 -250 l 97 -250 l 97 1028 l 396 1028 l 396 931 z "},"\\":{"ha":583,"x_min":0,"x_max":583,"o":"m 167 972 l 583 0 l 417 0 l 0 972 l 167 972 z "},"]":{"ha":396,"x_min":0,"x_max":299,"o":"m 0 1028 l 299 1028 l 299 -250 l 0 -250 l 0 -153 l 132 -153 l 132 931 l 0 931 l 0 1028 z "},"^":{"ha":660,"x_min":42,"x_max":618,"o":"m 326 826 l 160 549 l 42 625 l 257 972 l 403 972 l 618 625 l 500 549 l 333 826 l 326 826 z "},"_":{"ha":444,"x_min":0,"x_max":444,"o":"m 0 0 l 444 0 l 444 -111 l 0 -111 l 0 0 z "},"`":{"ha":278,"x_min":28,"x_max":250,"o":"m 139 736 l 28 972 l 201 972 l 250 736 l 139 736 z "},"a":{"ha":660,"x_min":56,"x_max":569,"o":"m 403 333 l 326 333 q 290 328 308 333 q 256 308 271 322 q 232 269 242 293 q 222 208 222 244 q 232 148 222 172 q 256 109 242 124 q 290 89 271 94 q 326 83 308 83 q 372 92 353 83 q 403 111 392 100 l 403 333 m 271 -14 q 188 -5 226 -14 q 119 29 149 4 q 73 97 90 54 q 56 208 56 140 q 73 319 56 276 q 121 388 90 363 q 193 422 151 413 q 285 431 235 431 q 347 426 317 431 q 403 417 376 422 l 403 472 q 364 583 403 556 q 257 611 325 611 l 118 611 l 118 681 q 197 700 150 692 q 285 708 243 708 q 408 699 356 708 q 497 663 461 689 q 551 591 533 638 q 569 472 569 544 l 569 0 l 451 0 l 431 42 l 424 42 q 365 3 401 21 q 271 -14 329 -14 z "},"b":{"ha":688,"x_min":97,"x_max":632,"o":"m 264 674 q 316 699 286 689 q 382 708 346 708 q 485 689 439 708 q 565 626 532 669 q 615 515 597 583 q 632 347 632 446 q 613 180 632 249 q 557 68 594 111 q 462 6 519 25 q 326 -14 404 -14 q 201 -3 253 -14 q 97 28 150 7 l 97 972 l 264 972 l 264 674 m 264 83 l 326 83 q 383 95 357 83 q 427 137 408 107 q 456 218 446 167 q 465 347 465 269 q 456 476 465 425 q 429 558 446 528 q 390 599 413 588 q 340 611 367 611 q 294 603 314 611 q 264 583 275 594 l 264 83 z "},"c":{"ha":549,"x_min":56,"x_max":528,"o":"m 361 611 q 304 599 329 611 q 260 558 279 588 q 232 476 242 528 q 222 347 222 425 q 233 218 222 269 q 263 137 243 167 q 310 95 282 107 q 375 83 339 83 l 528 83 l 528 14 q 448 -6 496 3 q 347 -14 400 -14 q 219 6 274 -14 q 128 68 165 25 q 74 180 92 111 q 56 347 56 249 q 74 515 56 446 q 127 626 92 583 q 214 689 163 669 q 333 708 265 708 q 434 700 386 708 q 514 681 482 692 l 514 611 l 361 611 z "},"d":{"ha":688,"x_min":56,"x_max":590,"o":"m 424 583 q 393 603 413 594 q 347 611 374 611 q 298 599 321 611 q 258 558 275 588 q 232 476 242 528 q 222 347 222 425 q 232 218 222 269 q 258 137 242 167 q 298 95 275 107 q 347 83 321 83 q 391 92 374 83 q 424 111 408 100 l 424 583 m 292 -14 q 196 6 239 -14 q 122 68 153 25 q 73 180 90 111 q 56 347 56 249 q 73 515 56 446 q 123 626 90 583 q 202 689 156 669 q 306 708 249 708 q 372 699 342 708 q 424 674 401 689 l 424 972 l 590 972 l 590 0 l 472 0 l 451 42 l 444 42 q 386 3 422 21 q 292 -14 350 -14 z "},"e":{"ha":639,"x_min":56,"x_max":583,"o":"m 583 299 l 222 299 q 265 131 222 179 q 396 83 307 83 l 549 83 l 549 14 q 469 -6 517 3 q 368 -14 421 -14 q 228 6 288 -14 q 131 68 169 25 q 74 180 93 111 q 56 347 56 249 q 74 515 56 446 q 125 626 92 583 q 208 689 158 669 q 319 708 257 708 q 431 689 382 708 q 514 626 481 669 q 565 515 547 583 q 583 347 583 446 l 583 299 m 417 396 q 409 507 417 464 q 389 575 401 550 q 358 609 376 600 q 319 618 340 618 q 281 609 299 618 q 250 575 263 600 q 230 507 238 550 q 222 396 222 464 l 417 396 z "},"f":{"ha":472,"x_min":28,"x_max":486,"o":"m 104 736 q 122 855 104 808 q 168 927 139 901 q 236 963 197 953 q 319 972 275 972 q 364 970 340 972 q 410 964 388 968 q 453 955 433 960 q 486 944 474 950 l 486 875 l 375 875 q 335 869 354 875 q 302 847 317 863 q 279 805 288 832 q 271 736 271 778 l 271 681 l 458 681 l 458 604 q 378 585 426 593 q 278 576 331 576 l 271 576 l 271 0 l 104 0 l 104 576 l 28 576 l 28 681 l 104 681 l 104 736 z "},"g":{"ha":681,"x_min":56,"x_max":590,"o":"m 424 21 q 372 -4 403 6 q 306 -14 342 -14 q 202 6 249 -14 q 123 68 156 25 q 73 180 90 111 q 56 347 56 249 q 74 515 56 446 q 131 626 93 583 q 226 689 168 669 q 361 708 283 708 q 486 698 435 708 q 590 667 538 688 l 590 56 q 517 -212 590 -132 q 292 -292 443 -292 q 191 -283 239 -292 q 111 -264 143 -275 l 111 -194 l 264 -194 q 383 -147 342 -194 q 424 21 424 -99 m 424 611 l 361 611 q 304 599 329 611 q 260 558 279 588 q 232 476 242 528 q 222 347 222 425 q 232 218 222 269 q 258 137 242 167 q 298 95 275 107 q 347 83 321 83 q 393 92 374 83 q 424 111 413 100 l 424 611 z "},"h":{"ha":708,"x_min":97,"x_max":618,"o":"m 264 0 l 97 0 l 97 972 l 264 972 l 264 667 q 326 698 290 688 q 403 708 361 708 q 486 699 447 708 q 554 665 525 690 q 601 597 583 640 q 618 486 618 554 l 618 0 l 451 0 l 451 486 q 442 547 451 522 q 417 585 432 571 q 381 606 401 600 q 340 611 361 611 q 294 603 314 611 q 264 583 275 594 l 264 0 z "},"i":{"ha":361,"x_min":97,"x_max":264,"o":"m 264 0 l 97 0 l 97 694 l 264 694 l 264 0 m 264 944 l 264 778 l 97 778 l 97 944 l 264 944 z "},"j":{"ha":368,"x_min":-83,"x_max":271,"o":"m 271 -56 q 253 -175 271 -129 q 207 -247 236 -221 q 139 -282 178 -272 q 56 -292 100 -292 q -22 -283 14 -292 q -83 -264 -57 -275 l -83 -194 l 14 -194 q 77 -162 50 -194 q 104 -56 104 -129 l 104 694 l 271 694 l 271 -56 m 271 944 l 271 778 l 104 778 l 104 944 l 271 944 z "},"k":{"ha":639,"x_min":97,"x_max":625,"o":"m 264 0 l 97 0 l 97 972 l 264 972 l 264 396 l 431 694 l 611 694 l 424 368 l 625 0 l 444 0 l 264 340 l 264 0 z "},"l":{"ha":361,"x_min":97,"x_max":264,"o":"m 97 972 l 264 972 l 264 0 l 97 0 l 97 972 z "},"m":{"ha":1028,"x_min":90,"x_max":938,"o":"m 597 0 l 431 0 l 431 486 q 422 547 431 522 q 398 585 413 571 q 366 606 383 600 q 333 611 349 611 q 288 603 307 611 q 257 583 268 594 l 257 0 l 90 0 l 90 694 l 208 694 l 229 653 l 236 653 q 296 691 258 674 q 396 708 333 708 q 485 694 449 708 q 549 653 522 679 q 624 694 581 679 q 729 708 667 708 q 808 699 771 708 q 875 665 846 690 q 921 597 904 640 q 938 486 938 554 l 938 0 l 771 0 l 771 486 q 761 547 771 522 q 737 585 751 571 q 703 606 722 600 q 667 611 685 611 q 619 605 640 611 q 583 590 599 599 q 593 547 589 575 q 597 486 597 518 l 597 0 z "},"n":{"ha":701,"x_min":90,"x_max":611,"o":"m 396 708 q 479 699 440 708 q 547 665 518 690 q 594 597 576 640 q 611 486 611 554 l 611 0 l 444 0 l 444 486 q 435 547 444 522 q 410 585 425 571 q 374 606 394 600 q 333 611 354 611 q 288 603 307 611 q 257 583 268 594 l 257 0 l 90 0 l 90 694 l 208 694 l 229 653 l 236 653 q 296 691 258 674 q 396 708 333 708 z "},"o":{"ha":667,"x_min":56,"x_max":611,"o":"m 333 618 q 290 606 310 618 q 254 564 269 594 q 231 481 239 533 q 222 347 222 428 q 231 214 222 267 q 254 131 239 161 q 290 88 269 100 q 333 76 310 76 q 377 88 357 76 q 413 131 397 100 q 436 214 428 161 q 444 347 444 267 q 436 481 444 428 q 413 564 428 533 q 377 606 397 594 q 333 618 357 618 m 333 708 q 453 689 401 708 q 540 626 504 669 q 593 515 575 583 q 611 347 611 446 q 593 180 611 249 q 540 68 575 111 q 453 6 504 25 q 333 -14 401 -14 q 214 6 265 -14 q 127 68 163 25 q 74 180 92 111 q 56 347 56 249 q 74 515 56 446 q 127 626 92 583 q 214 689 163 669 q 333 708 265 708 z "},"p":{"ha":681,"x_min":90,"x_max":625,"o":"m 257 111 q 288 92 268 100 q 333 83 307 83 q 383 95 360 83 q 422 137 406 107 q 449 218 439 167 q 458 347 458 269 q 449 476 458 425 q 422 558 439 528 q 383 599 406 588 q 333 611 360 611 q 290 603 307 611 q 257 583 272 594 l 257 111 m 389 708 q 484 689 440 708 q 559 626 528 669 q 608 515 590 583 q 625 347 625 446 q 608 180 625 249 q 558 68 590 111 q 478 6 525 25 q 375 -14 432 -14 q 309 -4 339 -14 q 257 21 279 6 l 257 -278 l 90 -278 l 90 694 l 208 694 l 229 653 l 236 653 q 294 691 258 674 q 389 708 331 708 z "},"q":{"ha":681,"x_min":56,"x_max":590,"o":"m 424 21 q 372 -4 401 6 q 306 -14 342 -14 q 202 6 249 -14 q 123 68 156 25 q 73 180 90 111 q 56 347 56 249 q 74 515 56 446 q 131 626 93 583 q 226 689 168 669 q 361 708 283 708 q 486 698 435 708 q 590 667 538 688 l 590 -278 l 424 -278 l 424 21 m 424 611 l 361 611 q 304 599 329 611 q 260 558 279 588 q 232 476 242 528 q 222 347 222 425 q 232 218 222 269 q 258 137 242 167 q 298 95 275 107 q 347 83 321 83 q 393 92 374 83 q 424 111 413 100 l 424 611 z "},"r":{"ha":500,"x_min":90,"x_max":486,"o":"m 486 694 l 486 576 l 333 576 q 288 568 307 576 q 257 549 268 560 l 257 0 l 90 0 l 90 694 l 208 694 l 229 639 l 236 639 q 296 677 258 660 q 396 694 333 694 l 486 694 z "},"s":{"ha":576,"x_min":42,"x_max":535,"o":"m 208 528 q 233 469 208 492 q 293 428 257 446 q 372 394 329 411 q 450 353 414 378 q 510 291 486 329 q 535 194 535 253 q 517 92 535 132 q 461 28 499 51 q 367 -5 424 4 q 236 -14 311 -14 q 135 -6 183 -14 q 56 14 88 3 l 56 83 l 208 83 q 328 106 288 83 q 368 181 368 128 q 344 240 368 217 q 283 280 319 263 q 205 314 247 297 q 126 355 163 331 q 66 417 90 379 q 42 514 42 454 q 60 608 42 571 q 112 668 78 646 q 197 699 146 690 q 313 708 247 708 q 413 700 365 708 q 493 681 461 692 l 493 611 l 340 611 q 245 590 282 611 q 208 528 208 569 z "},"t":{"ha":507,"x_min":28,"x_max":486,"o":"m 271 576 l 271 222 q 279 153 271 181 q 301 111 288 126 q 330 90 314 96 q 361 83 346 83 l 486 83 l 486 14 q 453 3 474 8 q 410 -6 433 -1 q 364 -12 388 -10 q 319 -14 340 -14 q 236 -4 275 -14 q 168 31 197 6 q 122 103 139 57 q 104 222 104 149 l 104 576 l 28 576 l 28 681 l 104 681 l 104 847 l 271 847 l 271 681 l 458 681 l 458 604 q 378 585 426 593 q 278 576 331 576 l 271 576 z "},"u":{"ha":701,"x_min":90,"x_max":611,"o":"m 306 -14 q 222 -5 261 -14 q 154 29 183 4 q 108 97 125 54 q 90 208 90 140 l 90 694 l 257 694 l 257 208 q 267 148 257 172 q 292 109 276 124 q 327 89 307 94 q 368 83 347 83 q 414 92 394 83 q 444 111 433 100 l 444 694 l 611 694 l 611 0 l 493 0 l 472 42 l 465 42 q 406 3 443 21 q 306 -14 368 -14 z "},"v":{"ha":653,"x_min":21,"x_max":632,"o":"m 222 0 l 21 694 l 188 694 l 324 174 l 329 174 l 465 694 l 632 694 l 431 0 l 222 0 z "},"w":{"ha":903,"x_min":21,"x_max":882,"o":"m 340 0 l 160 0 l 21 694 l 188 694 l 272 208 l 278 208 l 389 556 l 514 556 l 625 208 l 631 208 l 715 694 l 882 694 l 743 0 l 563 0 l 454 340 l 449 340 l 340 0 z "},"x":{"ha":597,"x_min":14,"x_max":583,"o":"m 403 694 l 576 694 l 417 354 l 583 0 l 410 0 l 299 257 l 188 0 l 14 0 l 181 354 l 21 694 l 194 694 l 299 451 l 403 694 z "},"y":{"ha":701,"x_min":90,"x_max":611,"o":"m 444 28 q 306 -14 392 -14 q 222 -5 261 -14 q 154 29 183 4 q 108 97 125 54 q 90 208 90 140 l 90 694 l 257 694 l 257 208 q 267 148 257 172 q 292 109 276 124 q 327 89 307 94 q 368 83 347 83 q 414 92 394 83 q 444 111 433 100 l 444 694 l 611 694 l 611 56 q 538 -212 611 -132 q 313 -292 464 -292 q 212 -283 260 -292 q 132 -264 164 -275 l 132 -194 l 285 -194 q 403 -146 363 -194 q 444 28 444 -97 z "},"z":{"ha":556,"x_min":28,"x_max":528,"o":"m 528 597 l 222 104 l 521 104 l 521 0 l 28 0 l 28 97 l 333 590 l 42 590 l 42 694 l 528 694 l 528 597 z "},"{":{"ha":417,"x_min":28,"x_max":417,"o":"m 299 639 q 289 542 299 582 q 263 475 279 503 q 223 428 246 447 q 174 392 200 408 l 174 386 q 223 350 200 369 q 263 303 246 331 q 289 235 279 275 q 299 139 299 196 l 299 -14 q 308 -87 299 -60 q 334 -130 318 -115 q 372 -149 350 -144 q 417 -153 393 -153 l 417 -250 q 293 -240 346 -250 q 204 -205 240 -231 q 150 -133 168 -179 q 132 -14 132 -87 l 132 167 q 103 288 132 250 q 28 340 75 325 l 28 438 q 103 490 75 453 q 132 611 132 528 l 132 792 q 150 910 132 864 q 204 983 168 957 q 293 1018 240 1008 q 417 1028 346 1028 l 417 931 q 372 924 393 931 q 334 903 350 918 q 308 860 318 888 q 299 792 299 833 l 299 639 z "},"|":{"ha":361,"x_min":97,"x_max":264,"o":"m 264 972 l 264 -278 l 97 -278 l 97 972 l 264 972 z "},"}":{"ha":417,"x_min":0,"x_max":389,"o":"m 118 792 q 108 860 118 833 q 83 903 99 888 q 45 924 67 918 q 0 931 24 931 l 0 1028 q 124 1018 71 1028 q 213 983 176 1008 q 267 910 249 957 q 285 792 285 864 l 285 611 q 313 490 285 528 q 389 438 342 453 l 389 340 q 313 288 342 325 q 285 167 285 250 l 285 -14 q 267 -133 285 -87 q 213 -205 249 -179 q 124 -240 176 -231 q 0 -250 71 -250 l 0 -153 q 45 -149 24 -153 q 83 -130 67 -144 q 108 -87 99 -115 q 118 -14 118 -60 l 118 139 q 128 235 118 196 q 154 303 138 275 q 194 350 171 331 q 243 386 217 369 l 243 392 q 194 428 217 408 q 154 475 171 447 q 128 542 138 503 q 118 639 118 582 l 118 792 z "},"~":{"ha":639,"x_min":42,"x_max":597,"o":"m 486 264 q 471 340 486 311 q 424 368 456 368 q 382 351 400 368 q 342 313 364 333 q 292 274 321 292 q 215 257 263 257 q 132 274 165 257 q 78 325 99 292 q 50 406 58 358 q 42 514 42 454 l 153 514 q 168 438 153 467 q 215 410 183 410 q 257 427 239 410 q 297 465 275 444 q 347 503 318 486 q 424 521 376 521 q 507 503 474 521 q 560 453 540 486 q 589 372 581 419 q 597 264 597 324 l 486 264 z "}," ":{"ha":347,"x_min":0,"x_max":0,"o":""},"¡":{"ha":361,"x_min":83,"x_max":278,"o":"m 250 715 l 278 0 l 83 0 l 111 715 l 250 715 m 97 819 l 97 986 l 264 986 l 264 819 l 97 819 z "},"¢":{"ha":549,"x_min":56,"x_max":528,"o":"m 313 -12 q 119 78 183 -4 q 56 347 56 161 q 72 509 56 442 q 121 619 89 576 q 201 683 153 663 q 313 707 250 704 l 313 792 l 410 792 l 410 703 q 467 693 440 699 q 514 681 494 688 l 514 611 l 410 611 l 410 83 l 528 83 l 528 14 q 475 0 506 7 q 410 -10 444 -7 l 410 -83 l 313 -83 l 313 -12 m 222 347 q 245 170 222 228 q 313 94 268 113 l 313 603 q 247 528 271 586 q 222 347 222 469 z "},"£":{"ha":604,"x_min":49,"x_max":576,"o":"m 125 549 l 125 694 q 143 845 125 788 q 199 934 161 903 q 292 976 236 965 q 424 986 349 986 q 501 978 465 986 q 563 958 536 969 l 563 882 l 424 882 q 371 875 394 882 q 329 848 347 868 q 301 791 311 828 q 292 694 292 754 l 292 549 l 493 549 l 493 438 l 292 438 l 292 325 q 285 244 292 278 q 269 185 279 210 q 247 144 260 160 q 222 117 235 128 l 222 111 l 576 111 l 576 0 l 63 0 l 63 83 q 90 108 78 93 q 109 146 101 122 q 121 204 117 169 q 125 292 125 239 l 125 438 l 49 438 l 49 549 l 125 549 z "},"¤":{"ha":722,"x_min":28,"x_max":694,"o":"m 250 486 q 285 367 250 407 q 361 326 319 326 q 438 367 403 326 q 472 486 472 407 q 438 606 472 565 q 361 646 403 646 q 285 606 319 646 q 250 486 250 565 m 632 486 q 622 413 632 450 q 597 354 613 375 l 694 257 l 611 174 l 514 264 q 453 235 493 249 q 361 222 414 222 q 269 235 308 222 q 208 264 229 249 l 111 174 l 28 257 l 125 354 q 100 413 110 375 q 90 486 90 450 q 100 560 90 522 q 125 618 110 597 l 28 715 l 111 799 l 208 708 q 269 737 229 724 q 361 750 308 750 q 453 737 414 750 q 514 708 493 724 l 611 799 l 694 715 l 597 618 q 622 560 613 597 q 632 486 632 522 z "},"¥":{"ha":667,"x_min":7,"x_max":660,"o":"m 90 563 l 153 563 l 7 972 l 181 972 l 331 507 l 336 507 l 486 972 l 660 972 l 513 563 l 576 563 l 576 451 l 474 451 l 449 382 l 576 382 l 576 271 l 417 271 l 417 0 l 250 0 l 250 271 l 90 271 l 90 382 l 218 382 l 193 451 l 90 451 l 90 563 z "},"¦":{"ha":361,"x_min":97,"x_max":264,"o":"m 264 236 l 264 -278 l 97 -278 l 97 236 l 264 236 m 264 944 l 264 431 l 97 431 l 97 944 l 264 944 z "},"§":{"ha":646,"x_min":56,"x_max":590,"o":"m 424 347 q 413 400 424 376 q 383 443 401 424 q 342 478 365 463 q 292 507 318 494 q 241 448 260 486 q 222 347 222 410 q 262 252 222 290 q 354 188 301 214 q 405 247 386 208 q 424 347 424 285 m 69 764 q 88 851 69 811 q 142 922 106 892 q 233 969 179 951 q 361 986 288 986 q 477 978 424 986 q 563 958 531 969 l 563 889 l 389 889 q 276 853 315 889 q 236 764 236 817 q 263 692 236 721 q 328 642 289 664 q 413 597 367 619 q 499 543 460 575 q 564 465 538 511 q 590 347 590 418 q 551 217 590 268 q 458 139 511 165 q 508 105 485 124 q 550 61 532 86 q 579 4 568 36 q 590 -69 590 -28 q 572 -157 590 -117 q 515 -227 553 -197 q 420 -274 478 -257 q 285 -292 363 -292 q 169 -283 222 -292 q 83 -264 115 -275 l 83 -194 l 257 -194 q 382 -158 340 -194 q 424 -69 424 -122 q 397 2 424 -26 q 328 53 369 31 q 240 97 288 75 q 151 151 192 119 q 83 230 110 183 q 56 347 56 276 q 96 478 56 425 q 194 563 136 531 q 145 596 168 578 q 106 638 122 614 q 79 692 89 661 q 69 764 69 722 z "},"¨":{"ha":431,"x_min":28,"x_max":403,"o":"m 181 958 l 181 792 l 28 792 l 28 958 l 181 958 m 403 958 l 403 792 l 250 792 l 250 958 l 403 958 z "},"©":{"ha":1167,"x_min":63,"x_max":1104,"o":"m 340 486 q 358 639 340 579 q 408 733 375 699 q 490 779 442 767 q 597 792 538 792 q 697 783 656 792 q 771 764 739 775 l 771 694 l 625 694 q 572 688 596 694 q 531 658 549 681 q 503 595 513 636 q 493 486 493 554 q 503 377 493 418 q 531 314 513 336 q 572 285 549 292 q 625 278 596 278 l 785 278 l 785 208 q 704 189 753 197 q 597 181 656 181 q 490 193 538 181 q 408 240 442 206 q 358 333 375 274 q 340 486 340 392 m 965 486 q 938 663 965 585 q 860 794 910 740 q 740 875 810 847 q 583 903 669 903 q 427 875 497 903 q 307 794 357 847 q 229 663 257 740 q 201 486 201 585 q 229 310 201 388 q 307 178 257 232 q 427 97 357 125 q 583 69 497 69 q 740 97 669 69 q 860 178 810 125 q 938 310 910 232 q 965 486 965 388 m 1104 486 q 1067 276 1104 371 q 961 115 1029 182 q 797 10 893 47 q 583 -28 700 -28 q 370 10 467 -28 q 206 115 274 47 q 100 276 138 182 q 63 486 63 371 q 100 695 63 600 q 206 858 138 790 q 370 963 274 925 q 583 1000 467 1000 q 797 963 700 1000 q 961 858 893 925 q 1067 695 1029 790 q 1104 486 1104 600 z "},"ª":{"ha":424,"x_min":42,"x_max":382,"o":"m 264 736 l 215 736 q 160 681 160 736 q 174 646 160 660 q 215 632 189 632 q 235 633 226 632 q 250 635 243 633 q 264 639 257 636 l 264 736 m 188 819 q 214 818 200 819 q 239 815 228 817 q 264 813 253 814 l 264 833 q 188 896 264 896 l 76 896 l 76 963 q 131 974 97 969 q 201 979 165 979 q 279 973 246 979 q 335 951 313 967 q 370 906 358 935 q 382 833 382 878 l 382 556 l 285 556 l 271 583 q 228 558 250 568 q 174 549 206 549 q 124 556 147 549 q 82 578 100 563 q 53 619 64 593 q 42 681 42 644 q 83 789 42 758 q 188 819 125 819 z "},"«":{"ha":708,"x_min":28,"x_max":667,"o":"m 208 343 l 389 104 l 271 28 l 28 347 l 271 667 l 389 590 l 208 351 l 208 343 m 486 343 l 667 104 l 549 28 l 306 347 l 549 667 l 667 590 l 486 351 l 486 343 z "},"¬":{"ha":618,"x_min":42,"x_max":576,"o":"m 576 333 l 458 333 l 438 465 l 42 465 l 42 576 l 576 576 l 576 333 z "},"­":{"ha":500,"x_min":42,"x_max":458,"o":"m 42 472 l 458 472 l 458 361 l 42 361 l 42 472 z "},"®":{"ha":1167,"x_min":63,"x_max":1104,"o":"m 521 194 l 368 194 l 368 764 q 450 783 404 775 q 569 792 496 792 q 758 747 696 792 q 819 597 819 701 q 809 523 819 553 q 783 474 799 493 q 750 443 768 454 q 715 424 732 432 l 833 194 l 674 194 l 576 396 l 521 396 l 521 194 m 569 493 q 639 516 611 493 q 667 597 667 539 q 639 672 667 650 q 569 694 611 694 l 521 694 l 521 493 l 569 493 m 965 486 q 938 663 965 585 q 860 794 910 740 q 740 875 810 847 q 583 903 669 903 q 427 875 497 903 q 307 794 357 847 q 229 663 257 740 q 201 486 201 585 q 229 310 201 388 q 307 178 257 232 q 427 97 357 125 q 583 69 497 69 q 740 97 669 69 q 860 178 810 125 q 938 310 910 232 q 965 486 965 388 m 1104 486 q 1067 276 1104 371 q 961 115 1029 182 q 797 10 893 47 q 583 -28 700 -28 q 370 10 467 -28 q 206 115 274 47 q 100 276 138 182 q 63 486 63 371 q 100 695 63 600 q 206 858 138 790 q 370 963 274 925 q 583 1000 467 1000 q 797 963 700 1000 q 961 858 893 925 q 1067 695 1029 790 q 1104 486 1104 600 z "},"¯":{"ha":389,"x_min":28,"x_max":361,"o":"m 28 972 l 361 972 l 361 875 l 28 875 l 28 972 z "},"°":{"ha":569,"x_min":56,"x_max":514,"o":"m 285 889 q 227 858 253 889 q 201 764 201 826 q 227 670 201 701 q 285 639 253 639 q 342 670 317 639 q 368 764 368 701 q 342 858 368 826 q 285 889 317 889 m 285 986 q 454 927 394 986 q 514 764 514 868 q 454 601 514 660 q 285 542 394 542 q 115 601 175 542 q 56 764 56 660 q 115 927 56 868 q 285 986 175 986 z "},"±":{"ha":625,"x_min":42,"x_max":583,"o":"m 42 174 l 583 174 l 583 63 l 42 63 l 42 174 m 375 750 l 375 528 l 583 528 l 583 417 l 375 417 l 375 208 l 250 208 l 250 417 l 42 417 l 42 528 l 250 528 l 250 750 l 375 750 z "},"²":{"ha":375,"x_min":42,"x_max":333,"o":"m 174 979 q 295 944 257 979 q 333 840 333 908 q 295 747 333 793 q 174 639 257 701 l 333 639 l 333 556 l 42 556 l 42 646 q 110 702 78 675 q 165 753 142 729 q 202 800 189 778 q 215 840 215 822 q 200 878 215 861 q 153 896 185 896 l 56 896 l 56 964 q 109 975 76 971 q 174 979 142 979 z "},"³":{"ha":375,"x_min":42,"x_max":333,"o":"m 160 979 q 276 954 233 979 q 319 861 319 929 q 299 804 319 825 q 257 778 278 783 q 308 747 283 772 q 333 674 333 721 q 288 574 333 600 q 153 549 242 549 q 92 553 121 549 q 42 564 63 557 l 42 632 l 153 632 q 200 646 185 632 q 215 681 215 660 q 201 715 215 701 q 160 729 186 729 l 90 729 l 90 813 l 153 813 q 190 826 179 813 q 201 854 201 839 q 189 883 201 869 q 144 896 176 896 l 42 896 l 42 964 q 92 975 61 971 q 160 979 124 979 z "},"´":{"ha":264,"x_min":28,"x_max":236,"o":"m 28 778 l 76 958 l 236 958 l 132 778 l 28 778 z "},"µ":{"ha":701,"x_min":90,"x_max":611,"o":"m 444 694 l 611 694 l 611 0 l 493 0 l 472 42 l 465 42 q 410 1 439 15 q 340 -14 382 -14 q 288 -2 308 -14 q 257 21 268 10 l 257 -278 l 90 -278 l 90 694 l 257 694 l 257 236 q 292 123 257 163 q 368 83 326 83 q 414 92 394 83 q 444 111 433 100 l 444 694 z "},"¶":{"ha":785,"x_min":42,"x_max":757,"o":"m 674 -278 l 521 -278 l 521 861 l 465 861 l 465 -278 l 313 -278 l 313 458 q 112 526 182 458 q 42 715 42 594 q 60 811 42 765 q 112 893 78 857 q 197 951 146 929 q 313 972 247 972 l 757 972 l 757 861 l 674 861 l 674 -278 z "},"·":{"ha":389,"x_min":111,"x_max":278,"o":"m 278 569 l 278 403 l 111 403 l 111 569 l 278 569 z "},"¸":{"ha":299,"x_min":28,"x_max":271,"o":"m 146 -42 q 240 -69 208 -42 q 271 -139 271 -97 q 235 -208 271 -181 q 132 -236 200 -236 q 86 -233 106 -236 q 54 -226 67 -231 q 28 -215 39 -221 l 28 -168 l 118 -168 q 158 -159 150 -168 q 167 -139 167 -150 q 159 -119 167 -128 q 125 -110 151 -110 l 49 -110 l 49 21 l 125 21 l 125 -42 l 146 -42 z "},"¹":{"ha":278,"x_min":42,"x_max":236,"o":"m 236 972 l 236 556 l 118 556 l 118 889 l 42 889 l 42 956 q 101 967 63 963 q 181 972 139 972 l 236 972 z "},"º":{"ha":444,"x_min":42,"x_max":403,"o":"m 222 632 q 267 661 249 632 q 285 764 285 690 q 267 867 285 838 q 222 896 249 896 q 178 867 196 896 q 160 764 160 838 q 178 661 160 690 q 222 632 196 632 m 222 979 q 352 926 301 979 q 403 764 403 874 q 352 601 403 654 q 222 549 301 549 q 92 601 143 549 q 42 764 42 654 q 92 926 42 874 q 222 979 143 979 z "},"»":{"ha":708,"x_min":42,"x_max":681,"o":"m 500 351 l 319 590 l 438 667 l 681 347 l 438 28 l 319 104 l 500 343 l 500 351 m 222 351 l 42 590 l 160 667 l 403 347 l 160 28 l 42 104 l 222 343 l 222 351 z "},"¼":{"ha":819,"x_min":56,"x_max":750,"o":"m 590 160 l 590 278 l 500 160 l 590 160 m 396 160 l 590 417 l 708 417 l 708 160 l 743 160 l 743 76 l 708 76 l 708 0 l 590 0 l 590 76 l 396 76 l 396 160 m 750 972 l 208 0 l 56 0 l 597 972 l 750 972 m 264 972 l 264 556 l 146 556 l 146 889 l 69 889 l 69 956 q 128 967 90 963 q 208 972 167 972 l 264 972 z "},"½":{"ha":861,"x_min":69,"x_max":778,"o":"m 764 972 l 222 0 l 69 0 l 611 972 l 764 972 m 285 972 l 285 556 l 167 556 l 167 889 l 90 889 l 90 956 q 149 967 111 963 q 229 972 188 972 l 285 972 m 618 424 q 740 388 701 424 q 778 285 778 353 q 740 192 778 238 q 618 83 701 146 l 778 83 l 778 0 l 486 0 l 486 90 q 554 147 522 119 q 610 198 586 174 q 647 244 633 222 q 660 285 660 267 q 644 323 660 306 q 597 340 629 340 l 500 340 l 500 408 q 553 419 521 415 q 618 424 586 424 z "},"¾":{"ha":840,"x_min":56,"x_max":771,"o":"m 611 160 l 611 278 l 521 160 l 611 160 m 417 160 l 611 417 l 729 417 l 729 160 l 764 160 l 764 76 l 729 76 l 729 0 l 611 0 l 611 76 l 417 76 l 417 160 m 771 972 l 229 0 l 76 0 l 618 972 l 771 972 m 174 979 q 290 954 247 979 q 333 861 333 929 q 313 804 333 825 q 271 778 292 783 q 322 747 297 772 q 347 674 347 721 q 301 574 347 600 q 167 549 256 549 q 106 553 135 549 q 56 564 76 557 l 56 632 l 167 632 q 214 646 199 632 q 229 681 229 660 q 215 715 229 701 q 174 729 200 729 l 104 729 l 104 813 l 167 813 q 204 826 193 813 q 215 854 215 839 q 203 883 215 869 q 158 896 190 896 l 56 896 l 56 964 q 106 975 75 971 q 174 979 138 979 z "},"¿":{"ha":549,"x_min":42,"x_max":535,"o":"m 403 715 q 388 606 403 651 q 352 524 374 560 q 306 459 331 488 q 259 400 281 431 q 223 334 238 369 q 208 250 208 299 q 247 131 208 171 q 354 90 286 90 l 535 90 l 535 14 q 444 -6 503 3 q 313 -14 386 -14 q 112 55 182 -14 q 42 250 42 124 q 57 352 42 308 q 96 431 72 396 q 147 495 119 465 q 200 558 175 525 q 242 628 225 590 q 264 715 260 665 l 403 715 m 250 819 l 250 986 l 417 986 l 417 819 l 250 819 z "},"À":{"ha":750,"x_min":21,"x_max":729,"o":"m 333 1042 l 229 1222 l 389 1222 l 438 1042 l 333 1042 m 256 243 l 194 0 l 21 0 l 271 972 l 479 972 l 729 0 l 556 0 l 494 243 l 256 243 m 378 750 l 372 750 l 278 354 l 471 354 l 378 750 z "},"Á":{"ha":750,"x_min":21,"x_max":729,"o":"m 319 1042 l 368 1222 l 528 1222 l 424 1042 l 319 1042 m 256 243 l 194 0 l 21 0 l 271 972 l 479 972 l 729 0 l 556 0 l 494 243 l 256 243 m 378 750 l 372 750 l 278 354 l 471 354 l 378 750 z "},"Â":{"ha":750,"x_min":21,"x_max":729,"o":"m 192 1042 l 303 1222 l 449 1222 l 560 1042 l 453 1042 l 375 1139 l 297 1042 l 192 1042 m 256 243 l 194 0 l 21 0 l 271 972 l 479 972 l 729 0 l 556 0 l 494 243 l 256 243 m 378 750 l 372 750 l 278 354 l 471 354 l 378 750 z "},"Ã":{"ha":750,"x_min":21,"x_max":729,"o":"m 458 1049 q 424 1104 458 1104 q 399 1093 411 1104 q 372 1069 386 1082 q 340 1046 357 1057 q 299 1035 322 1035 q 256 1043 275 1035 q 223 1071 236 1051 q 202 1122 210 1090 q 194 1201 194 1154 l 278 1201 q 313 1146 278 1146 q 338 1157 325 1146 q 365 1181 350 1168 q 397 1204 379 1193 q 438 1215 414 1215 q 513 1178 485 1215 q 542 1049 542 1142 l 458 1049 m 256 243 l 194 0 l 21 0 l 271 972 l 479 972 l 729 0 l 556 0 l 494 243 l 256 243 m 378 750 l 372 750 l 278 354 l 471 354 l 378 750 z "},"Ä":{"ha":750,"x_min":21,"x_max":729,"o":"m 340 1208 l 340 1042 l 188 1042 l 188 1208 l 340 1208 m 563 1208 l 563 1042 l 410 1042 l 410 1208 l 563 1208 m 256 243 l 194 0 l 21 0 l 271 972 l 479 972 l 729 0 l 556 0 l 494 243 l 256 243 m 378 750 l 372 750 l 278 354 l 471 354 l 378 750 z "},"Å":{"ha":750,"x_min":21,"x_max":729,"o":"m 417 1125 q 403 1156 417 1146 q 375 1167 390 1167 q 347 1156 360 1167 q 333 1125 333 1146 q 347 1094 333 1104 q 375 1083 360 1083 q 403 1094 390 1083 q 417 1125 417 1104 m 507 1125 q 470 1040 507 1072 q 375 1007 433 1007 q 280 1040 317 1007 q 243 1125 243 1072 q 280 1210 243 1178 q 375 1243 317 1243 q 470 1210 433 1243 q 507 1125 507 1178 m 256 243 l 194 0 l 21 0 l 271 972 l 479 972 l 729 0 l 556 0 l 494 243 l 256 243 m 378 750 l 372 750 l 278 354 l 471 354 l 378 750 z "},"Æ":{"ha":1049,"x_min":0,"x_max":993,"o":"m 333 972 l 993 972 l 993 861 l 653 861 l 653 563 l 951 563 l 951 451 l 653 451 l 653 111 l 993 111 l 993 0 l 486 0 l 486 243 l 250 243 l 165 0 l 0 0 l 333 972 m 288 354 l 486 354 l 486 861 l 460 861 l 288 354 z "},"Ç":{"ha":632,"x_min":63,"x_max":611,"o":"m 382 -14 l 382 -42 l 403 -42 q 497 -69 465 -42 q 528 -139 528 -97 q 492 -208 528 -181 q 389 -236 457 -236 q 343 -233 363 -236 q 311 -226 324 -231 q 285 -215 296 -221 l 285 -168 l 375 -168 q 415 -159 407 -168 q 424 -139 424 -150 q 416 -119 424 -128 q 382 -110 408 -110 l 306 -110 l 306 -6 q 201 38 246 6 q 125 128 156 69 q 78 274 94 186 q 63 486 63 363 q 83 728 63 632 q 144 882 104 825 q 242 963 183 939 q 375 986 300 986 q 507 978 449 986 q 597 958 565 969 l 597 882 l 431 882 q 349 864 386 882 q 285 801 313 846 q 244 680 258 757 q 229 486 229 603 q 244 292 229 369 q 288 171 260 215 q 355 108 315 126 q 444 90 394 90 l 611 90 l 611 14 q 524 -6 579 3 q 396 -14 469 -14 l 382 -14 z "},"È":{"ha":660,"x_min":97,"x_max":604,"o":"m 264 111 l 604 111 l 604 0 l 97 0 l 97 972 l 604 972 l 604 861 l 264 861 l 264 563 l 563 563 l 563 451 l 264 451 l 264 111 m 319 1042 l 215 1222 l 375 1222 l 424 1042 l 319 1042 z "},"É":{"ha":660,"x_min":97,"x_max":604,"o":"m 264 111 l 604 111 l 604 0 l 97 0 l 97 972 l 604 972 l 604 861 l 264 861 l 264 563 l 563 563 l 563 451 l 264 451 l 264 111 m 299 1042 l 347 1222 l 507 1222 l 403 1042 l 299 1042 z "},"Ê":{"ha":660,"x_min":97,"x_max":604,"o":"m 264 111 l 604 111 l 604 0 l 97 0 l 97 972 l 604 972 l 604 861 l 264 861 l 264 563 l 563 563 l 563 451 l 264 451 l 264 111 m 167 1042 l 278 1222 l 424 1222 l 535 1042 l 428 1042 l 350 1139 l 272 1042 l 167 1042 z "},"Ë":{"ha":660,"x_min":97,"x_max":604,"o":"m 264 111 l 604 111 l 604 0 l 97 0 l 97 972 l 604 972 l 604 861 l 264 861 l 264 563 l 563 563 l 563 451 l 264 451 l 264 111 m 313 1222 l 313 1056 l 160 1056 l 160 1222 l 313 1222 m 535 1222 l 535 1056 l 382 1056 l 382 1222 l 535 1222 z "},"Ì":{"ha":354,"x_min":21,"x_max":257,"o":"m 257 972 l 257 0 l 90 0 l 90 972 l 257 972 m 125 1042 l 21 1222 l 181 1222 l 229 1042 l 125 1042 z "},"Í":{"ha":354,"x_min":97,"x_max":333,"o":"m 264 972 l 264 0 l 97 0 l 97 972 l 264 972 m 125 1042 l 174 1222 l 333 1222 l 229 1042 l 125 1042 z "},"Î":{"ha":326,"x_min":-21,"x_max":347,"o":"m 243 972 l 243 0 l 76 0 l 76 972 l 243 972 m -21 1042 l 90 1222 l 236 1222 l 347 1042 l 240 1042 l 163 1139 l 85 1042 l -21 1042 z "},"Ï":{"ha":347,"x_min":-14,"x_max":361,"o":"m 257 972 l 257 0 l 90 0 l 90 972 l 257 972 m 139 1222 l 139 1056 l -14 1056 l -14 1222 l 139 1222 m 361 1222 l 361 1056 l 208 1056 l 208 1222 l 361 1222 z "},"Ð":{"ha":778,"x_min":14,"x_max":715,"o":"m 14 549 l 118 549 l 118 958 q 226 980 171 974 q 361 986 282 986 q 513 960 447 986 q 624 876 579 935 q 692 722 669 818 q 715 486 715 626 q 692 250 715 346 q 624 96 669 154 q 513 12 579 38 q 361 -14 447 -14 q 226 -8 282 -14 q 118 14 171 -1 l 118 438 l 14 438 l 14 549 m 549 486 q 535 680 549 603 q 497 801 521 757 q 438 864 472 846 q 361 882 403 882 l 285 882 l 285 549 l 431 549 l 431 438 l 285 438 l 285 90 l 361 90 q 438 108 403 90 q 497 171 472 126 q 535 292 521 215 q 549 486 549 369 z "},"Ñ":{"ha":792,"x_min":97,"x_max":694,"o":"m 264 639 l 257 639 l 257 0 l 97 0 l 97 972 l 264 972 l 528 333 l 535 333 l 535 972 l 694 972 l 694 0 l 528 0 l 264 639 m 472 1049 q 438 1104 472 1104 q 413 1093 425 1104 q 385 1069 400 1082 q 353 1046 371 1057 q 313 1035 336 1035 q 269 1043 289 1035 q 237 1071 250 1051 q 216 1122 224 1090 q 208 1201 208 1154 l 292 1201 q 326 1146 292 1146 q 351 1157 339 1146 q 378 1181 364 1168 q 410 1204 393 1193 q 451 1215 428 1215 q 527 1178 499 1215 q 556 1049 556 1142 l 472 1049 z "},"Ò":{"ha":764,"x_min":63,"x_max":701,"o":"m 382 83 q 438 101 411 83 q 487 165 465 119 q 522 289 508 211 q 535 486 535 367 q 522 683 535 606 q 487 807 508 761 q 438 871 465 853 q 382 889 411 889 q 326 871 353 889 q 277 807 299 853 q 242 683 256 761 q 229 486 229 606 q 242 289 229 367 q 277 165 256 211 q 326 101 299 119 q 382 83 353 83 m 382 986 q 513 960 454 986 q 614 876 572 935 q 678 722 656 818 q 701 486 701 626 q 678 250 701 346 q 614 96 656 154 q 513 12 572 38 q 382 -14 454 -14 q 249 12 308 -14 q 149 96 190 38 q 85 250 107 154 q 63 486 63 346 q 85 722 63 626 q 149 876 107 818 q 249 960 190 935 q 382 986 308 986 m 333 1056 l 229 1236 l 389 1236 l 438 1056 l 333 1056 z "},"Ó":{"ha":764,"x_min":63,"x_max":701,"o":"m 382 83 q 438 101 411 83 q 487 165 465 119 q 522 289 508 211 q 535 486 535 367 q 522 683 535 606 q 487 807 508 761 q 438 871 465 853 q 382 889 411 889 q 326 871 353 889 q 277 807 299 853 q 242 683 256 761 q 229 486 229 606 q 242 289 229 367 q 277 165 256 211 q 326 101 299 119 q 382 83 353 83 m 382 986 q 513 960 454 986 q 614 876 572 935 q 678 722 656 818 q 701 486 701 626 q 678 250 701 346 q 614 96 656 154 q 513 12 572 38 q 382 -14 454 -14 q 249 12 308 -14 q 149 96 190 38 q 85 250 107 154 q 63 486 63 346 q 85 722 63 626 q 149 876 107 818 q 249 960 190 935 q 382 986 308 986 m 319 1056 l 368 1236 l 528 1236 l 424 1056 l 319 1056 z "},"Ô":{"ha":764,"x_min":63,"x_max":701,"o":"m 382 83 q 438 101 411 83 q 487 165 465 119 q 522 289 508 211 q 535 486 535 367 q 522 683 535 606 q 487 807 508 761 q 438 871 465 853 q 382 889 411 889 q 326 871 353 889 q 277 807 299 853 q 242 683 256 761 q 229 486 229 606 q 242 289 229 367 q 277 165 256 211 q 326 101 299 119 q 382 83 353 83 m 382 986 q 513 960 454 986 q 614 876 572 935 q 678 722 656 818 q 701 486 701 626 q 678 250 701 346 q 614 96 656 154 q 513 12 572 38 q 382 -14 454 -14 q 249 12 308 -14 q 149 96 190 38 q 85 250 107 154 q 63 486 63 346 q 85 722 63 626 q 149 876 107 818 q 249 960 190 935 q 382 986 308 986 m 201 1056 l 313 1236 l 458 1236 l 569 1056 l 463 1056 l 385 1153 l 307 1056 l 201 1056 z "},"Õ":{"ha":764,"x_min":63,"x_max":701,"o":"m 382 83 q 438 101 411 83 q 487 165 465 119 q 522 289 508 211 q 535 486 535 367 q 522 683 535 606 q 487 807 508 761 q 438 871 465 853 q 382 889 411 889 q 326 871 353 889 q 277 807 299 853 q 242 683 256 761 q 229 486 229 606 q 242 289 229 367 q 277 165 256 211 q 326 101 299 119 q 382 83 353 83 m 382 986 q 513 960 454 986 q 614 876 572 935 q 678 722 656 818 q 701 486 701 626 q 678 250 701 346 q 614 96 656 154 q 513 12 572 38 q 382 -14 454 -14 q 249 12 308 -14 q 149 96 190 38 q 85 250 107 154 q 63 486 63 346 q 85 722 63 626 q 149 876 107 818 q 249 960 190 935 q 382 986 308 986 m 465 1063 q 431 1118 465 1118 q 406 1107 418 1118 q 378 1083 393 1096 q 347 1060 364 1071 q 306 1049 329 1049 q 263 1057 282 1049 q 230 1085 243 1065 q 209 1136 217 1104 q 201 1215 201 1168 l 285 1215 q 319 1160 285 1160 q 344 1171 332 1160 q 372 1194 357 1182 q 403 1218 386 1207 q 444 1229 421 1229 q 520 1192 492 1229 q 549 1063 549 1156 l 465 1063 z "},"Ö":{"ha":764,"x_min":63,"x_max":701,"o":"m 382 83 q 438 101 411 83 q 487 165 465 119 q 522 289 508 211 q 535 486 535 367 q 522 683 535 606 q 487 807 508 761 q 438 871 465 853 q 382 889 411 889 q 326 871 353 889 q 277 807 299 853 q 242 683 256 761 q 229 486 229 606 q 242 289 229 367 q 277 165 256 211 q 326 101 299 119 q 382 83 353 83 m 382 986 q 513 960 454 986 q 614 876 572 935 q 678 722 656 818 q 701 486 701 626 q 678 250 701 346 q 614 96 656 154 q 513 12 572 38 q 382 -14 454 -14 q 249 12 308 -14 q 149 96 190 38 q 85 250 107 154 q 63 486 63 346 q 85 722 63 626 q 149 876 107 818 q 249 960 190 935 q 382 986 308 986 m 347 1222 l 347 1056 l 194 1056 l 194 1222 l 347 1222 m 569 1222 l 569 1056 l 417 1056 l 417 1222 l 569 1222 z "},"×":{"ha":583,"x_min":56,"x_max":528,"o":"m 528 306 l 444 222 l 292 375 l 139 222 l 56 306 l 208 458 l 56 611 l 139 694 l 292 542 l 444 694 l 528 611 l 375 458 l 528 306 z "},"Ø":{"ha":764,"x_min":35,"x_max":729,"o":"m 108 174 q 74 308 86 232 q 63 486 63 385 q 85 722 63 626 q 149 876 107 818 q 249 960 190 935 q 382 986 308 986 q 510 963 453 986 q 608 885 567 939 l 660 958 l 729 903 l 656 799 q 690 664 678 740 q 701 486 701 588 q 678 250 701 346 q 614 96 656 154 q 513 12 572 38 q 382 -14 454 -14 q 254 10 311 -14 q 156 86 197 33 l 104 14 l 35 69 l 108 174 m 229 486 q 231 415 229 449 q 235 353 232 382 l 508 743 q 453 858 488 826 q 382 889 418 889 q 326 871 353 889 q 277 807 299 853 q 242 683 256 761 q 229 486 229 606 m 382 83 q 438 101 411 83 q 487 165 465 119 q 522 289 508 211 q 535 486 535 367 q 533 556 535 524 q 529 618 532 589 l 254 228 q 310 115 276 146 q 382 83 344 83 z "},"Ù":{"ha":764,"x_min":83,"x_max":681,"o":"m 382 83 q 435 95 411 83 q 476 135 458 107 q 504 212 494 164 q 514 333 514 260 l 514 972 l 681 972 l 681 333 q 607 66 681 146 q 382 -14 533 -14 q 157 66 231 -14 q 83 333 83 146 l 83 972 l 250 972 l 250 333 q 260 212 250 260 q 288 135 269 164 q 329 95 306 107 q 382 83 353 83 m 340 1028 l 236 1208 l 396 1208 l 444 1028 l 340 1028 z "},"Ú":{"ha":764,"x_min":83,"x_max":681,"o":"m 382 83 q 435 95 411 83 q 476 135 458 107 q 504 212 494 164 q 514 333 514 260 l 514 972 l 681 972 l 681 333 q 607 66 681 146 q 382 -14 533 -14 q 157 66 231 -14 q 83 333 83 146 l 83 972 l 250 972 l 250 333 q 260 212 250 260 q 288 135 269 164 q 329 95 306 107 q 382 83 353 83 m 319 1028 l 368 1208 l 528 1208 l 424 1028 l 319 1028 z "},"Û":{"ha":764,"x_min":83,"x_max":681,"o":"m 382 83 q 435 95 411 83 q 476 135 458 107 q 504 212 494 164 q 514 333 514 260 l 514 972 l 681 972 l 681 333 q 607 66 681 146 q 382 -14 533 -14 q 157 66 231 -14 q 83 333 83 146 l 83 972 l 250 972 l 250 333 q 260 212 250 260 q 288 135 269 164 q 329 95 306 107 q 382 83 353 83 m 199 1028 l 310 1208 l 456 1208 l 567 1028 l 460 1028 l 382 1125 l 304 1028 l 199 1028 z "},"Ü":{"ha":764,"x_min":83,"x_max":681,"o":"m 382 83 q 435 95 411 83 q 476 135 458 107 q 504 212 494 164 q 514 333 514 260 l 514 972 l 681 972 l 681 333 q 607 66 681 146 q 382 -14 533 -14 q 157 66 231 -14 q 83 333 83 146 l 83 972 l 250 972 l 250 333 q 260 212 250 260 q 288 135 269 164 q 329 95 306 107 q 382 83 353 83 m 347 1194 l 347 1028 l 194 1028 l 194 1194 l 347 1194 m 569 1194 l 569 1028 l 417 1028 l 417 1194 l 569 1194 z "},"Ý":{"ha":667,"x_min":7,"x_max":660,"o":"m 331 507 l 336 507 l 486 972 l 660 972 l 417 292 l 417 0 l 250 0 l 250 292 l 7 972 l 181 972 l 331 507 m 276 1028 l 325 1208 l 485 1208 l 381 1028 l 276 1028 z "},"Þ":{"ha":729,"x_min":97,"x_max":681,"o":"m 264 882 q 582 770 483 871 q 681 486 681 669 q 582 202 681 303 q 264 90 483 101 l 264 -14 l 97 -14 l 97 986 l 264 986 l 264 882 m 264 194 q 447 275 379 200 q 514 486 514 350 q 447 697 514 622 q 264 778 379 772 l 264 194 z "},"ß":{"ha":764,"x_min":90,"x_max":729,"o":"m 500 507 q 517 463 500 483 q 559 424 533 443 q 615 383 585 404 q 670 335 644 363 q 713 272 696 308 q 729 188 729 236 q 712 89 729 128 q 661 27 694 50 q 580 -5 628 4 q 472 -14 532 -14 q 399 -6 440 -14 q 326 14 358 3 l 326 83 l 444 83 q 527 107 492 83 q 563 188 563 131 q 546 247 563 222 q 503 292 529 271 q 448 332 478 313 q 392 375 418 351 q 350 430 367 399 q 333 507 333 461 q 356 585 333 554 q 406 643 379 617 q 456 697 433 669 q 479 764 479 725 q 469 817 479 794 q 445 854 460 840 q 412 875 431 868 q 375 882 393 882 q 292 837 328 882 q 257 688 257 792 l 257 0 l 90 0 l 90 688 q 375 986 90 986 q 491 969 440 986 q 576 922 542 951 q 628 851 610 892 q 646 764 646 811 q 623 676 646 710 q 573 617 600 643 q 523 567 546 592 q 500 507 500 543 z "},"à":{"ha":660,"x_min":56,"x_max":569,"o":"m 403 333 l 326 333 q 290 328 308 333 q 256 308 271 322 q 232 269 242 293 q 222 208 222 244 q 232 148 222 172 q 256 109 242 124 q 290 89 271 94 q 326 83 308 83 q 372 92 353 83 q 403 111 392 100 l 403 333 m 271 -14 q 188 -5 226 -14 q 119 29 149 4 q 73 97 90 54 q 56 208 56 140 q 73 319 56 276 q 121 388 90 363 q 193 422 151 413 q 285 431 235 431 q 347 426 317 431 q 403 417 376 422 l 403 472 q 364 583 403 556 q 257 611 325 611 l 118 611 l 118 681 q 197 700 150 692 q 285 708 243 708 q 408 699 356 708 q 497 663 461 689 q 551 591 533 638 q 569 472 569 544 l 569 0 l 451 0 l 431 42 l 424 42 q 365 3 401 21 q 271 -14 329 -14 m 300 778 l 196 958 l 356 958 l 404 778 l 300 778 z "},"á":{"ha":660,"x_min":56,"x_max":569,"o":"m 403 333 l 326 333 q 290 328 308 333 q 256 308 271 322 q 232 269 242 293 q 222 208 222 244 q 232 148 222 172 q 256 109 242 124 q 290 89 271 94 q 326 83 308 83 q 372 92 353 83 q 403 111 392 100 l 403 333 m 271 -14 q 188 -5 226 -14 q 119 29 149 4 q 73 97 90 54 q 56 208 56 140 q 73 319 56 276 q 121 388 90 363 q 193 422 151 413 q 285 431 235 431 q 347 426 317 431 q 403 417 376 422 l 403 472 q 364 583 403 556 q 257 611 325 611 l 118 611 l 118 681 q 197 700 150 692 q 285 708 243 708 q 408 699 356 708 q 497 663 461 689 q 551 591 533 638 q 569 472 569 544 l 569 0 l 451 0 l 431 42 l 424 42 q 365 3 401 21 q 271 -14 329 -14 m 271 778 l 319 958 l 479 958 l 375 778 l 271 778 z "},"â":{"ha":660,"x_min":56,"x_max":569,"o":"m 403 333 l 326 333 q 290 328 308 333 q 256 308 271 322 q 232 269 242 293 q 222 208 222 244 q 232 148 222 172 q 256 109 242 124 q 290 89 271 94 q 326 83 308 83 q 372 92 353 83 q 403 111 392 100 l 403 333 m 271 -14 q 188 -5 226 -14 q 119 29 149 4 q 73 97 90 54 q 56 208 56 140 q 73 319 56 276 q 121 388 90 363 q 193 422 151 413 q 285 431 235 431 q 347 426 317 431 q 403 417 376 422 l 403 472 q 364 583 403 556 q 257 611 325 611 l 118 611 l 118 681 q 197 700 150 692 q 285 708 243 708 q 408 699 356 708 q 497 663 461 689 q 551 591 533 638 q 569 472 569 544 l 569 0 l 451 0 l 431 42 l 424 42 q 365 3 401 21 q 271 -14 329 -14 m 153 764 l 264 944 l 410 944 l 521 764 l 414 764 l 336 861 l 258 764 l 153 764 z "},"ã":{"ha":660,"x_min":56,"x_max":569,"o":"m 403 333 l 326 333 q 290 328 308 333 q 256 308 271 322 q 232 269 242 293 q 222 208 222 244 q 232 148 222 172 q 256 109 242 124 q 290 89 271 94 q 326 83 308 83 q 372 92 353 83 q 403 111 392 100 l 403 333 m 271 -14 q 188 -5 226 -14 q 119 29 149 4 q 73 97 90 54 q 56 208 56 140 q 73 319 56 276 q 121 388 90 363 q 193 422 151 413 q 285 431 235 431 q 347 426 317 431 q 403 417 376 422 l 403 472 q 364 583 403 556 q 257 611 325 611 l 118 611 l 118 681 q 197 700 150 692 q 285 708 243 708 q 408 699 356 708 q 497 663 461 689 q 551 591 533 638 q 569 472 569 544 l 569 0 l 451 0 l 431 42 l 424 42 q 365 3 401 21 q 271 -14 329 -14 m 424 792 q 389 847 424 847 q 364 836 376 847 q 337 813 351 825 q 305 789 322 800 q 264 778 288 778 q 221 786 240 778 q 188 814 201 794 q 167 865 175 833 q 160 944 160 897 l 243 944 q 278 889 243 889 q 303 900 290 889 q 330 924 315 911 q 362 947 344 936 q 403 958 379 958 q 478 922 450 958 q 507 792 507 885 l 424 792 z "},"ä":{"ha":660,"x_min":56,"x_max":569,"o":"m 403 333 l 326 333 q 290 328 308 333 q 256 308 271 322 q 232 269 242 293 q 222 208 222 244 q 232 148 222 172 q 256 109 242 124 q 290 89 271 94 q 326 83 308 83 q 372 92 353 83 q 403 111 392 100 l 403 333 m 271 -14 q 188 -5 226 -14 q 119 29 149 4 q 73 97 90 54 q 56 208 56 140 q 73 319 56 276 q 121 388 90 363 q 193 422 151 413 q 285 431 235 431 q 347 426 317 431 q 403 417 376 422 l 403 472 q 364 583 403 556 q 257 611 325 611 l 118 611 l 118 681 q 197 700 150 692 q 285 708 243 708 q 408 699 356 708 q 497 663 461 689 q 551 591 533 638 q 569 472 569 544 l 569 0 l 451 0 l 431 42 l 424 42 q 365 3 401 21 q 271 -14 329 -14 m 299 944 l 299 778 l 146 778 l 146 944 l 299 944 m 521 944 l 521 778 l 368 778 l 368 944 l 521 944 z "},"å":{"ha":660,"x_min":56,"x_max":569,"o":"m 403 333 l 326 333 q 290 328 308 333 q 256 308 271 322 q 232 269 242 293 q 222 208 222 244 q 232 148 222 172 q 256 109 242 124 q 290 89 271 94 q 326 83 308 83 q 372 92 353 83 q 403 111 392 100 l 403 333 m 271 -14 q 188 -5 226 -14 q 119 29 149 4 q 73 97 90 54 q 56 208 56 140 q 73 319 56 276 q 121 388 90 363 q 193 422 151 413 q 285 431 235 431 q 347 426 317 431 q 403 417 376 422 l 403 472 q 364 583 403 556 q 257 611 325 611 l 118 611 l 118 681 q 197 700 150 692 q 285 708 243 708 q 408 699 356 708 q 497 663 461 689 q 551 591 533 638 q 569 472 569 544 l 569 0 l 451 0 l 431 42 l 424 42 q 365 3 401 21 q 271 -14 329 -14 m 375 861 q 362 892 375 882 q 333 903 349 903 q 305 892 318 903 q 292 861 292 882 q 305 830 292 840 q 333 819 318 819 q 362 830 349 819 q 375 861 375 840 m 465 861 q 428 776 465 808 q 333 743 392 743 q 238 776 275 743 q 201 861 201 808 q 238 947 201 914 q 333 979 275 979 q 428 947 392 979 q 465 861 465 914 z "},"æ":{"ha":986,"x_min":56,"x_max":931,"o":"m 403 306 l 326 306 q 290 300 308 306 q 256 281 271 294 q 232 247 242 268 q 222 194 222 225 q 232 142 222 163 q 256 108 242 121 q 290 89 271 94 q 326 83 308 83 q 372 92 353 83 q 403 111 392 100 l 403 306 m 764 403 q 756 510 764 468 q 736 576 749 551 q 706 609 724 600 q 667 618 688 618 q 628 609 646 618 q 597 576 610 600 q 577 510 585 551 q 569 403 569 468 l 764 403 m 285 -14 q 193 -5 235 -14 q 121 28 151 4 q 73 92 90 51 q 56 194 56 132 q 73 297 56 257 q 121 361 90 338 q 193 394 151 385 q 285 403 235 403 q 347 399 317 403 q 403 389 376 394 l 403 472 q 364 583 403 556 q 257 611 325 611 l 118 611 l 118 681 q 197 700 150 692 q 285 708 243 708 q 413 685 364 708 q 493 625 461 661 q 567 685 525 661 q 667 708 608 708 q 778 688 729 708 q 861 624 828 668 q 913 512 894 581 q 931 347 931 443 l 931 306 l 569 306 q 612 132 569 181 q 743 83 654 83 l 896 83 l 896 14 q 816 -6 864 3 q 715 -14 768 -14 q 576 10 626 -14 q 493 69 525 33 q 459 36 478 51 q 415 10 440 21 q 358 -8 390 -1 q 285 -14 326 -14 z "},"ç":{"ha":549,"x_min":56,"x_max":528,"o":"m 347 -42 q 441 -69 410 -42 q 472 -139 472 -97 q 437 -208 472 -181 q 333 -236 401 -236 q 288 -233 307 -236 q 256 -226 268 -231 q 229 -215 240 -221 l 229 -168 l 319 -168 q 360 -159 351 -168 q 368 -139 368 -150 q 360 -119 368 -128 q 326 -110 353 -110 l 250 -110 l 250 -3 q 104 103 153 21 q 56 347 56 185 q 74 515 56 446 q 127 626 92 583 q 214 689 163 669 q 333 708 265 708 q 434 700 386 708 q 514 681 482 692 l 514 611 l 361 611 q 304 599 329 611 q 260 558 279 588 q 232 476 242 528 q 222 347 222 425 q 233 218 222 269 q 263 137 243 167 q 310 95 282 107 q 375 83 339 83 l 528 83 l 528 14 q 448 -6 496 3 q 347 -14 400 -14 q 335 -13 340 -14 q 325 -12 331 -12 l 326 -14 l 326 -42 l 347 -42 z "},"è":{"ha":639,"x_min":56,"x_max":583,"o":"m 583 299 l 222 299 q 265 131 222 179 q 396 83 307 83 l 549 83 l 549 14 q 469 -6 517 3 q 368 -14 421 -14 q 228 6 288 -14 q 131 68 169 25 q 74 180 93 111 q 56 347 56 249 q 74 515 56 446 q 125 626 92 583 q 208 689 158 669 q 319 708 257 708 q 431 689 382 708 q 514 626 481 669 q 565 515 547 583 q 583 347 583 446 l 583 299 m 417 396 q 409 507 417 464 q 389 575 401 550 q 358 609 376 600 q 319 618 340 618 q 281 609 299 618 q 250 575 263 600 q 230 507 238 550 q 222 396 222 464 l 417 396 m 271 778 l 167 958 l 326 958 l 375 778 l 271 778 z "},"é":{"ha":639,"x_min":56,"x_max":583,"o":"m 583 299 l 222 299 q 265 131 222 179 q 396 83 307 83 l 549 83 l 549 14 q 469 -6 517 3 q 368 -14 421 -14 q 228 6 288 -14 q 131 68 169 25 q 74 180 93 111 q 56 347 56 249 q 74 515 56 446 q 125 626 92 583 q 208 689 158 669 q 319 708 257 708 q 431 689 382 708 q 514 626 481 669 q 565 515 547 583 q 583 347 583 446 l 583 299 m 417 396 q 409 507 417 464 q 389 575 401 550 q 358 609 376 600 q 319 618 340 618 q 281 609 299 618 q 250 575 263 600 q 230 507 238 550 q 222 396 222 464 l 417 396 m 257 778 l 306 958 l 465 958 l 361 778 l 257 778 z "},"ê":{"ha":639,"x_min":56,"x_max":583,"o":"m 583 299 l 222 299 q 265 131 222 179 q 396 83 307 83 l 549 83 l 549 14 q 469 -6 517 3 q 368 -14 421 -14 q 228 6 288 -14 q 131 68 169 25 q 74 180 93 111 q 56 347 56 249 q 74 515 56 446 q 125 626 92 583 q 208 689 158 669 q 319 708 257 708 q 431 689 382 708 q 514 626 481 669 q 565 515 547 583 q 583 347 583 446 l 583 299 m 417 396 q 409 507 417 464 q 389 575 401 550 q 358 609 376 600 q 319 618 340 618 q 281 609 299 618 q 250 575 263 600 q 230 507 238 550 q 222 396 222 464 l 417 396 m 139 764 l 250 944 l 396 944 l 507 764 l 400 764 l 322 861 l 244 764 l 139 764 z "},"ë":{"ha":639,"x_min":56,"x_max":583,"o":"m 583 299 l 222 299 q 265 131 222 179 q 396 83 307 83 l 549 83 l 549 14 q 469 -6 517 3 q 368 -14 421 -14 q 228 6 288 -14 q 131 68 169 25 q 74 180 93 111 q 56 347 56 249 q 74 515 56 446 q 125 626 92 583 q 208 689 158 669 q 319 708 257 708 q 431 689 382 708 q 514 626 481 669 q 565 515 547 583 q 583 347 583 446 l 583 299 m 417 396 q 409 507 417 464 q 389 575 401 550 q 358 609 376 600 q 319 618 340 618 q 281 609 299 618 q 250 575 263 600 q 230 507 238 550 q 222 396 222 464 l 417 396 m 285 944 l 285 778 l 132 778 l 132 944 l 285 944 m 507 944 l 507 778 l 354 778 l 354 944 l 507 944 z "},"ì":{"ha":361,"x_min":28,"x_max":264,"o":"m 264 0 l 97 0 l 97 694 l 264 694 l 264 0 m 132 778 l 28 958 l 188 958 l 236 778 l 132 778 z "},"í":{"ha":361,"x_min":97,"x_max":333,"o":"m 264 0 l 97 0 l 97 694 l 264 694 l 264 0 m 125 778 l 174 958 l 333 958 l 229 778 l 125 778 z "},"î":{"ha":340,"x_min":-14,"x_max":354,"o":"m 257 0 l 90 0 l 90 694 l 257 694 l 257 0 m -14 764 l 97 944 l 243 944 l 354 764 l 247 764 l 169 861 l 92 764 l -14 764 z "},"ï":{"ha":347,"x_min":-14,"x_max":361,"o":"m 257 0 l 90 0 l 90 694 l 257 694 l 257 0 m 139 944 l 139 778 l -14 778 l -14 944 l 139 944 m 361 944 l 361 778 l 208 778 l 208 944 l 361 944 z "},"ð":{"ha":674,"x_min":56,"x_max":611,"o":"m 493 849 q 578 702 546 796 q 611 486 611 608 l 611 299 q 540 61 611 136 q 333 -14 469 -14 q 126 61 197 -14 q 56 299 56 136 q 124 536 56 461 q 319 611 193 611 q 392 601 361 611 q 444 576 424 592 q 438 674 444 629 q 410 749 431 718 l 340 665 l 271 722 l 347 819 q 248 878 311 851 q 110 917 185 906 l 118 986 q 292 960 213 981 q 424 903 371 939 l 500 996 l 569 939 l 493 849 m 444 486 q 413 506 433 497 q 361 514 393 514 q 260 466 299 514 q 222 299 222 418 q 232 194 222 236 q 257 125 242 151 q 292 88 272 99 q 333 76 313 76 q 374 88 354 76 q 410 125 394 99 q 435 194 425 151 q 444 299 444 236 l 444 486 z "},"ñ":{"ha":701,"x_min":90,"x_max":611,"o":"m 396 708 q 479 699 440 708 q 547 665 518 690 q 594 597 576 640 q 611 486 611 554 l 611 0 l 444 0 l 444 486 q 435 547 444 522 q 410 585 425 571 q 374 606 394 600 q 333 611 354 611 q 288 603 307 611 q 257 583 268 594 l 257 0 l 90 0 l 90 694 l 208 694 l 229 653 l 236 653 q 296 691 258 674 q 396 708 333 708 m 444 792 q 410 847 444 847 q 385 836 397 847 q 358 813 372 825 q 326 789 343 800 q 285 778 308 778 q 242 786 261 778 q 209 814 222 794 q 188 865 196 833 q 181 944 181 897 l 264 944 q 299 889 264 889 q 324 900 311 889 q 351 924 336 911 q 383 947 365 936 q 424 958 400 958 q 499 922 471 958 q 528 792 528 885 l 444 792 z "},"ò":{"ha":667,"x_min":56,"x_max":611,"o":"m 333 618 q 290 606 310 618 q 254 564 269 594 q 231 481 239 533 q 222 347 222 428 q 231 214 222 267 q 254 131 239 161 q 290 88 269 100 q 333 76 310 76 q 377 88 357 76 q 413 131 397 100 q 436 214 428 161 q 444 347 444 267 q 436 481 444 428 q 413 564 428 533 q 377 606 397 594 q 333 618 357 618 m 333 708 q 453 689 401 708 q 540 626 504 669 q 593 515 575 583 q 611 347 611 446 q 593 180 611 249 q 540 68 575 111 q 453 6 504 25 q 333 -14 401 -14 q 214 6 265 -14 q 127 68 163 25 q 74 180 92 111 q 56 347 56 249 q 74 515 56 446 q 127 626 92 583 q 214 689 163 669 q 333 708 265 708 m 285 778 l 181 958 l 340 958 l 389 778 l 285 778 z "},"ó":{"ha":667,"x_min":56,"x_max":611,"o":"m 333 618 q 290 606 310 618 q 254 564 269 594 q 231 481 239 533 q 222 347 222 428 q 231 214 222 267 q 254 131 239 161 q 290 88 269 100 q 333 76 310 76 q 377 88 357 76 q 413 131 397 100 q 436 214 428 161 q 444 347 444 267 q 436 481 444 428 q 413 564 428 533 q 377 606 397 594 q 333 618 357 618 m 333 708 q 453 689 401 708 q 540 626 504 669 q 593 515 575 583 q 611 347 611 446 q 593 180 611 249 q 540 68 575 111 q 453 6 504 25 q 333 -14 401 -14 q 214 6 265 -14 q 127 68 163 25 q 74 180 92 111 q 56 347 56 249 q 74 515 56 446 q 127 626 92 583 q 214 689 163 669 q 333 708 265 708 m 271 778 l 319 958 l 479 958 l 375 778 l 271 778 z "},"ô":{"ha":667,"x_min":56,"x_max":611,"o":"m 333 618 q 290 606 310 618 q 254 564 269 594 q 231 481 239 533 q 222 347 222 428 q 231 214 222 267 q 254 131 239 161 q 290 88 269 100 q 333 76 310 76 q 377 88 357 76 q 413 131 397 100 q 436 214 428 161 q 444 347 444 267 q 436 481 444 428 q 413 564 428 533 q 377 606 397 594 q 333 618 357 618 m 333 708 q 453 689 401 708 q 540 626 504 669 q 593 515 575 583 q 611 347 611 446 q 593 180 611 249 q 540 68 575 111 q 453 6 504 25 q 333 -14 401 -14 q 214 6 265 -14 q 127 68 163 25 q 74 180 92 111 q 56 347 56 249 q 74 515 56 446 q 127 626 92 583 q 214 689 163 669 q 333 708 265 708 m 151 764 l 263 944 l 408 944 l 519 764 l 413 764 l 335 861 l 257 764 l 151 764 z "},"õ":{"ha":667,"x_min":56,"x_max":611,"o":"m 333 618 q 290 606 310 618 q 254 564 269 594 q 231 481 239 533 q 222 347 222 428 q 231 214 222 267 q 254 131 239 161 q 290 88 269 100 q 333 76 310 76 q 377 88 357 76 q 413 131 397 100 q 436 214 428 161 q 444 347 444 267 q 436 481 444 428 q 413 564 428 533 q 377 606 397 594 q 333 618 357 618 m 333 708 q 453 689 401 708 q 540 626 504 669 q 593 515 575 583 q 611 347 611 446 q 593 180 611 249 q 540 68 575 111 q 453 6 504 25 q 333 -14 401 -14 q 214 6 265 -14 q 127 68 163 25 q 74 180 92 111 q 56 347 56 249 q 74 515 56 446 q 127 626 92 583 q 214 689 163 669 q 333 708 265 708 m 424 792 q 389 847 424 847 q 364 836 376 847 q 337 813 351 825 q 305 789 322 800 q 264 778 288 778 q 221 786 240 778 q 188 814 201 794 q 167 865 175 833 q 160 944 160 897 l 243 944 q 278 889 243 889 q 303 900 290 889 q 330 924 315 911 q 362 947 344 936 q 403 958 379 958 q 478 922 450 958 q 507 792 507 885 l 424 792 z "},"ö":{"ha":667,"x_min":56,"x_max":611,"o":"m 333 618 q 290 606 310 618 q 254 564 269 594 q 231 481 239 533 q 222 347 222 428 q 231 214 222 267 q 254 131 239 161 q 290 88 269 100 q 333 76 310 76 q 377 88 357 76 q 413 131 397 100 q 436 214 428 161 q 444 347 444 267 q 436 481 444 428 q 413 564 428 533 q 377 606 397 594 q 333 618 357 618 m 333 708 q 453 689 401 708 q 540 626 504 669 q 593 515 575 583 q 611 347 611 446 q 593 180 611 249 q 540 68 575 111 q 453 6 504 25 q 333 -14 401 -14 q 214 6 265 -14 q 127 68 163 25 q 74 180 92 111 q 56 347 56 249 q 74 515 56 446 q 127 626 92 583 q 214 689 163 669 q 333 708 265 708 m 299 944 l 299 778 l 146 778 l 146 944 l 299 944 m 521 944 l 521 778 l 368 778 l 368 944 l 521 944 z "},"÷":{"ha":625,"x_min":42,"x_max":583,"o":"m 42 479 l 583 479 l 583 354 l 42 354 l 42 479 m 382 271 l 382 118 l 243 118 l 243 271 l 382 271 m 382 715 l 382 563 l 243 563 l 243 715 l 382 715 z "},"ø":{"ha":681,"x_min":35,"x_max":646,"o":"m 90 144 q 63 347 63 225 q 81 515 63 446 q 134 626 99 583 q 221 689 169 669 q 340 708 272 708 q 456 691 406 708 q 540 633 506 674 l 583 681 l 646 611 l 589 549 q 618 347 618 471 q 600 180 618 249 q 547 68 582 111 q 460 6 511 25 q 340 -14 408 -14 q 224 3 274 -14 q 139 60 175 21 l 97 14 l 35 83 l 90 144 m 451 347 q 451 374 451 361 q 450 399 451 386 l 244 175 q 284 97 260 118 q 340 76 308 76 q 384 88 364 76 q 419 131 404 100 q 443 214 435 161 q 451 347 451 267 m 340 618 q 297 606 317 618 q 261 564 276 594 q 238 481 246 533 q 229 347 229 428 l 229 296 l 435 519 q 395 597 419 576 q 340 618 371 618 z "},"ù":{"ha":701,"x_min":90,"x_max":611,"o":"m 306 -14 q 222 -5 261 -14 q 154 29 183 4 q 108 97 125 54 q 90 208 90 140 l 90 694 l 257 694 l 257 208 q 267 148 257 172 q 292 109 276 124 q 327 89 307 94 q 368 83 347 83 q 414 92 394 83 q 444 111 433 100 l 444 694 l 611 694 l 611 0 l 493 0 l 472 42 l 465 42 q 406 3 443 21 q 306 -14 368 -14 m 313 778 l 208 958 l 368 958 l 417 778 l 313 778 z "},"ú":{"ha":701,"x_min":90,"x_max":611,"o":"m 306 -14 q 222 -5 261 -14 q 154 29 183 4 q 108 97 125 54 q 90 208 90 140 l 90 694 l 257 694 l 257 208 q 267 148 257 172 q 292 109 276 124 q 327 89 307 94 q 368 83 347 83 q 414 92 394 83 q 444 111 433 100 l 444 694 l 611 694 l 611 0 l 493 0 l 472 42 l 465 42 q 406 3 443 21 q 306 -14 368 -14 m 292 778 l 340 958 l 500 958 l 396 778 l 292 778 z "},"û":{"ha":701,"x_min":90,"x_max":611,"o":"m 306 -14 q 222 -5 261 -14 q 154 29 183 4 q 108 97 125 54 q 90 208 90 140 l 90 694 l 257 694 l 257 208 q 267 148 257 172 q 292 109 276 124 q 327 89 307 94 q 368 83 347 83 q 414 92 394 83 q 444 111 433 100 l 444 694 l 611 694 l 611 0 l 493 0 l 472 42 l 465 42 q 406 3 443 21 q 306 -14 368 -14 m 171 764 l 282 944 l 428 944 l 539 764 l 432 764 l 354 861 l 276 764 l 171 764 z "},"ü":{"ha":701,"x_min":90,"x_max":611,"o":"m 306 -14 q 222 -5 261 -14 q 154 29 183 4 q 108 97 125 54 q 90 208 90 140 l 90 694 l 257 694 l 257 208 q 267 148 257 172 q 292 109 276 124 q 327 89 307 94 q 368 83 347 83 q 414 92 394 83 q 444 111 433 100 l 444 694 l 611 694 l 611 0 l 493 0 l 472 42 l 465 42 q 406 3 443 21 q 306 -14 368 -14 m 319 944 l 319 778 l 167 778 l 167 944 l 319 944 m 542 944 l 542 778 l 389 778 l 389 944 l 542 944 z "},"ý":{"ha":701,"x_min":90,"x_max":611,"o":"m 444 28 q 306 -14 392 -14 q 222 -5 261 -14 q 154 29 183 4 q 108 97 125 54 q 90 208 90 140 l 90 694 l 257 694 l 257 208 q 267 148 257 172 q 292 109 276 124 q 327 89 307 94 q 368 83 347 83 q 414 92 394 83 q 444 111 433 100 l 444 694 l 611 694 l 611 56 q 538 -212 611 -132 q 313 -292 464 -292 q 212 -283 260 -292 q 132 -264 164 -275 l 132 -194 l 285 -194 q 403 -146 363 -194 q 444 28 444 -97 m 292 778 l 340 958 l 500 958 l 396 778 l 292 778 z "},"þ":{"ha":688,"x_min":97,"x_max":632,"o":"m 97 972 l 264 972 l 264 674 q 316 699 286 689 q 382 708 346 708 q 485 689 439 708 q 565 626 532 669 q 615 515 597 583 q 632 347 632 446 q 615 180 632 249 q 565 68 597 111 q 485 6 532 25 q 382 -14 439 -14 q 316 -4 346 -14 q 264 21 286 6 l 264 -278 l 97 -278 l 97 972 m 340 611 q 294 603 314 611 q 264 583 275 594 l 264 111 q 294 92 275 100 q 340 83 314 83 q 390 95 367 83 q 429 137 413 107 q 456 218 446 167 q 465 347 465 269 q 456 476 465 425 q 429 558 446 528 q 390 599 413 588 q 340 611 367 611 z "},"ÿ":{"ha":701,"x_min":90,"x_max":611,"o":"m 444 28 q 306 -14 392 -14 q 222 -5 261 -14 q 154 29 183 4 q 108 97 125 54 q 90 208 90 140 l 90 694 l 257 694 l 257 208 q 267 148 257 172 q 292 109 276 124 q 327 89 307 94 q 368 83 347 83 q 414 92 394 83 q 444 111 433 100 l 444 694 l 611 694 l 611 56 q 538 -212 611 -132 q 313 -292 464 -292 q 212 -283 260 -292 q 132 -264 164 -275 l 132 -194 l 285 -194 q 403 -146 363 -194 q 444 28 444 -97 m 319 944 l 319 778 l 167 778 l 167 944 l 319 944 m 542 944 l 542 778 l 389 778 l 389 944 l 542 944 z "},"Ā":{"ha":750,"x_min":21,"x_max":729,"o":"m 208 1153 l 542 1153 l 542 1056 l 208 1056 l 208 1153 m 256 243 l 194 0 l 21 0 l 271 972 l 479 972 l 729 0 l 556 0 l 494 243 l 256 243 m 378 750 l 372 750 l 278 354 l 471 354 l 378 750 z "},"ā":{"ha":660,"x_min":56,"x_max":569,"o":"m 403 333 l 326 333 q 290 328 308 333 q 256 308 271 322 q 232 269 242 293 q 222 208 222 244 q 232 148 222 172 q 256 109 242 124 q 290 89 271 94 q 326 83 308 83 q 372 92 353 83 q 403 111 392 100 l 403 333 m 271 -14 q 188 -5 226 -14 q 119 29 149 4 q 73 97 90 54 q 56 208 56 140 q 73 319 56 276 q 121 388 90 363 q 193 422 151 413 q 285 431 235 431 q 347 426 317 431 q 403 417 376 422 l 403 472 q 364 583 403 556 q 257 611 325 611 l 118 611 l 118 681 q 197 700 150 692 q 285 708 243 708 q 408 699 356 708 q 497 663 461 689 q 551 591 533 638 q 569 472 569 544 l 569 0 l 451 0 l 431 42 l 424 42 q 365 3 401 21 q 271 -14 329 -14 m 174 889 l 507 889 l 507 792 l 174 792 l 174 889 z "},"Ą":{"ha":750,"x_min":19,"x_max":776,"o":"m 254 243 l 193 0 l 19 0 l 269 972 l 478 972 l 728 0 l 651 0 l 651 -62 q 726 -139 651 -139 l 776 -139 l 776 -201 q 747 -212 763 -207 q 714 -219 733 -217 q 671 -222 694 -222 q 579 -190 613 -222 q 546 -111 546 -158 q 551 -65 546 -85 q 564 -29 557 -44 q 582 0 571 -12 l 554 0 l 493 243 l 254 243 m 376 750 l 371 750 l 276 354 l 469 354 l 376 750 z "},"ą":{"ha":654,"x_min":56,"x_max":661,"o":"m 451 0 l 431 42 l 424 42 q 365 3 401 21 q 271 -14 329 -14 q 188 -5 226 -14 q 119 29 149 4 q 73 97 90 54 q 56 208 56 140 q 73 319 56 276 q 121 388 90 363 q 193 422 151 413 q 285 431 235 431 q 347 426 317 431 q 403 417 376 422 l 403 472 q 364 583 403 556 q 257 611 325 611 l 118 611 l 118 681 q 197 700 150 692 q 285 708 243 708 q 408 699 356 708 q 497 663 461 689 q 551 591 533 638 q 569 472 569 544 l 569 0 l 536 0 l 536 -62 q 611 -139 536 -139 l 661 -139 l 661 -201 q 632 -212 647 -207 q 599 -219 618 -217 q 556 -222 579 -222 q 464 -190 497 -222 q 431 -111 431 -158 q 436 -65 431 -85 q 449 -29 442 -44 q 467 0 456 -12 l 451 0 m 403 333 l 326 333 q 290 328 308 333 q 256 308 271 322 q 232 269 242 293 q 222 208 222 244 q 232 148 222 172 q 256 109 242 124 q 290 89 271 94 q 326 83 308 83 q 372 92 353 83 q 403 111 392 100 l 403 333 z "},"Ć":{"ha":632,"x_min":63,"x_max":611,"o":"m 389 -14 q 247 10 308 -14 q 145 90 186 33 q 83 244 104 147 q 63 486 63 340 q 83 728 63 632 q 144 882 104 825 q 242 963 183 939 q 375 986 300 986 q 507 978 449 986 q 597 958 565 969 l 597 882 l 431 882 q 349 864 386 882 q 285 801 313 846 q 244 680 258 757 q 229 486 229 603 q 244 292 229 369 q 288 171 260 215 q 355 108 315 126 q 444 90 394 90 l 611 90 l 611 14 q 521 -6 579 3 q 389 -14 463 -14 m 313 1042 l 361 1222 l 521 1222 l 417 1042 l 313 1042 z "},"ć":{"ha":549,"x_min":56,"x_max":528,"o":"m 361 611 q 304 599 329 611 q 260 558 279 588 q 232 476 242 528 q 222 347 222 425 q 233 218 222 269 q 263 137 243 167 q 310 95 282 107 q 375 83 339 83 l 528 83 l 528 14 q 448 -6 496 3 q 347 -14 400 -14 q 219 6 274 -14 q 128 68 165 25 q 74 180 92 111 q 56 347 56 249 q 74 515 56 446 q 127 626 92 583 q 214 689 163 669 q 333 708 265 708 q 434 700 386 708 q 514 681 482 692 l 514 611 l 361 611 m 264 778 l 313 958 l 472 958 l 368 778 l 264 778 z "},"Č":{"ha":632,"x_min":63,"x_max":611,"o":"m 389 -14 q 247 10 308 -14 q 145 90 186 33 q 83 244 104 147 q 63 486 63 340 q 83 728 63 632 q 144 882 104 825 q 242 963 183 939 q 375 986 300 986 q 507 978 449 986 q 597 958 565 969 l 597 882 l 431 882 q 349 864 386 882 q 285 801 313 846 q 244 680 258 757 q 229 486 229 603 q 244 292 229 369 q 288 171 260 215 q 355 108 315 126 q 444 90 394 90 l 611 90 l 611 14 q 521 -6 579 3 q 389 -14 463 -14 m 290 1236 l 368 1139 l 446 1236 l 553 1236 l 442 1056 l 296 1056 l 185 1236 l 290 1236 z "},"č":{"ha":549,"x_min":56,"x_max":528,"o":"m 361 611 q 304 599 329 611 q 260 558 279 588 q 232 476 242 528 q 222 347 222 425 q 233 218 222 269 q 263 137 243 167 q 310 95 282 107 q 375 83 339 83 l 528 83 l 528 14 q 448 -6 496 3 q 347 -14 400 -14 q 219 6 274 -14 q 128 68 165 25 q 74 180 92 111 q 56 347 56 249 q 74 515 56 446 q 127 626 92 583 q 214 689 163 669 q 333 708 265 708 q 434 700 386 708 q 514 681 482 692 l 514 611 l 361 611 m 231 958 l 308 861 l 386 958 l 493 958 l 382 778 l 236 778 l 125 958 l 231 958 z "},"Ē":{"ha":660,"x_min":97,"x_max":604,"o":"m 264 111 l 604 111 l 604 0 l 97 0 l 97 972 l 604 972 l 604 861 l 264 861 l 264 563 l 563 563 l 563 451 l 264 451 l 264 111 m 188 1153 l 521 1153 l 521 1056 l 188 1056 l 188 1153 z "},"ē":{"ha":639,"x_min":56,"x_max":583,"o":"m 583 299 l 222 299 q 265 131 222 179 q 396 83 307 83 l 549 83 l 549 14 q 469 -6 517 3 q 368 -14 421 -14 q 228 6 288 -14 q 131 68 169 25 q 74 180 93 111 q 56 347 56 249 q 74 515 56 446 q 125 626 92 583 q 208 689 158 669 q 319 708 257 708 q 431 689 382 708 q 514 626 481 669 q 565 515 547 583 q 583 347 583 446 l 583 299 m 417 396 q 409 507 417 464 q 389 575 401 550 q 358 609 376 600 q 319 618 340 618 q 281 609 299 618 q 250 575 263 600 q 230 507 238 550 q 222 396 222 464 l 417 396 m 160 889 l 493 889 l 493 792 l 160 792 l 160 889 z "},"Ė":{"ha":660,"x_min":97,"x_max":604,"o":"m 264 111 l 604 111 l 604 0 l 97 0 l 97 972 l 604 972 l 604 861 l 264 861 l 264 563 l 563 563 l 563 451 l 264 451 l 264 111 m 438 1222 l 438 1056 l 285 1056 l 285 1222 l 438 1222 z "},"ė":{"ha":639,"x_min":56,"x_max":583,"o":"m 583 299 l 222 299 q 265 131 222 179 q 396 83 307 83 l 549 83 l 549 14 q 469 -6 517 3 q 368 -14 421 -14 q 228 6 288 -14 q 131 68 169 25 q 74 180 93 111 q 56 347 56 249 q 74 515 56 446 q 125 626 92 583 q 208 689 158 669 q 319 708 257 708 q 431 689 382 708 q 514 626 481 669 q 565 515 547 583 q 583 347 583 446 l 583 299 m 417 396 q 409 507 417 464 q 389 575 401 550 q 358 609 376 600 q 319 618 340 618 q 281 609 299 618 q 250 575 263 600 q 230 507 238 550 q 222 396 222 464 l 417 396 m 396 944 l 396 778 l 243 778 l 243 944 l 396 944 z "},"Ę":{"ha":646,"x_min":97,"x_max":660,"o":"m 97 0 l 97 972 l 604 972 l 604 861 l 264 861 l 264 563 l 563 563 l 563 451 l 264 451 l 264 111 l 604 111 l 604 0 l 535 0 l 535 -62 q 610 -139 535 -139 l 660 -139 l 660 -201 q 631 -212 646 -207 q 597 -219 617 -217 q 554 -222 578 -222 q 463 -190 496 -222 q 429 -111 429 -158 q 435 -65 429 -85 q 447 -29 440 -44 q 465 0 454 -12 l 97 0 z "},"ę":{"ha":639,"x_min":56,"x_max":583,"o":"m 583 299 l 222 299 q 265 131 222 179 q 396 83 307 83 l 549 83 l 549 14 q 472 -5 518 3 q 375 -14 425 -12 l 375 -62 q 450 -139 375 -139 l 500 -139 l 500 -201 q 471 -212 486 -207 q 438 -219 457 -217 q 394 -222 418 -222 q 303 -190 336 -222 q 269 -111 269 -158 q 280 -47 269 -74 q 297 -10 290 -21 q 115 89 174 6 q 56 347 56 172 q 74 515 56 446 q 125 626 92 583 q 208 689 158 669 q 319 708 257 708 q 431 689 382 708 q 514 626 481 669 q 565 515 547 583 q 583 347 583 446 l 583 299 m 417 396 q 409 507 417 464 q 389 575 401 550 q 358 609 376 600 q 319 618 340 618 q 281 609 299 618 q 250 575 263 600 q 230 507 238 550 q 222 396 222 464 l 417 396 z "},"Ğ":{"ha":736,"x_min":63,"x_max":646,"o":"m 646 14 q 555 -6 614 3 q 417 -14 496 -14 q 258 10 325 -14 q 148 90 192 33 q 83 244 104 147 q 63 486 63 340 q 83 728 63 632 q 145 882 104 825 q 247 963 186 939 q 389 986 308 986 q 521 978 463 986 q 611 958 579 969 l 611 882 l 431 882 q 349 864 386 882 q 285 801 313 846 q 244 680 258 757 q 229 486 229 603 q 244 292 229 369 q 288 171 260 215 q 355 108 315 126 q 444 90 394 90 l 479 90 l 479 528 l 646 528 l 646 14 m 389 1167 q 465 1188 431 1167 q 521 1229 500 1208 l 590 1160 q 508 1078 558 1107 q 389 1049 457 1049 q 270 1078 321 1049 q 188 1160 219 1107 l 257 1229 q 313 1188 278 1208 q 389 1167 347 1167 z "},"ğ":{"ha":681,"x_min":56,"x_max":590,"o":"m 424 21 q 372 -4 403 6 q 306 -14 342 -14 q 202 6 249 -14 q 123 68 156 25 q 73 180 90 111 q 56 347 56 249 q 74 515 56 446 q 131 626 93 583 q 226 689 168 669 q 361 708 283 708 q 486 698 435 708 q 590 667 538 688 l 590 56 q 517 -212 590 -132 q 292 -292 443 -292 q 191 -283 239 -292 q 111 -264 143 -275 l 111 -194 l 264 -194 q 383 -147 342 -194 q 424 21 424 -99 m 424 611 l 361 611 q 304 599 329 611 q 260 558 279 588 q 232 476 242 528 q 222 347 222 425 q 232 218 222 269 q 258 137 242 167 q 298 95 275 107 q 347 83 321 83 q 393 92 374 83 q 424 111 413 100 l 424 611 m 333 903 q 406 920 375 903 q 458 958 438 938 l 528 889 q 449 813 496 842 q 333 785 401 785 q 218 813 265 785 q 139 889 171 842 l 208 958 q 260 920 229 938 q 333 903 292 903 z "},"Ģ":{"ha":729,"x_min":63,"x_max":646,"o":"m 646 14 q 555 -6 614 3 q 417 -14 496 -14 q 258 10 325 -14 q 148 90 192 33 q 83 244 104 147 q 63 486 63 340 q 83 728 63 632 q 145 882 104 825 q 247 963 186 939 q 389 986 308 986 q 521 978 463 986 q 611 958 579 969 l 611 882 l 431 882 q 349 864 386 882 q 285 801 313 846 q 244 680 258 757 q 229 486 229 603 q 244 292 229 369 q 288 171 260 215 q 355 108 315 126 q 444 90 394 90 l 479 90 l 479 528 l 646 528 l 646 14 m 319 -97 l 472 -97 l 424 -306 l 319 -306 l 319 -97 z "},"ģ":{"ha":681,"x_min":56,"x_max":590,"o":"m 424 21 q 372 -4 403 6 q 306 -14 342 -14 q 202 6 249 -14 q 123 68 156 25 q 73 180 90 111 q 56 347 56 249 q 74 515 56 446 q 131 626 93 583 q 226 689 168 669 q 361 708 283 708 q 486 698 435 708 q 590 667 538 688 l 590 56 q 517 -212 590 -132 q 292 -292 443 -292 q 191 -283 239 -292 q 111 -264 143 -275 l 111 -194 l 264 -194 q 383 -147 342 -194 q 424 21 424 -99 m 424 611 l 361 611 q 304 599 329 611 q 260 558 279 588 q 232 476 242 528 q 222 347 222 425 q 232 218 222 269 q 258 137 242 167 q 298 95 275 107 q 347 83 321 83 q 393 92 374 83 q 424 111 413 100 l 424 611 m 417 792 l 264 792 l 313 1000 l 417 1000 l 417 792 z "},"ħ":{"ha":715,"x_min":28,"x_max":625,"o":"m 271 625 q 333 656 297 646 q 410 667 368 667 q 493 658 454 667 q 561 624 532 649 q 608 556 590 599 q 625 444 625 513 l 625 0 l 458 0 l 458 444 q 449 505 458 481 q 424 544 439 529 q 388 564 408 558 q 347 569 368 569 q 301 561 321 569 q 271 542 282 553 l 271 0 l 104 0 l 104 744 l 28 744 l 28 847 l 104 847 l 104 972 l 271 972 l 271 847 l 458 847 l 458 772 q 423 762 443 767 q 381 753 403 757 q 338 747 360 749 q 299 744 317 744 l 271 744 l 271 625 z "},"Ĩ":{"ha":333,"x_min":-7,"x_max":340,"o":"m 83 972 l 250 972 l 250 0 l 83 0 l 83 972 m 257 1050 q 222 1106 257 1106 q 197 1094 210 1106 q 170 1071 185 1083 q 138 1047 156 1058 q 97 1036 121 1036 q 54 1044 74 1036 q 22 1072 35 1053 q 1 1124 8 1092 q -7 1203 -7 1156 l 76 1203 q 111 1147 76 1147 q 136 1158 124 1147 q 163 1182 149 1169 q 195 1206 178 1194 q 236 1217 213 1217 q 312 1180 283 1217 q 340 1050 340 1143 l 257 1050 z "},"ĩ":{"ha":333,"x_min":-14,"x_max":333,"o":"m 250 0 l 83 0 l 83 694 l 250 694 l 250 0 m 250 792 q 215 847 250 847 q 190 836 203 847 q 163 813 178 825 q 131 789 149 800 q 90 778 114 778 q 47 786 67 778 q 15 814 28 794 q -6 865 1 833 q -14 944 -14 897 l 69 944 q 104 889 69 889 q 129 900 117 889 q 156 924 142 911 q 188 947 171 936 q 229 958 206 958 q 305 922 276 958 q 333 792 333 885 l 250 792 z "},"Ī":{"ha":319,"x_min":-7,"x_max":326,"o":"m 76 972 l 243 972 l 243 0 l 76 0 l 76 972 m -7 1139 l 326 1139 l 326 1042 l -7 1042 l -7 1139 z "},"ī":{"ha":333,"x_min":0,"x_max":333,"o":"m 250 0 l 83 0 l 83 694 l 250 694 l 250 0 m 0 889 l 333 889 l 333 792 l 0 792 l 0 889 z "},"Į":{"ha":314,"x_min":69,"x_max":300,"o":"m 78 0 l 78 972 l 244 972 l 244 0 l 175 0 l 175 -62 q 250 -139 175 -139 l 300 -139 l 300 -201 q 271 -212 286 -207 q 238 -219 257 -217 q 194 -222 218 -222 q 103 -190 136 -222 q 69 -111 69 -158 q 75 -65 69 -85 q 88 -29 81 -44 q 106 0 94 -12 l 78 0 z "},"į":{"ha":314,"x_min":69,"x_max":300,"o":"m 78 0 l 78 694 l 244 694 l 244 0 l 175 0 l 175 -62 q 250 -139 175 -139 l 300 -139 l 300 -201 q 271 -212 286 -207 q 238 -219 257 -217 q 194 -222 218 -222 q 103 -190 136 -222 q 69 -111 69 -158 q 75 -65 69 -85 q 88 -29 81 -44 q 106 0 94 -12 l 78 0 m 244 944 l 244 778 l 78 778 l 78 944 l 244 944 z "},"İ":{"ha":361,"x_min":97,"x_max":264,"o":"m 264 972 l 264 0 l 97 0 l 97 972 l 264 972 m 257 1222 l 257 1056 l 104 1056 l 104 1222 l 257 1222 z "},"ı":{"ha":361,"x_min":97,"x_max":264,"o":"m 264 0 l 97 0 l 97 694 l 264 694 l 264 0 z "},"ĳ":{"ha":681,"x_min":97,"x_max":583,"o":"m 583 -56 q 566 -175 583 -129 q 519 -247 549 -221 q 451 -282 490 -272 q 368 -292 413 -292 q 291 -283 326 -292 q 229 -264 256 -275 l 229 -194 l 326 -194 q 390 -162 363 -194 q 417 -56 417 -129 l 417 590 l 264 590 l 264 0 l 97 0 l 97 694 l 583 694 l 583 -56 m 583 944 l 583 778 l 417 778 l 417 944 l 583 944 m 264 944 l 264 778 l 97 778 l 97 944 l 264 944 z "},"Ĵ":{"ha":518,"x_min":0,"x_max":539,"o":"m 139 90 q 192 102 168 90 q 233 142 215 114 q 261 216 251 169 q 271 333 271 263 l 271 972 l 438 972 l 438 333 q 364 66 438 146 q 139 -14 290 -14 q 62 -6 97 -14 q 0 14 26 3 l 0 90 l 139 90 m 171 1028 l 282 1208 l 428 1208 l 539 1028 l 432 1028 l 354 1125 l 276 1028 l 171 1028 z "},"ĵ":{"ha":361,"x_min":-83,"x_max":368,"o":"m 271 -56 q 253 -175 271 -129 q 207 -247 236 -221 q 139 -282 178 -272 q 56 -292 100 -292 q -22 -283 14 -292 q -83 -264 -57 -275 l -83 -194 l 14 -194 q 77 -162 50 -194 q 104 -56 104 -129 l 104 694 l 271 694 l 271 -56 m 0 764 l 111 944 l 257 944 l 368 764 l 261 764 l 183 861 l 106 764 l 0 764 z "},"Ķ":{"ha":722,"x_min":97,"x_max":708,"o":"m 299 -69 l 451 -69 l 403 -278 l 299 -278 l 299 -69 m 708 0 l 521 0 l 264 458 l 264 0 l 97 0 l 97 972 l 264 972 l 264 528 l 493 972 l 681 972 l 424 493 l 708 0 z "},"ķ":{"ha":639,"x_min":97,"x_max":625,"o":"m 264 0 l 97 0 l 97 972 l 264 972 l 264 396 l 431 694 l 611 694 l 424 368 l 625 0 l 444 0 l 264 340 l 264 0 m 271 -83 l 424 -83 l 375 -292 l 271 -292 l 271 -83 z "},"ĸ":{"ha":639,"x_min":97,"x_max":625,"o":"m 264 0 l 97 0 l 97 694 l 264 694 l 264 396 l 431 694 l 611 694 l 424 368 l 625 0 l 444 0 l 264 340 l 264 0 z "},"Ļ":{"ha":618,"x_min":97,"x_max":604,"o":"m 264 111 l 604 111 l 604 0 l 97 0 l 97 972 l 264 972 l 264 111 m 285 -83 l 438 -83 l 389 -292 l 285 -292 l 285 -83 z "},"ļ":{"ha":361,"x_min":97,"x_max":264,"o":"m 97 972 l 264 972 l 264 0 l 97 0 l 97 972 m 104 -83 l 257 -83 l 208 -292 l 104 -292 l 104 -83 z "},"ŀ":{"ha":597,"x_min":97,"x_max":528,"o":"m 97 972 l 264 972 l 264 0 l 97 0 l 97 972 m 528 569 l 528 403 l 361 403 l 361 569 l 528 569 z "},"Ł":{"ha":618,"x_min":-14,"x_max":604,"o":"m 264 622 l 326 667 l 389 583 l 264 493 l 264 111 l 604 111 l 604 0 l 97 0 l 97 375 l 49 340 l -14 424 l 97 503 l 97 972 l 264 972 l 264 622 z "},"ł":{"ha":403,"x_min":0,"x_max":403,"o":"m 111 503 l 111 972 l 278 972 l 278 622 l 340 667 l 403 583 l 278 493 l 278 0 l 111 0 l 111 375 l 63 340 l 0 424 l 111 503 z "},"Ń":{"ha":792,"x_min":97,"x_max":694,"o":"m 264 639 l 257 639 l 257 0 l 97 0 l 97 972 l 264 972 l 528 333 l 535 333 l 535 972 l 694 972 l 694 0 l 528 0 l 264 639 m 340 1042 l 389 1222 l 549 1222 l 444 1042 l 340 1042 z "},"ń":{"ha":701,"x_min":90,"x_max":611,"o":"m 396 708 q 479 699 440 708 q 547 665 518 690 q 594 597 576 640 q 611 486 611 554 l 611 0 l 444 0 l 444 486 q 435 547 444 522 q 410 585 425 571 q 374 606 394 600 q 333 611 354 611 q 288 603 307 611 q 257 583 268 594 l 257 0 l 90 0 l 90 694 l 208 694 l 229 653 l 236 653 q 296 691 258 674 q 396 708 333 708 m 292 778 l 340 958 l 500 958 l 396 778 l 292 778 z "},"Ņ":{"ha":792,"x_min":97,"x_max":694,"o":"m 264 639 l 257 639 l 257 0 l 97 0 l 97 972 l 264 972 l 528 333 l 535 333 l 535 972 l 694 972 l 694 0 l 528 0 l 264 639 m 313 -69 l 465 -69 l 417 -278 l 313 -278 l 313 -69 z "},"ņ":{"ha":701,"x_min":90,"x_max":611,"o":"m 396 708 q 479 699 440 708 q 547 665 518 690 q 594 597 576 640 q 611 486 611 554 l 611 0 l 444 0 l 444 486 q 435 547 444 522 q 410 585 425 571 q 374 606 394 600 q 333 611 354 611 q 288 603 307 611 q 257 583 268 594 l 257 0 l 90 0 l 90 694 l 208 694 l 229 653 l 236 653 q 296 691 258 674 q 396 708 333 708 m 279 -83 l 432 -83 l 383 -292 l 279 -292 l 279 -83 z "},"Ō":{"ha":764,"x_min":63,"x_max":701,"o":"m 382 83 q 438 101 411 83 q 487 165 465 119 q 522 289 508 211 q 535 486 535 367 q 522 683 535 606 q 487 807 508 761 q 438 871 465 853 q 382 889 411 889 q 326 871 353 889 q 277 807 299 853 q 242 683 256 761 q 229 486 229 606 q 242 289 229 367 q 277 165 256 211 q 326 101 299 119 q 382 83 353 83 m 382 986 q 513 960 454 986 q 614 876 572 935 q 678 722 656 818 q 701 486 701 626 q 678 250 701 346 q 614 96 656 154 q 513 12 572 38 q 382 -14 454 -14 q 249 12 308 -14 q 149 96 190 38 q 85 250 107 154 q 63 486 63 346 q 85 722 63 626 q 149 876 107 818 q 249 960 190 935 q 382 986 308 986 m 215 1153 l 549 1153 l 549 1056 l 215 1056 l 215 1153 z "},"ō":{"ha":667,"x_min":56,"x_max":611,"o":"m 333 618 q 290 606 310 618 q 254 564 269 594 q 231 481 239 533 q 222 347 222 428 q 231 214 222 267 q 254 131 239 161 q 290 88 269 100 q 333 76 310 76 q 377 88 357 76 q 413 131 397 100 q 436 214 428 161 q 444 347 444 267 q 436 481 444 428 q 413 564 428 533 q 377 606 397 594 q 333 618 357 618 m 333 708 q 453 689 401 708 q 540 626 504 669 q 593 515 575 583 q 611 347 611 446 q 593 180 611 249 q 540 68 575 111 q 453 6 504 25 q 333 -14 401 -14 q 214 6 265 -14 q 127 68 163 25 q 74 180 92 111 q 56 347 56 249 q 74 515 56 446 q 127 626 92 583 q 214 689 163 669 q 333 708 265 708 m 167 889 l 500 889 l 500 792 l 167 792 l 167 889 z "},"Œ":{"ha":1063,"x_min":56,"x_max":1007,"o":"m 1007 972 l 1007 861 l 667 861 l 667 563 l 965 563 l 965 451 l 667 451 l 667 111 l 1007 111 l 1007 0 l 479 0 q 166 118 276 0 q 56 486 56 236 q 166 854 56 736 q 479 972 276 972 l 1007 972 m 500 861 l 479 861 q 372 842 419 861 q 290 778 324 822 q 240 662 257 733 q 222 486 222 590 q 240 310 222 382 q 290 194 257 239 q 372 131 324 150 q 479 111 419 111 l 500 111 l 500 861 z "},"œ":{"ha":1028,"x_min":56,"x_max":972,"o":"m 333 618 q 290 606 310 618 q 254 564 269 594 q 231 481 239 533 q 222 347 222 428 q 231 214 222 267 q 254 131 239 161 q 290 88 269 100 q 333 76 310 76 q 377 88 357 76 q 413 131 397 100 q 436 214 428 161 q 444 347 444 267 q 436 481 444 428 q 413 564 428 533 q 377 606 397 594 q 333 618 357 618 m 806 396 q 798 507 806 464 q 778 575 790 550 q 747 609 765 600 q 708 618 729 618 q 669 609 688 618 q 639 575 651 600 q 619 507 626 550 q 611 396 611 464 l 806 396 m 708 708 q 820 689 771 708 q 903 626 869 669 q 954 515 936 583 q 972 347 972 446 l 972 299 l 611 299 q 653 131 611 179 q 785 83 696 83 l 938 83 l 938 14 q 858 -6 906 3 q 757 -14 810 -14 q 605 10 658 -14 q 521 69 551 33 q 445 10 489 33 q 333 -14 401 -14 q 214 6 265 -14 q 127 68 163 25 q 74 180 92 111 q 56 347 56 249 q 74 515 56 446 q 127 626 92 583 q 214 689 163 669 q 333 708 265 708 q 445 685 401 708 q 521 625 489 661 q 599 685 553 661 q 708 708 646 708 z "},"Ŕ":{"ha":743,"x_min":97,"x_max":701,"o":"m 667 653 q 656 531 667 582 q 624 445 644 481 q 576 386 604 410 q 514 347 547 363 l 701 0 l 514 0 l 354 313 l 264 313 l 264 0 l 97 0 l 97 958 q 206 980 150 974 q 340 986 261 986 q 488 967 426 986 q 590 908 550 949 q 648 805 629 868 q 667 653 667 742 m 340 424 q 409 435 379 424 q 459 473 439 446 q 490 544 479 500 q 500 653 500 588 q 490 762 500 718 q 459 833 479 806 q 409 871 439 860 q 340 882 379 882 l 264 882 l 264 424 l 340 424 m 285 1042 l 333 1222 l 493 1222 l 389 1042 l 285 1042 z "},"Ŗ":{"ha":743,"x_min":97,"x_max":701,"o":"m 667 653 q 656 531 667 582 q 624 445 644 481 q 576 386 604 410 q 514 347 547 363 l 701 0 l 514 0 l 354 313 l 264 313 l 264 0 l 97 0 l 97 958 q 206 980 150 974 q 340 986 261 986 q 488 967 426 986 q 590 908 550 949 q 648 805 629 868 q 667 653 667 742 m 340 424 q 409 435 379 424 q 459 473 439 446 q 490 544 479 500 q 500 653 500 588 q 490 762 500 718 q 459 833 479 806 q 409 871 439 860 q 340 882 379 882 l 264 882 l 264 424 l 340 424 m 313 -69 l 465 -69 l 417 -278 l 313 -278 l 313 -69 z "},"ŗ":{"ha":500,"x_min":90,"x_max":486,"o":"m 486 694 l 486 576 l 333 576 q 288 568 307 576 q 257 549 268 560 l 257 0 l 90 0 l 90 694 l 208 694 l 229 639 l 236 639 q 296 677 258 660 q 396 694 333 694 l 486 694 m 99 -83 l 251 -83 l 203 -292 l 99 -292 l 99 -83 z "},"Ř":{"ha":743,"x_min":97,"x_max":701,"o":"m 667 653 q 656 531 667 582 q 624 445 644 481 q 576 386 604 410 q 514 347 547 363 l 701 0 l 514 0 l 354 313 l 264 313 l 264 0 l 97 0 l 97 958 q 206 980 150 974 q 340 986 261 986 q 488 967 426 986 q 590 908 550 949 q 648 805 629 868 q 667 653 667 742 m 340 424 q 409 435 379 424 q 459 473 439 446 q 490 544 479 500 q 500 653 500 588 q 490 762 500 718 q 459 833 479 806 q 409 871 439 860 q 340 882 379 882 l 264 882 l 264 424 l 340 424 m 263 1222 l 340 1125 l 418 1222 l 525 1222 l 414 1042 l 268 1042 l 157 1222 l 263 1222 z "},"ř":{"ha":500,"x_min":90,"x_max":486,"o":"m 486 694 l 486 576 l 333 576 q 288 568 307 576 q 257 549 268 560 l 257 0 l 90 0 l 90 694 l 208 694 l 229 639 l 236 639 q 296 677 258 660 q 396 694 333 694 l 486 694 m 210 944 l 288 847 l 365 944 l 472 944 l 361 764 l 215 764 l 104 944 l 210 944 z "},"Ś":{"ha":646,"x_min":42,"x_max":604,"o":"m 42 736 q 113 919 42 851 q 326 986 185 986 q 458 978 400 986 q 549 958 517 969 l 549 882 l 354 882 q 247 843 286 882 q 208 736 208 804 q 238 639 208 675 q 311 577 267 603 q 406 529 356 551 q 501 473 457 507 q 575 387 546 439 q 604 250 604 335 q 526 56 604 125 q 271 -14 447 -14 q 139 -6 197 -14 q 49 14 81 3 l 49 90 l 243 90 q 392 131 347 90 q 438 250 438 171 q 408 341 438 307 q 335 399 379 375 q 240 446 290 424 q 144 503 189 468 q 71 593 100 539 q 42 736 42 647 m 264 1056 l 313 1236 l 472 1236 l 368 1056 l 264 1056 z "},"ś":{"ha":576,"x_min":42,"x_max":535,"o":"m 229 778 l 278 958 l 438 958 l 333 778 l 229 778 m 208 528 q 233 469 208 492 q 293 428 257 446 q 372 394 329 411 q 450 353 414 378 q 510 291 486 329 q 535 194 535 253 q 517 92 535 132 q 461 28 499 51 q 367 -5 424 4 q 236 -14 311 -14 q 135 -6 183 -14 q 56 14 88 3 l 56 83 l 208 83 q 328 106 288 83 q 368 181 368 128 q 344 240 368 217 q 283 280 319 263 q 205 314 247 297 q 126 355 163 331 q 66 417 90 379 q 42 514 42 454 q 60 608 42 571 q 112 668 78 646 q 197 699 146 690 q 313 708 247 708 q 413 700 365 708 q 493 681 461 692 l 493 611 l 340 611 q 245 590 282 611 q 208 528 208 569 z "},"Ş":{"ha":646,"x_min":42,"x_max":604,"o":"m 354 -42 q 448 -69 417 -42 q 479 -139 479 -97 q 444 -208 479 -181 q 340 -236 408 -236 q 294 -233 314 -236 q 263 -226 275 -231 q 236 -215 247 -221 l 236 -168 l 326 -168 q 367 -159 358 -168 q 375 -139 375 -150 q 367 -119 375 -128 q 333 -110 360 -110 l 257 -110 l 257 -14 q 133 -5 188 -12 q 49 14 78 3 l 49 90 l 243 90 q 392 131 347 90 q 438 250 438 171 q 408 341 438 307 q 335 399 379 375 q 240 446 290 424 q 144 503 189 468 q 71 593 100 539 q 42 736 42 647 q 113 919 42 851 q 326 986 185 986 q 458 978 400 986 q 549 958 517 969 l 549 882 l 354 882 q 247 843 286 882 q 208 736 208 804 q 238 639 208 675 q 311 577 267 603 q 406 529 356 551 q 501 473 457 507 q 575 387 546 439 q 604 250 604 335 q 540 68 604 136 q 333 -11 476 0 l 333 -42 l 354 -42 z "},"ş":{"ha":576,"x_min":42,"x_max":535,"o":"m 326 -42 q 420 -69 389 -42 q 451 -139 451 -97 q 416 -208 451 -181 q 313 -236 381 -236 q 267 -233 286 -236 q 235 -226 247 -231 q 208 -215 219 -221 l 208 -168 l 299 -168 q 339 -159 331 -168 q 347 -139 347 -150 q 340 -119 347 -128 q 306 -110 332 -110 l 229 -110 l 229 -14 q 132 -5 178 -12 q 56 14 86 3 l 56 83 l 208 83 q 328 106 288 83 q 368 181 368 128 q 344 240 368 217 q 283 280 319 263 q 205 314 247 297 q 126 355 163 331 q 66 417 90 379 q 42 514 42 454 q 60 608 42 571 q 112 668 78 646 q 197 699 146 690 q 313 708 247 708 q 413 700 365 708 q 493 681 461 692 l 493 611 l 340 611 q 245 590 282 611 q 208 528 208 569 q 233 469 208 492 q 293 428 257 446 q 372 394 329 411 q 450 353 414 378 q 510 291 486 329 q 535 194 535 253 q 521 101 535 139 q 478 40 507 64 q 407 5 450 17 q 306 -11 364 -7 l 306 -42 l 326 -42 z "},"Š":{"ha":646,"x_min":42,"x_max":604,"o":"m 42 736 q 113 919 42 851 q 326 986 185 986 q 458 978 400 986 q 549 958 517 969 l 549 882 l 354 882 q 247 843 286 882 q 208 736 208 804 q 238 639 208 675 q 311 577 267 603 q 406 529 356 551 q 501 473 457 507 q 575 387 546 439 q 604 250 604 335 q 526 56 604 125 q 271 -14 447 -14 q 139 -6 197 -14 q 49 14 81 3 l 49 90 l 243 90 q 392 131 347 90 q 438 250 438 171 q 408 341 438 307 q 335 399 379 375 q 240 446 290 424 q 144 503 189 468 q 71 593 100 539 q 42 736 42 647 m 235 1236 l 313 1139 l 390 1236 l 497 1236 l 386 1056 l 240 1056 l 129 1236 l 235 1236 z "},"š":{"ha":576,"x_min":42,"x_max":535,"o":"m 200 958 l 278 861 l 356 958 l 463 958 l 351 778 l 206 778 l 94 958 l 200 958 m 208 528 q 233 469 208 492 q 293 428 257 446 q 372 394 329 411 q 450 353 414 378 q 510 291 486 329 q 535 194 535 253 q 517 92 535 132 q 461 28 499 51 q 367 -5 424 4 q 236 -14 311 -14 q 135 -6 183 -14 q 56 14 88 3 l 56 83 l 208 83 q 328 106 288 83 q 368 181 368 128 q 344 240 368 217 q 283 280 319 263 q 205 314 247 297 q 126 355 163 331 q 66 417 90 379 q 42 514 42 454 q 60 608 42 571 q 112 668 78 646 q 197 699 146 690 q 313 708 247 708 q 413 700 365 708 q 493 681 461 692 l 493 611 l 340 611 q 245 590 282 611 q 208 528 208 569 z "},"Ū":{"ha":764,"x_min":83,"x_max":681,"o":"m 382 83 q 435 95 411 83 q 476 135 458 107 q 504 212 494 164 q 514 333 514 260 l 514 972 l 681 972 l 681 333 q 607 66 681 146 q 382 -14 533 -14 q 157 66 231 -14 q 83 333 83 146 l 83 972 l 250 972 l 250 333 q 260 212 250 260 q 288 135 269 164 q 329 95 306 107 q 382 83 353 83 m 215 1153 l 549 1153 l 549 1056 l 215 1056 l 215 1153 z "},"ū":{"ha":701,"x_min":90,"x_max":611,"o":"m 306 -14 q 222 -5 261 -14 q 154 29 183 4 q 108 97 125 54 q 90 208 90 140 l 90 694 l 257 694 l 257 208 q 267 148 257 172 q 292 109 276 124 q 327 89 307 94 q 368 83 347 83 q 414 92 394 83 q 444 111 433 100 l 444 694 l 611 694 l 611 0 l 493 0 l 472 42 l 465 42 q 406 3 443 21 q 306 -14 368 -14 m 186 875 l 519 875 l 519 778 l 186 778 l 186 875 z "},"Ų":{"ha":764,"x_min":83,"x_max":681,"o":"m 382 83 q 435 95 411 83 q 476 135 458 107 q 504 212 494 164 q 514 333 514 260 l 514 972 l 681 972 l 681 333 q 665 181 681 244 q 615 76 649 118 q 533 13 582 35 q 417 -12 483 -8 l 417 -62 q 492 -139 417 -139 l 542 -139 l 542 -201 q 513 -212 528 -207 q 479 -219 499 -217 q 436 -222 460 -222 q 344 -190 378 -222 q 311 -111 311 -158 q 321 -50 311 -75 q 338 -12 331 -25 q 147 78 210 -3 q 83 333 83 160 l 83 972 l 250 972 l 250 333 q 260 212 250 260 q 288 135 269 164 q 329 95 306 107 q 382 83 353 83 z "},"ų":{"ha":701,"x_min":90,"x_max":701,"o":"m 493 0 l 472 42 l 465 42 q 406 3 443 21 q 306 -14 368 -14 q 222 -5 261 -14 q 154 29 183 4 q 108 97 125 54 q 90 208 90 140 l 90 694 l 257 694 l 257 208 q 267 148 257 172 q 292 109 276 124 q 327 89 307 94 q 368 83 347 83 q 414 92 394 83 q 444 111 433 100 l 444 694 l 611 694 l 611 0 l 576 0 l 576 -62 q 651 -139 576 -139 l 701 -139 l 701 -201 q 672 -212 688 -207 q 639 -219 658 -217 q 596 -222 619 -222 q 504 -190 538 -222 q 471 -111 471 -158 q 476 -65 471 -85 q 489 -29 482 -44 q 507 0 496 -12 l 493 0 z "},"Ÿ":{"ha":667,"x_min":7,"x_max":660,"o":"m 331 507 l 336 507 l 486 972 l 660 972 l 417 292 l 417 0 l 250 0 l 250 292 l 7 972 l 181 972 l 331 507 m 299 1222 l 299 1056 l 146 1056 l 146 1222 l 299 1222 m 521 1222 l 521 1056 l 368 1056 l 368 1222 l 521 1222 z "},"Ź":{"ha":604,"x_min":28,"x_max":576,"o":"m 243 1042 l 292 1222 l 451 1222 l 347 1042 l 243 1042 m 215 111 l 569 111 l 569 0 l 28 0 l 28 104 l 389 861 l 35 861 l 35 972 l 576 972 l 576 868 l 215 111 z "},"ź":{"ha":556,"x_min":28,"x_max":528,"o":"m 215 778 l 264 958 l 424 958 l 319 778 l 215 778 m 528 597 l 222 104 l 521 104 l 521 0 l 28 0 l 28 97 l 333 590 l 42 590 l 42 694 l 528 694 l 528 597 z "},"Ż":{"ha":604,"x_min":28,"x_max":576,"o":"m 382 1222 l 382 1056 l 229 1056 l 229 1222 l 382 1222 m 215 111 l 569 111 l 569 0 l 28 0 l 28 104 l 389 861 l 35 861 l 35 972 l 576 972 l 576 868 l 215 111 z "},"ż":{"ha":556,"x_min":28,"x_max":528,"o":"m 368 944 l 368 778 l 215 778 l 215 944 l 368 944 m 528 597 l 222 104 l 521 104 l 521 0 l 28 0 l 28 97 l 333 590 l 42 590 l 42 694 l 528 694 l 528 597 z "},"Ž":{"ha":604,"x_min":28,"x_max":576,"o":"m 242 1236 l 319 1139 l 397 1236 l 504 1236 l 393 1056 l 247 1056 l 136 1236 l 242 1236 m 215 111 l 569 111 l 569 0 l 28 0 l 28 104 l 389 861 l 35 861 l 35 972 l 576 972 l 576 868 l 215 111 z "},"ž":{"ha":556,"x_min":28,"x_max":528,"o":"m 214 958 l 292 861 l 369 958 l 476 958 l 365 778 l 219 778 l 108 958 l 214 958 m 528 597 l 222 104 l 521 104 l 521 0 l 28 0 l 28 97 l 333 590 l 42 590 l 42 694 l 528 694 l 528 597 z "},"ƒ":{"ha":472,"x_min":-97,"x_max":486,"o":"m 104 576 l 28 576 l 28 681 l 104 681 l 104 736 q 122 855 104 808 q 168 927 139 901 q 236 963 197 953 q 319 972 275 972 q 364 970 340 972 q 410 964 388 968 q 453 955 433 960 q 486 944 474 950 l 486 875 l 375 875 q 335 869 354 875 q 302 847 317 863 q 279 805 288 832 q 271 736 271 778 l 271 681 l 458 681 l 458 604 q 378 585 426 593 q 278 576 331 576 l 271 576 l 271 -56 q 253 -175 271 -129 q 207 -247 236 -221 q 139 -282 178 -272 q 56 -292 100 -292 q -28 -283 14 -292 q -97 -264 -71 -275 l -97 -194 l 0 -194 q 40 -188 21 -194 q 73 -167 58 -182 q 96 -124 88 -151 q 104 -56 104 -97 l 104 576 z "},"ˆ":{"ha":424,"x_min":28,"x_max":396,"o":"m 28 764 l 139 944 l 285 944 l 396 764 l 289 764 l 211 861 l 133 764 l 28 764 z "},"ˇ":{"ha":424,"x_min":28,"x_max":396,"o":"m 133 958 l 211 861 l 289 958 l 396 958 l 285 778 l 139 778 l 28 958 l 133 958 z "},"˙":{"ha":208,"x_min":28,"x_max":181,"o":"m 181 944 l 181 778 l 28 778 l 28 944 l 181 944 z "},"˛":{"ha":286,"x_min":28,"x_max":258,"o":"m 133 0 l 133 -62 q 208 -139 133 -139 l 258 -139 l 258 -201 q 229 -212 244 -207 q 196 -219 215 -217 q 153 -222 176 -222 q 61 -190 94 -222 q 28 -111 28 -158 q 33 -65 28 -85 q 46 -29 39 -44 q 64 0 53 -12 l 133 0 z "},"˜":{"ha":403,"x_min":28,"x_max":375,"o":"m 292 792 q 257 847 292 847 q 232 836 244 847 q 205 813 219 825 q 173 789 190 800 q 132 778 156 778 q 89 786 108 778 q 56 814 69 794 q 35 865 43 833 q 28 944 28 897 l 111 944 q 146 889 111 889 q 171 900 158 889 q 198 924 183 911 q 230 947 213 936 q 271 958 247 958 q 347 922 318 958 q 375 792 375 885 l 292 792 z "},"Ё":{"ha":660,"x_min":97,"x_max":604,"o":"m 264 111 l 604 111 l 604 0 l 97 0 l 97 972 l 604 972 l 604 861 l 264 861 l 264 563 l 563 563 l 563 451 l 264 451 l 264 111 m 313 1222 l 313 1056 l 160 1056 l 160 1222 l 313 1222 m 535 1222 l 535 1056 l 382 1056 l 382 1222 l 535 1222 z "},"Ђ":{"ha":799,"x_min":0,"x_max":743,"o":"m 576 340 q 410 500 576 500 l 333 500 l 333 0 l 167 0 l 167 861 l 0 861 l 0 972 l 528 972 l 528 861 l 333 861 l 333 597 q 399 607 360 603 q 465 611 439 611 q 672 541 601 611 q 743 340 743 471 l 743 222 q 685 47 743 107 q 528 -14 628 -14 q 467 -8 496 -14 q 417 14 438 -1 l 417 83 l 486 83 q 549 116 522 83 q 576 222 576 149 l 576 340 z "},"Ѓ":{"ha":604,"x_min":97,"x_max":576,"o":"m 271 1042 l 319 1222 l 479 1222 l 375 1042 l 271 1042 m 97 972 l 576 972 l 576 861 l 264 861 l 264 0 l 97 0 l 97 972 z "},"Є":{"ha":632,"x_min":63,"x_max":611,"o":"m 514 444 l 231 444 q 249 272 232 340 q 293 163 265 204 q 359 106 321 122 q 444 90 397 90 l 611 90 l 611 14 q 521 -6 579 3 q 389 -14 463 -14 q 247 10 308 -14 q 145 90 186 33 q 83 244 104 147 q 63 486 63 340 q 83 728 63 632 q 144 882 104 825 q 242 963 183 939 q 375 986 300 986 q 507 978 449 986 q 597 958 565 969 l 597 882 l 431 882 q 354 867 389 882 q 294 815 319 853 q 251 715 268 778 q 231 556 235 651 l 514 556 l 514 444 z "},"Ѕ":{"ha":646,"x_min":42,"x_max":604,"o":"m 42 736 q 113 919 42 851 q 326 986 185 986 q 458 978 400 986 q 549 958 517 969 l 549 882 l 354 882 q 247 843 286 882 q 208 736 208 804 q 238 639 208 675 q 311 577 267 603 q 406 529 356 551 q 501 473 457 507 q 575 387 546 439 q 604 250 604 335 q 526 56 604 125 q 271 -14 447 -14 q 139 -6 197 -14 q 49 14 81 3 l 49 90 l 243 90 q 392 131 347 90 q 438 250 438 171 q 408 341 438 307 q 335 399 379 375 q 240 446 290 424 q 144 503 189 468 q 71 593 100 539 q 42 736 42 647 z "},"І":{"ha":361,"x_min":97,"x_max":264,"o":"m 97 972 l 264 972 l 264 0 l 97 0 l 97 972 z "},"Ї":{"ha":347,"x_min":-14,"x_max":361,"o":"m 257 972 l 257 0 l 90 0 l 90 972 l 257 972 m 139 1222 l 139 1056 l -14 1056 l -14 1222 l 139 1222 m 361 1222 l 361 1056 l 208 1056 l 208 1222 l 361 1222 z "},"Ј":{"ha":521,"x_min":0,"x_max":438,"o":"m 139 90 q 192 102 168 90 q 233 142 215 114 q 261 216 251 169 q 271 333 271 263 l 271 972 l 438 972 l 438 333 q 364 66 438 146 q 139 -14 290 -14 q 62 -6 97 -14 q 0 14 26 3 l 0 90 l 139 90 z "},"Љ":{"ha":1125,"x_min":0,"x_max":1076,"o":"m 792 597 q 1005 522 933 597 q 1076 285 1076 447 q 999 60 1076 133 q 750 -14 922 -14 q 615 -8 671 -14 q 507 14 560 -1 l 507 861 l 328 861 l 299 292 q 278 150 294 208 q 235 56 261 92 q 174 3 210 19 q 97 -14 139 -14 q 25 -7 53 -14 q 0 0 10 -4 l 0 76 q 49 88 26 76 q 89 124 71 99 q 118 191 107 150 q 132 292 129 232 l 167 972 l 674 972 l 674 583 q 703 588 686 586 q 738 592 721 590 q 769 596 754 594 q 792 597 783 597 m 674 486 l 674 90 l 750 90 q 869 135 829 90 q 910 285 910 181 q 899 381 910 342 q 869 443 889 419 q 819 476 849 467 q 750 486 789 486 l 674 486 z "},"Њ":{"ha":1132,"x_min":97,"x_max":1083,"o":"m 799 569 q 1083 271 1083 569 q 1006 58 1083 131 q 757 -14 929 -14 q 622 -8 678 -14 q 514 14 567 -1 l 514 458 l 264 458 l 264 0 l 97 0 l 97 972 l 264 972 l 264 569 l 514 569 l 514 972 l 681 972 l 681 556 q 710 560 693 558 q 744 565 728 563 q 776 568 761 567 q 799 569 790 569 m 681 458 l 681 90 l 757 90 q 876 133 836 90 q 917 271 917 176 q 876 417 917 375 q 757 458 836 458 l 681 458 z "},"Ћ":{"ha":806,"x_min":0,"x_max":743,"o":"m 465 618 q 677 552 611 618 q 743 340 743 486 l 743 0 l 576 0 l 576 340 q 410 507 576 507 l 333 507 l 333 0 l 167 0 l 167 861 l 0 861 l 0 972 l 528 972 l 528 861 l 333 861 l 333 604 q 399 614 360 610 q 465 618 439 618 z "},"Ќ":{"ha":722,"x_min":97,"x_max":715,"o":"m 431 504 q 472 485 451 497 q 512 453 493 474 q 545 404 531 433 q 569 333 560 375 l 611 153 q 643 99 618 121 q 715 76 668 76 l 715 0 q 690 -7 706 -4 q 618 -14 663 -14 q 498 28 539 -14 q 438 153 457 69 l 396 333 q 354 426 381 401 q 292 451 328 451 l 264 451 l 264 0 l 97 0 l 97 972 l 264 972 l 264 563 l 292 563 q 340 588 318 563 q 382 681 363 613 l 424 819 q 488 944 449 903 q 604 986 526 986 q 646 984 628 986 q 676 979 664 982 q 701 972 692 975 l 701 896 q 631 876 654 896 q 597 819 608 856 l 556 681 q 501 560 531 597 q 431 510 472 524 l 431 504 m 318 1028 l 367 1208 l 526 1208 l 422 1028 l 318 1028 z "},"Ў":{"ha":688,"x_min":0,"x_max":660,"o":"m 264 -14 q 183 -6 222 -14 q 111 14 143 3 l 111 90 l 208 90 q 256 98 235 90 q 294 126 276 106 q 327 184 313 147 q 354 278 342 221 q 218 324 271 278 q 146 444 165 371 l 0 972 l 167 972 l 308 458 q 335 408 317 426 q 375 389 353 389 l 493 972 l 660 972 l 507 222 q 264 -14 460 -14 m 340 1153 q 417 1174 382 1153 q 472 1215 451 1194 l 542 1146 q 459 1064 510 1093 q 340 1035 408 1035 q 222 1064 272 1035 q 139 1146 171 1093 l 208 1215 q 264 1174 229 1194 q 340 1153 299 1153 z "},"Џ":{"ha":778,"x_min":97,"x_max":681,"o":"m 472 0 l 444 -208 l 333 -208 l 306 0 l 97 0 l 97 972 l 264 972 l 264 111 l 514 111 l 514 972 l 681 972 l 681 0 l 472 0 z "},"А":{"ha":750,"x_min":21,"x_max":729,"o":"m 256 243 l 194 0 l 21 0 l 271 972 l 479 972 l 729 0 l 556 0 l 494 243 l 256 243 m 378 750 l 372 750 l 278 354 l 471 354 l 378 750 z "},"Б":{"ha":715,"x_min":97,"x_max":667,"o":"m 264 597 l 340 597 q 590 522 513 597 q 667 285 667 446 q 590 60 667 133 q 340 -14 513 -14 q 206 -8 261 -14 q 97 14 150 -1 l 97 972 l 618 972 l 618 861 l 264 861 l 264 597 m 264 486 l 264 90 l 340 90 q 460 135 419 90 q 500 285 500 181 q 460 440 500 394 q 340 486 419 486 l 264 486 z "},"В":{"ha":736,"x_min":97,"x_max":688,"o":"m 514 518 q 642 424 597 489 q 688 264 688 358 q 608 57 688 128 q 340 -14 528 -14 q 206 -8 261 -14 q 97 14 150 -1 l 97 958 q 206 980 150 974 q 340 986 261 986 q 572 918 497 986 q 646 729 646 850 q 611 610 646 667 q 514 524 576 553 l 514 518 m 264 458 l 264 90 l 340 90 q 472 133 429 90 q 514 271 514 176 q 472 415 514 371 q 340 458 429 458 l 264 458 m 326 563 q 433 603 394 563 q 472 722 472 643 q 433 842 472 801 q 326 882 394 882 l 264 882 l 264 563 l 326 563 z "},"Г":{"ha":604,"x_min":97,"x_max":576,"o":"m 97 972 l 576 972 l 576 861 l 264 861 l 264 0 l 97 0 l 97 972 z "},"Д":{"ha":806,"x_min":14,"x_max":771,"o":"m 514 111 l 514 875 l 343 875 l 319 382 q 306 260 317 311 q 282 176 294 210 q 250 111 267 138 l 514 111 m 174 0 q 153 -115 168 -62 q 118 -208 139 -167 l 14 -208 l 14 111 l 83 111 q 115 176 100 138 q 139 260 128 210 q 153 382 150 311 l 181 972 l 681 972 l 681 111 l 771 111 l 771 -208 l 667 -208 q 631 -115 646 -167 q 611 0 617 -62 l 174 0 z "},"Е":{"ha":660,"x_min":97,"x_max":604,"o":"m 264 111 l 604 111 l 604 0 l 97 0 l 97 972 l 604 972 l 604 861 l 264 861 l 264 563 l 563 563 l 563 451 l 264 451 l 264 111 z "},"Ж":{"ha":1069,"x_min":7,"x_max":1063,"o":"m 292 510 q 221 560 250 524 q 167 681 192 597 l 125 819 q 91 876 114 856 q 21 896 68 896 l 21 972 q 46 979 31 975 q 76 984 58 982 q 118 986 94 986 q 235 944 196 986 q 299 819 274 903 l 340 681 q 382 588 360 613 q 431 563 404 563 l 451 563 l 451 972 l 618 972 l 618 563 l 639 563 q 688 588 665 563 q 729 681 710 613 l 771 819 q 835 944 796 903 q 951 986 874 986 q 993 984 975 986 q 1024 979 1011 982 q 1049 972 1039 975 l 1049 896 q 978 876 1001 896 q 944 819 956 856 l 903 681 q 849 560 878 597 q 778 510 819 524 l 778 504 q 819 485 799 497 q 859 453 840 474 q 892 404 878 433 q 917 333 907 375 l 958 153 q 990 99 965 121 q 1063 76 1015 76 l 1063 0 q 1038 -7 1053 -4 q 965 -14 1010 -14 q 845 28 886 -14 q 785 153 804 69 l 743 333 q 701 426 728 401 q 639 451 675 451 l 618 451 l 618 0 l 451 0 l 451 451 l 431 451 q 368 426 394 451 q 326 333 342 401 l 285 153 q 224 28 265 69 q 104 -14 183 -14 q 32 -7 60 -14 q 7 0 17 -4 l 7 76 q 79 99 54 76 q 111 153 104 121 l 153 333 q 177 404 163 375 q 210 453 192 433 q 250 485 229 474 q 292 504 271 497 l 292 510 z "},"З":{"ha":625,"x_min":21,"x_max":576,"o":"m 229 90 q 360 133 318 90 q 403 271 403 176 q 360 408 403 365 q 229 451 318 451 l 118 451 l 118 563 l 215 563 q 375 736 375 563 q 335 843 375 804 q 215 882 294 882 l 35 882 l 35 958 q 122 978 67 969 q 229 986 176 986 q 373 969 313 986 q 472 919 433 951 q 530 840 511 886 q 549 736 549 793 q 507 597 549 647 q 403 517 465 546 l 403 511 q 531 421 486 488 q 576 271 576 354 q 497 58 576 131 q 229 -14 417 -14 q 110 -6 167 -14 q 21 14 53 3 l 21 90 l 229 90 z "},"И":{"ha":792,"x_min":97,"x_max":694,"o":"m 264 0 l 97 0 l 97 972 l 257 972 l 257 333 l 264 333 l 521 972 l 694 972 l 694 0 l 535 0 l 535 653 l 528 653 l 264 0 z "},"Й":{"ha":792,"x_min":97,"x_max":694,"o":"m 396 1167 q 472 1188 438 1167 q 528 1229 507 1208 l 597 1160 q 515 1078 565 1107 q 396 1049 464 1049 q 277 1078 328 1049 q 194 1160 226 1107 l 264 1229 q 319 1188 285 1208 q 396 1167 354 1167 m 264 0 l 97 0 l 97 972 l 257 972 l 257 333 l 264 333 l 521 972 l 694 972 l 694 0 l 535 0 l 535 653 l 528 653 l 264 0 z "},"К":{"ha":722,"x_min":97,"x_max":715,"o":"m 431 504 q 472 485 451 497 q 512 453 493 474 q 545 404 531 433 q 569 333 560 375 l 611 153 q 643 99 618 121 q 715 76 668 76 l 715 0 q 690 -7 706 -4 q 618 -14 663 -14 q 498 28 539 -14 q 438 153 457 69 l 396 333 q 354 426 381 401 q 292 451 328 451 l 264 451 l 264 0 l 97 0 l 97 972 l 264 972 l 264 563 l 292 563 q 340 588 318 563 q 382 681 363 613 l 424 819 q 488 944 449 903 q 604 986 526 986 q 646 984 628 986 q 676 979 664 982 q 701 972 692 975 l 701 896 q 631 876 654 896 q 597 819 608 856 l 556 681 q 501 560 531 597 q 431 510 472 524 l 431 504 z "},"Л":{"ha":778,"x_min":0,"x_max":681,"o":"m 97 -14 q 25 -7 53 -14 q 0 0 10 -4 l 0 76 q 49 88 26 76 q 89 124 71 99 q 118 191 107 150 q 132 292 129 232 l 167 972 l 681 972 l 681 0 l 514 0 l 514 861 l 328 861 l 299 292 q 278 150 294 208 q 235 56 261 92 q 174 3 210 19 q 97 -14 139 -14 z "},"М":{"ha":1056,"x_min":69,"x_max":986,"o":"m 306 972 l 525 313 l 531 313 l 750 972 l 931 972 l 986 0 l 826 0 l 789 658 l 783 658 l 604 118 l 451 118 l 272 658 l 267 658 l 229 0 l 69 0 l 125 972 l 306 972 z "},"Н":{"ha":778,"x_min":97,"x_max":681,"o":"m 681 972 l 681 0 l 514 0 l 514 438 l 264 438 l 264 0 l 97 0 l 97 972 l 264 972 l 264 549 l 514 549 l 514 972 l 681 972 z "},"О":{"ha":764,"x_min":63,"x_max":701,"o":"m 382 83 q 438 101 411 83 q 487 165 465 119 q 522 289 508 211 q 535 486 535 367 q 522 683 535 606 q 487 807 508 761 q 438 871 465 853 q 382 889 411 889 q 326 871 353 889 q 277 807 299 853 q 242 683 256 761 q 229 486 229 606 q 242 289 229 367 q 277 165 256 211 q 326 101 299 119 q 382 83 353 83 m 382 986 q 513 960 454 986 q 614 876 572 935 q 678 722 656 818 q 701 486 701 626 q 678 250 701 346 q 614 96 656 154 q 513 12 572 38 q 382 -14 454 -14 q 249 12 308 -14 q 149 96 190 38 q 85 250 107 154 q 63 486 63 346 q 85 722 63 626 q 149 876 107 818 q 249 960 190 935 q 382 986 308 986 z "},"П":{"ha":778,"x_min":97,"x_max":681,"o":"m 681 972 l 681 0 l 514 0 l 514 861 l 264 861 l 264 0 l 97 0 l 97 972 l 681 972 z "},"Р":{"ha":715,"x_min":97,"x_max":667,"o":"m 340 389 q 409 401 379 389 q 459 441 439 413 q 490 517 479 469 q 500 639 500 565 q 490 756 500 710 q 459 831 479 803 q 409 870 439 858 q 340 882 379 882 l 264 882 l 264 389 l 340 389 m 264 0 l 97 0 l 97 958 q 206 980 150 974 q 340 986 261 986 q 488 967 426 986 q 590 906 550 947 q 648 798 629 864 q 667 639 667 732 q 649 472 667 540 q 594 360 631 403 q 506 297 558 317 q 382 278 453 278 q 359 279 374 278 q 328 283 344 281 q 294 287 311 285 q 264 292 276 289 l 264 0 z "},"С":{"ha":632,"x_min":63,"x_max":611,"o":"m 389 -14 q 247 10 308 -14 q 145 90 186 33 q 83 244 104 147 q 63 486 63 340 q 83 728 63 632 q 144 882 104 825 q 242 963 183 939 q 375 986 300 986 q 507 978 449 986 q 597 958 565 969 l 597 882 l 431 882 q 349 864 386 882 q 285 801 313 846 q 244 680 258 757 q 229 486 229 603 q 244 292 229 369 q 288 171 260 215 q 355 108 315 126 q 444 90 394 90 l 611 90 l 611 14 q 521 -6 579 3 q 389 -14 463 -14 z "},"Т":{"ha":625,"x_min":14,"x_max":611,"o":"m 14 972 l 611 972 l 611 861 l 396 861 l 396 0 l 229 0 l 229 861 l 14 861 l 14 972 z "},"У":{"ha":688,"x_min":0,"x_max":660,"o":"m 264 -14 q 183 -6 222 -14 q 111 14 143 3 l 111 90 l 208 90 q 256 98 235 90 q 294 126 276 106 q 327 184 313 147 q 354 278 342 221 q 218 324 271 278 q 146 444 165 371 l 0 972 l 167 972 l 308 458 q 335 408 317 426 q 375 389 353 389 l 493 972 l 660 972 l 507 222 q 264 -14 460 -14 z "},"Ф":{"ha":986,"x_min":35,"x_max":951,"o":"m 576 1000 l 576 910 q 732 867 663 899 q 850 781 801 835 q 925 653 899 728 q 951 486 951 579 q 925 318 951 392 q 850 191 899 244 q 732 105 801 138 q 576 63 663 72 l 576 -28 l 410 -28 l 410 63 q 254 105 324 72 q 136 191 185 138 q 61 318 88 244 q 35 486 35 392 q 61 653 35 579 q 136 781 88 728 q 254 867 185 835 q 410 910 324 899 l 410 1000 l 576 1000 m 785 486 q 766 619 785 561 q 717 719 747 678 q 650 781 688 760 q 576 806 613 803 l 576 167 q 650 191 613 169 q 717 253 688 213 q 766 353 747 294 q 785 486 785 411 m 201 486 q 220 353 201 411 q 269 253 239 294 q 336 191 299 213 q 410 167 374 169 l 410 806 q 336 781 374 803 q 269 719 299 760 q 220 619 239 678 q 201 486 201 561 z "},"Х":{"ha":694,"x_min":21,"x_max":674,"o":"m 215 972 l 347 611 l 479 972 l 653 972 l 472 500 l 674 0 l 500 0 l 347 396 l 194 0 l 21 0 l 222 500 l 42 972 l 215 972 z "},"Ц":{"ha":792,"x_min":97,"x_max":757,"o":"m 97 0 l 97 972 l 264 972 l 264 111 l 500 111 l 500 972 l 667 972 l 667 111 l 757 111 l 757 -208 l 653 -208 q 617 -115 632 -167 q 597 0 603 -62 l 97 0 z "},"Ч":{"ha":743,"x_min":69,"x_max":646,"o":"m 347 347 q 140 419 211 347 q 69 632 69 490 l 69 972 l 236 972 l 236 632 q 403 458 236 458 l 479 458 l 479 972 l 646 972 l 646 0 l 479 0 l 479 361 q 413 351 453 356 q 347 347 374 347 z "},"Ш":{"ha":1097,"x_min":97,"x_max":1000,"o":"m 632 111 l 833 111 l 833 972 l 1000 972 l 1000 0 l 97 0 l 97 972 l 264 972 l 264 111 l 465 111 l 465 972 l 632 972 l 632 111 z "},"Щ":{"ha":1125,"x_min":97,"x_max":1090,"o":"m 97 0 l 97 972 l 264 972 l 264 111 l 465 111 l 465 972 l 632 972 l 632 111 l 833 111 l 833 972 l 1000 972 l 1000 111 l 1090 111 l 1090 -208 l 986 -208 q 951 -115 965 -167 q 931 0 936 -62 l 97 0 z "},"Ъ":{"ha":799,"x_min":28,"x_max":750,"o":"m 465 597 q 678 522 607 597 q 750 285 750 447 q 673 60 750 133 q 424 -14 596 -14 q 289 -8 344 -14 q 181 14 233 -1 l 181 861 l 28 861 l 28 972 l 347 972 l 347 583 q 377 588 360 586 q 411 592 394 590 q 442 596 428 594 q 465 597 457 597 m 347 486 l 347 90 l 424 90 q 543 135 503 90 q 583 285 583 181 q 573 381 583 342 q 542 443 563 419 q 492 476 522 467 q 424 486 463 486 l 347 486 z "},"Ы":{"ha":1021,"x_min":97,"x_max":924,"o":"m 924 972 l 924 0 l 757 0 l 757 972 l 924 972 m 264 486 l 264 90 l 340 90 q 453 135 414 90 q 493 285 493 181 q 483 381 493 342 q 453 443 472 419 q 405 476 433 467 q 340 486 376 486 l 264 486 m 382 597 q 589 522 518 597 q 660 285 660 447 q 584 60 660 133 q 340 -14 508 -14 q 206 -8 261 -14 q 97 14 150 -1 l 97 972 l 264 972 l 264 583 q 294 588 276 586 q 328 592 311 590 q 359 596 344 594 q 382 597 374 597 z "},"Ь":{"ha":715,"x_min":97,"x_max":667,"o":"m 264 486 l 264 90 l 340 90 q 460 135 419 90 q 500 285 500 181 q 490 381 500 342 q 459 443 479 419 q 409 476 439 467 q 340 486 379 486 l 264 486 m 382 597 q 595 522 524 597 q 667 285 667 447 q 590 60 667 133 q 340 -14 513 -14 q 206 -8 261 -14 q 97 14 150 -1 l 97 972 l 264 972 l 264 583 q 294 588 276 586 q 328 592 311 590 q 359 596 344 594 q 382 597 374 597 z "},"Э":{"ha":632,"x_min":21,"x_max":569,"o":"m 118 556 l 401 556 q 381 715 397 651 q 338 815 364 778 q 278 867 313 853 q 201 882 243 882 l 35 882 l 35 958 q 125 978 67 969 q 257 986 183 986 q 390 963 332 986 q 488 882 449 939 q 549 728 528 825 q 569 486 569 632 q 549 244 569 340 q 487 90 528 147 q 385 10 446 33 q 243 -14 324 -14 q 111 -6 169 -14 q 21 14 53 3 l 21 90 l 188 90 q 273 106 235 90 q 339 163 311 122 q 383 272 367 204 q 401 444 399 340 l 118 444 l 118 556 z "},"Ю":{"ha":1035,"x_min":97,"x_max":972,"o":"m 660 986 q 788 960 731 986 q 887 876 846 935 q 950 722 928 818 q 972 486 972 626 q 950 250 972 346 q 887 96 928 154 q 788 12 846 38 q 660 -14 731 -14 q 537 9 592 -14 q 441 85 482 32 q 376 224 400 138 q 347 438 353 310 l 264 438 l 264 0 l 97 0 l 97 972 l 264 972 l 264 549 l 349 549 q 378 755 353 671 q 444 890 403 839 q 540 964 485 942 q 660 986 594 986 m 660 889 q 608 871 633 889 q 561 807 582 853 q 527 683 540 761 q 514 486 514 606 q 527 289 514 367 q 561 165 540 211 q 608 101 582 119 q 660 83 633 83 q 712 101 686 83 q 758 165 738 119 q 792 289 779 211 q 806 486 806 367 q 792 683 806 606 q 758 807 779 761 q 712 871 738 853 q 660 889 686 889 z "},"Я":{"ha":729,"x_min":14,"x_max":632,"o":"m 465 500 l 465 882 l 389 882 q 269 838 310 882 q 229 694 229 794 q 269 545 229 590 q 389 500 310 500 l 465 500 m 257 431 q 194 454 228 436 q 131 505 160 472 q 82 585 101 538 q 63 694 63 632 q 140 913 63 840 q 389 986 217 986 q 524 980 468 986 q 632 958 579 974 l 632 0 l 465 0 l 465 389 l 431 389 q 406 383 419 389 q 378 364 393 378 q 350 327 364 350 q 326 271 336 304 l 292 153 q 226 28 268 69 q 111 -14 185 -14 q 42 -7 69 -14 q 14 0 26 -4 l 14 76 q 81 94 56 76 q 118 153 106 111 l 153 271 q 201 376 172 339 q 257 425 231 414 l 257 431 z "},"а":{"ha":660,"x_min":56,"x_max":569,"o":"m 403 333 l 326 333 q 290 328 308 333 q 256 308 271 322 q 232 269 242 293 q 222 208 222 244 q 232 148 222 172 q 256 109 242 124 q 290 89 271 94 q 326 83 308 83 q 372 92 353 83 q 403 111 392 100 l 403 333 m 271 -14 q 188 -5 226 -14 q 119 29 149 4 q 73 97 90 54 q 56 208 56 140 q 73 319 56 276 q 121 388 90 363 q 193 422 151 413 q 285 431 235 431 q 347 426 317 431 q 403 417 376 422 l 403 472 q 364 583 403 556 q 257 611 325 611 l 118 611 l 118 681 q 197 700 150 692 q 285 708 243 708 q 408 699 356 708 q 497 663 461 689 q 551 591 533 638 q 569 472 569 544 l 569 0 l 451 0 l 431 42 l 424 42 q 365 3 401 21 q 271 -14 329 -14 z "},"б":{"ha":688,"x_min":69,"x_max":625,"o":"m 236 632 q 288 657 257 647 q 361 667 319 667 q 556 588 486 667 q 625 326 625 508 q 553 65 625 144 q 347 -14 482 -14 q 140 65 211 -14 q 69 326 69 144 l 69 556 q 89 752 69 672 q 152 881 108 832 q 266 952 196 929 q 438 979 336 975 l 604 986 l 611 917 q 525 888 575 901 q 417 868 475 875 q 335 849 369 863 q 279 808 301 835 q 247 738 257 781 q 236 632 236 694 m 236 326 q 246 205 236 253 q 271 128 256 157 q 306 88 286 100 q 347 76 326 76 q 388 88 368 76 q 424 128 408 100 q 449 205 439 157 q 458 326 458 253 q 449 444 458 397 q 420 518 439 490 q 376 558 401 546 q 319 569 350 569 q 267 561 288 569 q 236 542 247 553 l 236 326 z "},"в":{"ha":681,"x_min":90,"x_max":632,"o":"m 340 83 q 385 89 364 83 q 423 108 407 94 q 449 145 439 122 q 458 201 458 168 q 423 288 458 264 q 340 313 388 313 l 257 313 l 257 83 l 340 83 m 257 611 l 257 410 l 326 410 q 365 415 346 410 q 398 433 383 421 q 422 463 413 444 q 431 507 431 481 q 421 556 431 536 q 397 588 411 575 q 363 606 382 600 q 326 611 344 611 l 257 611 m 90 681 q 198 702 143 696 q 326 708 253 708 q 446 699 394 708 q 533 668 497 690 q 586 608 568 646 q 604 514 604 571 q 594 456 604 481 q 567 415 583 432 q 531 388 550 399 q 493 371 511 378 l 493 365 q 541 346 517 358 q 585 313 565 333 q 619 263 606 292 q 632 194 632 233 q 614 92 632 132 q 559 28 596 51 q 467 -5 522 4 q 340 -14 413 -14 q 200 -8 257 -14 q 90 14 143 -1 l 90 681 z "},"г":{"ha":542,"x_min":90,"x_max":528,"o":"m 528 694 l 528 590 l 257 590 l 257 0 l 90 0 l 90 694 l 528 694 z "},"д":{"ha":736,"x_min":14,"x_max":701,"o":"m 701 104 l 701 -201 l 597 -201 q 562 -114 576 -165 q 542 0 547 -62 l 174 0 q 153 -114 168 -62 q 118 -201 139 -165 l 14 -201 l 14 104 l 76 104 q 116 174 97 131 q 139 292 135 218 l 160 694 l 618 694 l 618 104 l 701 104 m 321 590 l 306 292 q 283 174 301 218 q 243 104 264 131 l 451 104 l 451 590 l 321 590 z "},"е":{"ha":639,"x_min":56,"x_max":583,"o":"m 583 299 l 222 299 q 265 131 222 179 q 396 83 307 83 l 549 83 l 549 14 q 469 -6 517 3 q 368 -14 421 -14 q 228 6 288 -14 q 131 68 169 25 q 74 180 93 111 q 56 347 56 249 q 74 515 56 446 q 125 626 92 583 q 208 689 158 669 q 319 708 257 708 q 431 689 382 708 q 514 626 481 669 q 565 515 547 583 q 583 347 583 446 l 583 299 m 417 396 q 409 507 417 464 q 389 575 401 550 q 358 609 376 600 q 319 618 340 618 q 281 609 299 618 q 250 575 263 600 q 230 507 238 550 q 222 396 222 464 l 417 396 z "},"ж":{"ha":931,"x_min":14,"x_max":917,"o":"m 549 694 l 549 417 l 556 417 q 585 431 571 417 q 618 493 599 446 l 660 597 q 715 679 681 650 q 813 708 750 708 q 847 706 831 708 q 876 701 864 704 q 903 694 892 697 l 903 625 q 850 612 867 625 q 826 583 833 599 l 792 493 q 744 407 769 435 q 686 371 718 379 l 686 365 q 757 328 724 357 q 806 236 790 299 l 833 125 q 860 87 839 104 q 917 69 881 69 l 917 0 q 890 -7 906 -4 q 826 -14 863 -14 q 719 19 758 -14 q 667 104 681 51 l 632 236 q 602 292 622 272 q 556 313 582 313 l 549 313 l 549 0 l 382 0 l 382 313 l 375 313 q 328 292 349 313 q 299 236 308 272 l 264 104 q 211 19 250 51 q 104 -14 172 -14 q 40 -7 68 -14 q 14 0 25 -4 l 14 69 q 71 87 50 69 q 97 125 92 104 l 125 236 q 174 328 140 299 q 244 365 207 357 l 244 371 q 187 407 213 379 q 139 493 161 435 l 104 583 q 81 612 97 599 q 28 625 64 625 l 28 694 q 54 701 39 697 q 83 706 67 704 q 118 708 99 708 q 215 679 181 708 q 271 597 250 650 l 313 493 q 346 431 332 446 q 375 417 360 417 l 382 417 l 382 694 l 549 694 z "},"з":{"ha":563,"x_min":21,"x_max":514,"o":"m 514 194 q 495 92 514 132 q 438 28 476 51 q 341 -5 400 4 q 201 -14 282 -14 q 101 -6 149 -14 q 21 14 53 3 l 21 83 l 201 83 q 302 108 264 83 q 340 201 340 133 q 306 288 340 264 q 229 313 271 313 l 111 313 l 111 410 l 215 410 q 292 433 257 410 q 326 514 326 457 q 288 589 326 567 q 188 611 250 611 l 35 611 l 35 681 q 115 700 67 692 q 215 708 163 708 q 339 699 286 708 q 428 669 392 690 q 482 611 464 647 q 500 521 500 575 q 490 459 500 485 q 461 416 479 433 q 421 388 443 399 q 375 371 399 378 l 375 365 q 423 346 399 358 q 467 313 447 333 q 501 263 488 292 q 514 194 514 233 z "},"и":{"ha":708,"x_min":90,"x_max":618,"o":"m 458 438 l 451 438 l 257 0 l 90 0 l 90 694 l 250 694 l 250 271 l 257 271 l 438 694 l 618 694 l 618 0 l 458 0 l 458 438 z "},"й":{"ha":708,"x_min":90,"x_max":618,"o":"m 347 889 q 420 906 389 889 q 472 944 451 924 l 542 875 q 463 799 510 828 q 347 771 415 771 q 232 799 279 771 q 153 875 185 828 l 222 944 q 274 906 243 924 q 347 889 306 889 m 458 438 l 451 438 l 257 0 l 90 0 l 90 694 l 250 694 l 250 271 l 257 271 l 438 694 l 618 694 l 618 0 l 458 0 l 458 438 z "},"к":{"ha":653,"x_min":90,"x_max":639,"o":"m 408 365 q 479 328 446 357 q 528 236 513 299 l 556 125 q 582 87 561 104 q 639 69 603 69 l 639 0 q 613 -7 628 -4 q 549 -14 585 -14 q 442 19 481 -14 q 389 104 403 51 l 354 236 q 324 292 344 272 q 278 313 304 313 l 257 313 l 257 0 l 90 0 l 90 694 l 257 694 l 257 417 l 278 417 q 307 431 293 417 q 340 493 321 446 l 382 597 q 438 679 403 650 q 535 708 472 708 q 569 706 553 708 q 599 701 586 704 q 625 694 614 697 l 625 625 q 572 612 589 625 q 549 583 556 599 l 514 493 q 466 407 492 435 q 408 371 440 379 l 408 365 z "},"л":{"ha":694,"x_min":0,"x_max":604,"o":"m 604 694 l 604 0 l 438 0 l 438 590 l 293 590 l 271 222 q 213 44 264 103 q 90 -14 163 -14 q 28 -7 54 -14 q 0 0 1 0 l 0 69 q 67 104 36 69 q 104 222 99 139 l 132 694 l 604 694 z "},"м":{"ha":917,"x_min":69,"x_max":847,"o":"m 389 104 l 265 438 l 260 438 l 229 0 l 69 0 l 118 694 l 299 694 l 456 271 l 461 271 l 618 694 l 799 694 l 847 0 l 688 0 l 657 438 l 651 438 l 528 104 l 389 104 z "},"н":{"ha":701,"x_min":90,"x_max":611,"o":"m 257 0 l 90 0 l 90 694 l 257 694 l 257 403 l 444 403 l 444 694 l 611 694 l 611 0 l 444 0 l 444 299 l 257 299 l 257 0 z "},"о":{"ha":667,"x_min":56,"x_max":611,"o":"m 333 618 q 290 606 310 618 q 254 564 269 594 q 231 481 239 533 q 222 347 222 428 q 231 214 222 267 q 254 131 239 161 q 290 88 269 100 q 333 76 310 76 q 377 88 357 76 q 413 131 397 100 q 436 214 428 161 q 444 347 444 267 q 436 481 444 428 q 413 564 428 533 q 377 606 397 594 q 333 618 357 618 m 333 708 q 453 689 401 708 q 540 626 504 669 q 593 515 575 583 q 611 347 611 446 q 593 180 611 249 q 540 68 575 111 q 453 6 504 25 q 333 -14 401 -14 q 214 6 265 -14 q 127 68 163 25 q 74 180 92 111 q 56 347 56 249 q 74 515 56 446 q 127 626 92 583 q 214 689 163 669 q 333 708 265 708 z "},"п":{"ha":701,"x_min":90,"x_max":611,"o":"m 257 0 l 90 0 l 90 694 l 611 694 l 611 0 l 444 0 l 444 590 l 257 590 l 257 0 z "},"р":{"ha":681,"x_min":90,"x_max":625,"o":"m 257 111 q 288 92 268 100 q 333 83 307 83 q 383 95 360 83 q 422 137 406 107 q 449 218 439 167 q 458 347 458 269 q 449 476 458 425 q 422 558 439 528 q 383 599 406 588 q 333 611 360 611 q 290 603 307 611 q 257 583 272 594 l 257 111 m 389 708 q 484 689 440 708 q 559 626 528 669 q 608 515 590 583 q 625 347 625 446 q 608 180 625 249 q 558 68 590 111 q 478 6 525 25 q 375 -14 432 -14 q 309 -4 339 -14 q 257 21 279 6 l 257 -278 l 90 -278 l 90 694 l 208 694 l 229 653 l 236 653 q 294 691 258 674 q 389 708 331 708 z "},"с":{"ha":549,"x_min":56,"x_max":528,"o":"m 361 611 q 304 599 329 611 q 260 558 279 588 q 232 476 242 528 q 222 347 222 425 q 233 218 222 269 q 263 137 243 167 q 310 95 282 107 q 375 83 339 83 l 528 83 l 528 14 q 448 -6 496 3 q 347 -14 400 -14 q 219 6 274 -14 q 128 68 165 25 q 74 180 92 111 q 56 347 56 249 q 74 515 56 446 q 127 626 92 583 q 214 689 163 669 q 333 708 265 708 q 434 700 386 708 q 514 681 482 692 l 514 611 l 361 611 z "},"т":{"ha":542,"x_min":14,"x_max":528,"o":"m 528 694 l 528 590 l 354 590 l 354 0 l 188 0 l 188 590 l 14 590 l 14 694 l 528 694 z "},"у":{"ha":660,"x_min":28,"x_max":618,"o":"m 458 694 l 618 694 l 486 -14 q 397 -226 458 -161 q 236 -292 336 -292 q 159 -283 194 -292 q 97 -264 124 -275 l 97 -194 l 188 -194 q 235 -187 214 -194 q 272 -159 256 -179 q 302 -103 289 -139 q 326 -14 315 -68 q 217 33 264 -14 q 153 153 169 79 l 28 694 l 188 694 l 313 153 q 322 125 317 135 q 333 111 328 115 q 347 104 339 106 l 458 694 z "},"ф":{"ha":861,"x_min":49,"x_max":813,"o":"m 514 90 q 567 110 543 96 q 608 154 590 125 q 636 230 626 183 q 646 347 646 276 q 636 465 646 418 q 608 540 626 511 q 567 584 590 569 q 514 604 543 599 l 514 90 m 514 972 l 514 701 q 733 600 654 686 q 813 347 813 514 q 733 94 813 181 q 514 -7 654 8 l 514 -278 l 347 -278 l 347 -7 q 128 94 207 8 q 49 347 49 181 q 128 600 49 514 q 347 701 207 686 l 347 972 l 514 972 m 347 604 q 294 584 318 599 q 253 540 271 569 q 225 465 235 511 q 215 347 215 418 q 225 230 215 276 q 253 154 235 183 q 294 110 271 125 q 347 90 318 96 l 347 604 z "},"х":{"ha":611,"x_min":21,"x_max":590,"o":"m 410 694 l 583 694 l 424 354 l 590 0 l 417 0 l 306 257 l 194 0 l 21 0 l 188 354 l 28 694 l 201 694 l 306 451 l 410 694 z "},"ц":{"ha":722,"x_min":90,"x_max":688,"o":"m 90 0 l 90 694 l 257 694 l 257 104 l 438 104 l 438 694 l 604 694 l 604 104 l 688 104 l 688 -201 l 583 -201 q 548 -114 563 -165 q 528 0 533 -62 l 90 0 z "},"ч":{"ha":667,"x_min":56,"x_max":576,"o":"m 56 694 l 222 694 l 222 451 q 232 395 222 418 q 258 358 242 372 q 295 339 274 344 q 340 333 317 333 l 410 333 l 410 694 l 576 694 l 576 0 l 410 0 l 410 250 q 345 240 383 244 q 271 236 307 236 q 188 245 226 236 q 119 278 149 254 q 73 344 90 303 q 56 451 56 386 l 56 694 z "},"ш":{"ha":986,"x_min":90,"x_max":896,"o":"m 90 0 l 90 694 l 257 694 l 257 104 l 410 104 l 410 694 l 576 694 l 576 104 l 729 104 l 729 694 l 896 694 l 896 0 l 90 0 z "},"щ":{"ha":1014,"x_min":90,"x_max":979,"o":"m 90 0 l 90 694 l 257 694 l 257 104 l 410 104 l 410 694 l 576 694 l 576 104 l 729 104 l 729 694 l 896 694 l 896 104 l 979 104 l 979 -201 l 875 -201 q 840 -114 854 -165 q 819 0 825 -62 l 90 0 z "},"ъ":{"ha":736,"x_min":28,"x_max":688,"o":"m 333 431 q 392 440 360 436 q 451 444 425 444 q 547 435 503 444 q 622 400 590 425 q 670 331 653 375 q 688 215 688 286 q 669 100 688 144 q 616 31 651 56 q 529 -4 581 6 q 410 -14 478 -14 q 275 -8 331 -14 q 167 14 219 -1 l 167 590 l 28 590 l 28 694 l 333 694 l 333 431 m 410 83 q 451 90 431 83 q 486 110 471 96 q 511 151 501 125 q 521 215 521 176 q 511 276 521 251 q 486 315 501 300 q 451 335 471 329 q 410 340 431 340 l 333 340 l 333 83 l 410 83 z "},"ы":{"ha":938,"x_min":90,"x_max":847,"o":"m 847 694 l 847 0 l 681 0 l 681 694 l 847 694 m 257 431 q 316 440 283 436 q 375 444 349 444 q 467 435 425 444 q 539 400 508 425 q 587 331 569 375 q 604 215 604 286 q 586 100 604 144 q 534 31 568 56 q 449 -4 500 6 q 333 -14 399 -14 q 199 -8 254 -14 q 90 14 143 -1 l 90 694 l 257 694 l 257 431 m 333 83 q 370 90 351 83 q 403 110 389 96 q 428 151 418 125 q 438 215 438 176 q 428 276 438 251 q 403 315 418 300 q 370 335 389 329 q 333 340 351 340 l 257 340 l 257 83 l 333 83 z "},"ь":{"ha":660,"x_min":90,"x_max":611,"o":"m 257 431 q 316 440 283 436 q 375 444 349 444 q 470 435 426 444 q 545 400 514 425 q 594 331 576 375 q 611 215 611 286 q 593 100 611 144 q 540 31 575 56 q 453 -4 504 6 q 333 -14 401 -14 q 199 -8 254 -14 q 90 14 143 -1 l 90 694 l 257 694 l 257 431 m 333 83 q 374 90 354 83 q 410 110 394 96 q 435 151 425 125 q 444 215 444 176 q 435 276 444 251 q 410 315 425 300 q 374 335 394 329 q 333 340 354 340 l 257 340 l 257 83 l 333 83 z "},"э":{"ha":549,"x_min":21,"x_max":493,"o":"m 118 306 l 118 410 l 326 410 q 285 567 321 524 q 188 611 250 611 l 35 611 l 35 681 q 115 700 67 692 q 215 708 163 708 q 335 689 283 708 q 422 626 386 669 q 475 515 457 583 q 493 347 493 446 q 475 180 493 249 q 420 68 457 111 q 328 6 383 25 q 201 -14 274 -14 q 101 -6 149 -14 q 21 14 53 3 l 21 83 l 174 83 q 238 94 210 83 q 284 129 265 104 q 313 197 303 154 q 326 306 324 240 l 118 306 z "},"ю":{"ha":924,"x_min":90,"x_max":868,"o":"m 597 708 q 713 689 663 708 q 798 626 764 669 q 850 515 832 583 q 868 347 868 446 q 850 180 868 249 q 798 68 832 111 q 713 6 764 25 q 597 -14 663 -14 q 406 57 475 -14 q 328 299 336 128 l 257 299 l 257 0 l 90 0 l 90 694 l 257 694 l 257 410 l 328 410 q 408 640 339 572 q 597 708 478 708 m 597 618 q 558 606 576 618 q 524 564 539 594 q 501 481 510 533 q 493 347 493 428 q 501 214 493 267 q 524 131 510 161 q 558 88 539 100 q 597 76 576 76 q 637 88 618 76 q 670 131 656 100 q 693 214 685 161 q 701 347 701 267 q 693 481 701 428 q 670 564 685 533 q 637 606 656 594 q 597 618 618 618 z "},"я":{"ha":653,"x_min":14,"x_max":563,"o":"m 319 611 q 278 606 299 611 q 243 585 258 600 q 218 547 228 571 q 208 486 208 522 q 218 430 208 453 q 243 393 228 407 q 278 374 258 379 q 319 368 299 368 l 396 368 l 396 611 l 319 611 m 217 301 q 151 315 182 303 q 95 351 119 328 q 56 408 71 374 q 42 486 42 442 q 62 597 42 554 q 118 665 82 640 q 206 699 154 690 q 319 708 257 708 q 454 702 399 708 q 563 681 510 696 l 563 0 l 396 0 l 396 264 l 369 264 q 292 201 317 264 l 250 97 q 196 15 229 44 q 104 -14 163 -14 q 40 -7 68 -14 q 14 0 25 -4 l 14 69 q 67 83 50 69 q 90 111 83 96 l 125 201 q 164 268 143 249 q 217 296 185 288 l 217 301 z "},"ё":{"ha":639,"x_min":56,"x_max":583,"o":"m 583 299 l 222 299 q 265 131 222 179 q 396 83 307 83 l 549 83 l 549 14 q 469 -6 517 3 q 368 -14 421 -14 q 228 6 288 -14 q 131 68 169 25 q 74 180 93 111 q 56 347 56 249 q 74 515 56 446 q 125 626 92 583 q 208 689 158 669 q 319 708 257 708 q 431 689 382 708 q 514 626 481 669 q 565 515 547 583 q 583 347 583 446 l 583 299 m 417 396 q 409 507 417 464 q 389 575 401 550 q 358 609 376 600 q 319 618 340 618 q 281 609 299 618 q 250 575 263 600 q 230 507 238 550 q 222 396 222 464 l 417 396 m 285 944 l 285 778 l 132 778 l 132 944 l 285 944 m 507 944 l 507 778 l 354 778 l 354 944 l 507 944 z "},"ђ":{"ha":694,"x_min":28,"x_max":625,"o":"m 271 625 q 333 656 297 646 q 410 667 368 667 q 493 658 454 667 q 561 624 532 649 q 608 556 590 599 q 625 444 625 513 l 625 208 q 575 40 625 93 q 431 -14 525 -14 q 371 -8 394 -14 q 326 14 347 -1 l 326 83 l 396 83 q 420 89 408 83 q 440 109 432 94 q 453 148 449 124 q 458 208 458 172 l 458 444 q 449 505 458 481 q 424 544 439 529 q 388 564 408 558 q 347 569 368 569 q 301 561 321 569 q 271 542 282 553 l 271 0 l 104 0 l 104 744 l 28 744 l 28 847 l 104 847 l 104 972 l 271 972 l 271 847 l 458 847 l 458 772 q 423 762 443 767 q 381 753 403 757 q 338 747 360 749 q 299 744 317 744 l 271 744 l 271 625 z "},"ѓ":{"ha":542,"x_min":90,"x_max":528,"o":"m 528 694 l 528 590 l 257 590 l 257 0 l 90 0 l 90 694 l 528 694 m 250 778 l 299 958 l 458 958 l 354 778 l 250 778 z "},"є":{"ha":549,"x_min":56,"x_max":528,"o":"m 222 306 q 235 197 225 240 q 265 129 246 154 q 311 94 283 104 q 375 83 339 83 l 528 83 l 528 14 q 448 -6 496 3 q 347 -14 400 -14 q 219 6 274 -14 q 128 68 165 25 q 74 180 92 111 q 56 347 56 249 q 74 515 56 446 q 127 626 92 583 q 214 689 163 669 q 333 708 265 708 q 434 700 386 708 q 514 681 482 692 l 514 611 l 361 611 q 263 567 299 611 q 222 410 228 524 l 431 410 l 431 306 l 222 306 z "},"ѕ":{"ha":576,"x_min":42,"x_max":535,"o":"m 208 528 q 233 469 208 492 q 293 428 257 446 q 372 394 329 411 q 450 353 414 378 q 510 291 486 329 q 535 194 535 253 q 517 92 535 132 q 461 28 499 51 q 367 -5 424 4 q 236 -14 311 -14 q 135 -6 183 -14 q 56 14 88 3 l 56 83 l 208 83 q 328 106 288 83 q 368 181 368 128 q 344 240 368 217 q 283 280 319 263 q 205 314 247 297 q 126 355 163 331 q 66 417 90 379 q 42 514 42 454 q 60 608 42 571 q 112 668 78 646 q 197 699 146 690 q 313 708 247 708 q 413 700 365 708 q 493 681 461 692 l 493 611 l 340 611 q 245 590 282 611 q 208 528 208 569 z "},"і":{"ha":347,"x_min":90,"x_max":257,"o":"m 257 0 l 90 0 l 90 694 l 257 694 l 257 0 m 257 944 l 257 778 l 90 778 l 90 944 l 257 944 z "},"ї":{"ha":333,"x_min":-21,"x_max":354,"o":"m 250 0 l 83 0 l 83 694 l 250 694 l 250 0 m 132 944 l 132 778 l -21 778 l -21 944 l 132 944 m 354 944 l 354 778 l 201 778 l 201 944 l 354 944 z "},"ј":{"ha":368,"x_min":-83,"x_max":271,"o":"m 271 -56 q 253 -175 271 -129 q 207 -247 236 -221 q 139 -282 178 -272 q 56 -292 100 -292 q -22 -283 14 -292 q -83 -264 -57 -275 l -83 -194 l 14 -194 q 77 -162 50 -194 q 104 -56 104 -129 l 104 694 l 271 694 l 271 -56 m 271 944 l 271 778 l 104 778 l 104 944 l 271 944 z "},"љ":{"ha":1000,"x_min":0,"x_max":951,"o":"m 597 431 q 656 440 624 436 q 715 444 689 444 q 810 435 767 444 q 885 400 854 425 q 934 331 917 375 q 951 215 951 286 q 933 100 951 144 q 880 31 915 56 q 793 -4 844 6 q 674 -14 742 -14 q 539 -8 594 -14 q 431 14 483 -1 l 431 590 l 293 590 l 271 222 q 213 44 264 103 q 90 -14 163 -14 q 28 -7 54 -14 q 0 0 1 0 l 0 69 q 67 104 36 69 q 104 222 99 139 l 132 694 l 597 694 l 597 431 m 674 83 q 715 90 694 83 q 750 110 735 96 q 775 151 765 125 q 785 215 785 176 q 775 276 785 251 q 750 315 765 300 q 715 335 735 329 q 674 340 694 340 l 597 340 l 597 83 l 674 83 z "},"њ":{"ha":1014,"x_min":90,"x_max":965,"o":"m 257 0 l 90 0 l 90 694 l 257 694 l 257 424 l 444 424 l 444 694 l 611 694 l 611 410 q 670 419 638 415 q 729 424 703 424 q 824 415 781 424 q 899 381 868 406 q 948 313 931 356 q 965 201 965 269 q 947 94 965 136 q 894 28 929 53 q 807 -5 858 4 q 688 -14 756 -14 q 553 -8 608 -14 q 444 14 497 -1 l 444 319 l 257 319 l 257 0 m 688 83 q 728 89 708 83 q 764 108 749 94 q 789 145 779 122 q 799 201 799 168 q 789 258 799 235 q 764 294 779 281 q 728 314 749 308 q 688 319 708 319 l 611 319 l 611 83 l 688 83 z "},"ћ":{"ha":715,"x_min":28,"x_max":625,"o":"m 271 625 q 333 656 297 646 q 410 667 368 667 q 493 658 454 667 q 561 624 532 649 q 608 556 590 599 q 625 444 625 513 l 625 0 l 458 0 l 458 444 q 449 505 458 481 q 424 544 439 529 q 388 564 408 558 q 347 569 368 569 q 301 561 321 569 q 271 542 282 553 l 271 0 l 104 0 l 104 744 l 28 744 l 28 847 l 104 847 l 104 972 l 271 972 l 271 847 l 458 847 l 458 772 q 423 762 443 767 q 381 753 403 757 q 338 747 360 749 q 299 744 317 744 l 271 744 l 271 625 z "},"ќ":{"ha":653,"x_min":90,"x_max":639,"o":"m 408 365 q 479 328 446 357 q 528 236 513 299 l 556 125 q 582 87 561 104 q 639 69 603 69 l 639 0 q 613 -7 628 -4 q 549 -14 585 -14 q 442 19 481 -14 q 389 104 403 51 l 354 236 q 324 292 344 272 q 278 313 304 313 l 257 313 l 257 0 l 90 0 l 90 694 l 257 694 l 257 417 l 278 417 q 307 431 293 417 q 340 493 321 446 l 382 597 q 438 679 403 650 q 535 708 472 708 q 569 706 553 708 q 599 701 586 704 q 625 694 614 697 l 625 625 q 572 612 589 625 q 549 583 556 599 l 514 493 q 466 407 492 435 q 408 371 440 379 l 408 365 m 278 778 l 326 958 l 486 958 l 382 778 l 278 778 z "},"ў":{"ha":660,"x_min":28,"x_max":618,"o":"m 458 694 l 618 694 l 486 -14 q 397 -226 458 -161 q 236 -292 336 -292 q 159 -283 194 -292 q 97 -264 124 -275 l 97 -194 l 188 -194 q 235 -187 214 -194 q 272 -159 256 -179 q 302 -103 289 -139 q 326 -14 315 -68 q 217 33 264 -14 q 153 153 169 79 l 28 694 l 188 694 l 313 153 q 322 125 317 135 q 333 111 328 115 q 347 104 339 106 l 458 694 m 333 889 q 406 906 375 889 q 458 944 438 924 l 528 875 q 449 799 496 828 q 333 771 401 771 q 218 799 265 771 q 139 875 171 828 l 208 944 q 260 906 229 924 q 333 889 292 889 z "},"џ":{"ha":701,"x_min":90,"x_max":611,"o":"m 294 -194 l 267 0 l 90 0 l 90 694 l 257 694 l 257 104 l 444 104 l 444 694 l 611 694 l 611 0 l 433 0 l 406 -194 l 294 -194 z "},"Ґ":{"ha":604,"x_min":97,"x_max":576,"o":"m 264 861 l 264 0 l 97 0 l 97 972 l 444 972 l 465 1097 l 576 1097 l 576 861 l 264 861 z "},"ґ":{"ha":542,"x_min":90,"x_max":528,"o":"m 257 590 l 257 0 l 90 0 l 90 694 l 396 694 l 417 826 l 528 826 l 528 590 l 257 590 z "},"–":{"ha":667,"x_min":42,"x_max":625,"o":"m 42 444 l 625 444 l 625 333 l 42 333 l 42 444 z "},"—":{"ha":917,"x_min":42,"x_max":875,"o":"m 42 444 l 875 444 l 875 333 l 42 333 l 42 444 z "},"‘":{"ha":271,"x_min":56,"x_max":222,"o":"m 222 660 l 56 660 l 111 979 l 222 979 l 222 660 z "},"’":{"ha":271,"x_min":56,"x_max":222,"o":"m 56 979 l 222 979 l 167 660 l 56 660 l 56 979 z "},"‚":{"ha":271,"x_min":56,"x_max":222,"o":"m 56 153 l 222 153 l 167 -167 l 56 -167 l 56 153 z "},"“":{"ha":507,"x_min":49,"x_max":451,"o":"m 451 660 l 285 660 l 340 979 l 451 979 l 451 660 m 215 660 l 49 660 l 104 979 l 215 979 l 215 660 z "},"”":{"ha":507,"x_min":56,"x_max":458,"o":"m 56 979 l 222 979 l 167 660 l 56 660 l 56 979 m 292 979 l 458 979 l 403 660 l 292 660 l 292 979 z "},"„":{"ha":507,"x_min":56,"x_max":458,"o":"m 56 153 l 222 153 l 167 -167 l 56 -167 l 56 153 m 292 153 l 458 153 l 403 -167 l 292 -167 l 292 153 z "},"†":{"ha":653,"x_min":28,"x_max":625,"o":"m 410 -278 l 243 -278 l 243 535 l 28 535 l 28 646 l 243 646 l 243 972 l 410 972 l 410 646 l 625 646 l 625 535 l 410 535 l 410 -278 z "},"‡":{"ha":653,"x_min":28,"x_max":625,"o":"m 410 646 l 625 646 l 625 535 l 410 535 l 410 160 l 625 160 l 625 49 l 410 49 l 410 -278 l 243 -278 l 243 49 l 28 49 l 28 160 l 243 160 l 243 535 l 28 535 l 28 646 l 243 646 l 243 972 l 410 972 l 410 646 z "},"•":{"ha":375,"x_min":63,"x_max":313,"o":"m 313 361 l 63 361 l 63 610 l 313 610 l 313 361 z "},"…":{"ha":819,"x_min":56,"x_max":764,"o":"m 222 153 l 222 -14 l 56 -14 l 56 153 l 222 153 m 493 153 l 493 -14 l 326 -14 l 326 153 l 493 153 m 764 153 l 764 -14 l 597 -14 l 597 153 l 764 153 z "},"‰":{"ha":1458,"x_min":35,"x_max":1424,"o":"m 854 972 l 313 0 l 146 0 l 688 972 l 854 972 m 250 889 q 196 863 218 889 q 174 778 174 836 q 196 693 174 719 q 250 667 218 667 q 304 693 282 667 q 326 778 326 719 q 304 863 326 836 q 250 889 282 889 m 250 986 q 408 929 350 986 q 465 778 465 872 q 408 626 465 683 q 250 569 350 569 q 92 626 150 569 q 35 778 35 683 q 92 929 35 872 q 250 986 150 986 m 750 306 q 696 279 718 306 q 674 194 674 253 q 696 110 674 136 q 750 83 718 83 q 804 110 782 83 q 826 194 826 136 q 804 279 826 253 q 750 306 782 306 m 750 403 q 908 346 850 403 q 965 194 965 289 q 908 43 965 100 q 750 -14 850 -14 q 592 43 650 -14 q 535 194 535 100 q 592 346 535 289 q 750 403 650 403 m 1208 306 q 1154 279 1176 306 q 1132 194 1132 253 q 1154 110 1132 136 q 1208 83 1176 83 q 1263 110 1240 83 q 1285 194 1285 136 q 1263 279 1285 253 q 1208 306 1240 306 m 1208 403 q 1366 346 1308 403 q 1424 194 1424 289 q 1366 43 1424 100 q 1208 -14 1308 -14 q 1051 43 1108 -14 q 993 194 993 100 q 1051 346 993 289 q 1208 403 1108 403 z "},"‹":{"ha":451,"x_min":28,"x_max":410,"o":"m 208 343 l 410 76 l 292 0 l 28 347 l 292 694 l 410 618 l 208 351 l 208 343 z "},"›":{"ha":451,"x_min":42,"x_max":424,"o":"m 243 351 l 42 618 l 160 694 l 424 347 l 160 0 l 42 76 l 243 343 l 243 351 z "},"€":{"ha":667,"x_min":14,"x_max":646,"o":"m 424 -14 q 299 3 354 -14 q 205 60 244 19 q 140 167 165 100 q 104 333 114 233 l 14 333 l 28 438 l 97 438 l 97 535 l 14 535 l 28 639 l 104 639 q 139 806 114 739 q 202 913 164 872 q 292 969 240 953 q 410 986 344 986 q 542 978 483 986 q 632 958 600 969 l 632 882 l 465 882 q 398 870 429 882 q 342 831 367 858 q 299 756 317 803 q 272 639 282 710 l 549 639 l 528 535 l 264 535 l 264 438 l 507 438 l 486 333 l 272 333 q 300 216 282 263 q 344 141 318 169 q 405 101 371 113 q 479 90 439 90 l 646 90 l 646 14 q 556 -6 614 3 q 424 -14 497 -14 z "},"№":{"ha":1229,"x_min":97,"x_max":1188,"o":"m 264 639 l 257 639 l 257 0 l 97 0 l 97 972 l 264 972 l 528 333 l 535 333 l 535 972 l 694 972 l 694 0 l 528 0 l 264 639 m 972 986 q 1130 929 1072 986 q 1188 778 1188 872 q 1130 626 1188 683 q 972 569 1072 569 q 815 626 872 569 q 757 778 757 683 q 815 929 757 872 q 972 986 872 986 m 792 500 l 1153 500 l 1153 389 l 792 389 l 792 500 m 972 889 q 918 863 940 889 q 896 778 896 836 q 918 693 896 719 q 972 667 940 667 q 1026 693 1004 667 q 1049 778 1049 719 q 1026 863 1049 836 q 972 889 1004 889 z "},"™":{"ha":965,"x_min":14,"x_max":924,"o":"m 549 972 l 660 728 l 771 972 l 896 972 l 924 556 l 806 556 l 792 799 l 708 611 l 611 611 l 528 799 l 514 556 l 396 556 l 424 972 l 549 972 m 368 972 l 368 889 l 250 889 l 250 556 l 132 556 l 132 889 l 14 889 l 14 972 l 368 972 z "}}}
